# Blender v2.79 (sub 0) OBJ File: ''
# www.blender.org
mtllib Direction.mtl
o Cube.002_Cube
v -0.066176 -0.066175 0.630276
v -0.066176 0.066175 0.630276
v -0.066176 0.066175 -0.095343
v -0.066176 -0.066175 -0.095343
v 0.390922 0.066175 -0.095343
v 0.000000 0.066175 -0.879181
v 0.066176 0.066175 -0.095343
v 0.066176 -0.066175 -0.095343
v 0.066176 0.066175 0.630276
v 0.066176 -0.066175 0.630276
v 0.390922 -0.066175 -0.095343
v -0.390923 -0.066175 -0.095343
v -0.390923 0.066175 -0.095343
v 0.000000 -0.066175 -0.879181
vt 0.723288 0.997757
vt 0.642625 0.997757
vt 0.642625 0.549165
vt 0.723288 0.549165
vt 0.281764 0.467202
vt 0.559363 0.004667
vt 0.478985 0.484092
vt 0.641818 0.997757
vt 0.561154 0.997757
vt 0.561154 0.549165
vt 0.641818 0.549165
vt 0.724095 0.831926
vt 0.724095 0.750104
vt 0.804759 0.750104
vt 0.804759 0.831926
vt 0.278987 0.451668
vt 0.198610 0.458552
vt 0.161406 0.011550
vt 0.241784 0.004667
vt 0.559363 0.490975
vt 0.522159 0.937977
vt 0.441781 0.931094
vt 0.804759 0.748691
vt 0.724095 0.748691
vt 0.724095 0.547926
vt 0.804759 0.547926
vt 0.886229 0.748691
vt 0.886229 0.547926
vt 0.805565 0.547926
vt 0.805565 0.748691
vt 0.918933 0.002423
vt 0.999597 0.002423
vt 0.999597 0.487008
vt 0.918933 0.487008
vt 0.918933 0.002423
vt 0.999597 0.002423
vt 0.738755 0.002708
vt 0.561637 0.092310
vt 0.738755 0.544214
vt 0.001388 0.475441
vt 0.278988 0.937977
vt 0.917644 0.544214
vt 0.917644 0.002708
vt 0.740526 0.454612
vn -1.0000 -0.0000 0.0000
vn -0.7071 -0.0000 0.7071
vn 0.0000 1.0000 0.0000
vn 1.0000 0.0000 0.0000
vn 0.0000 0.0000 1.0000
vn 0.0000 -1.0000 -0.0000
vn 0.8949 0.0000 -0.4463
vn 0.0000 0.0000 -1.0000
vn -0.8949 0.0000 -0.4463
usemtl Material.001
s 1
f 1/1/1 2/2/1 3/3/2 4/4/2
f 5/5/3 6/6/3 7/7/3
f 8/8/4 7/9/4 9/10/4 10/11/4
f 10/12/5 9/13/5 2/14/5 1/15/5
f 4/16/6 8/17/6 10/18/6 1/19/6
f 7/7/3 3/20/3 2/21/3 9/22/3
f 7/23/5 8/24/5 11/25/5 5/26/5
f 3/27/2 13/28/5 12/29/5 4/30/2
f 5/31/7 11/32/7 14/33/8 6/34/8
f 13/35/9 6/34/8 14/33/8 12/36/9
f 13/37/3 3/38/3 6/39/3
f 7/7/3 6/6/3 3/20/3
f 11/40/6 8/17/6 14/41/6
f 12/42/6 14/43/6 4/44/6
f 4/16/6 14/41/6 8/17/6
