# Blender v2.82 (sub 1) OBJ File: 'Mediatheque - Copie.blend'
# www.blender.org
mtllib DeskEPM.mtl
o Plane.133_Plane.059
v -0.575677 0.000000 -0.755664
v -1.099847 0.000000 0.475367
v 0.575677 0.000000 -0.755665
v 1.099847 0.000000 0.475367
v -1.099847 0.889830 0.475367
v 1.099847 0.889830 0.475367
v 0.575677 0.324334 -0.755665
v -0.575677 0.324334 -0.755664
v -1.099847 0.324334 0.475367
v 1.099847 0.324334 0.475367
v -0.815593 0.000000 -0.300129
v -0.953339 0.000000 -0.038586
v 0.953339 0.000000 -0.038586
v 0.815593 0.000000 -0.300129
v -0.953339 1.000000 -0.038586
v -0.815593 1.000000 -0.300129
v 0.815593 1.000000 -0.300129
v 0.953339 1.000000 -0.038586
v -0.953339 0.324334 -0.038586
v -0.815593 0.324334 -0.300129
v 0.815593 0.324334 -0.300129
v 0.953339 0.324334 -0.038586
v -0.953339 1.685038 -0.038586
v -0.815593 1.685038 -0.300129
v 0.815593 1.685038 -0.300129
v 0.953339 1.685038 -0.038586
v -0.000000 0.000000 -0.755664
v 0.000000 0.889830 0.862691
v 0.000000 1.000000 -0.038586
v 0.000000 1.000000 -0.300129
v 0.000000 0.324334 -0.300129
v -0.000000 0.324334 -0.755664
v 0.000000 1.685038 -0.038586
v 0.000000 1.685038 -0.300129
v -0.287839 0.000000 -0.755664
v -0.407796 1.000000 -0.300129
v -0.407796 1.685038 -0.300129
v -0.662856 0.889830 0.748667
v -0.476669 1.000000 -0.038586
v -0.407796 0.324334 -0.300129
v -0.287839 0.324334 -0.755664
v -0.476669 1.685038 -0.038586
v 0.662855 0.889830 0.748667
v 0.476669 1.000000 -0.038586
v 0.407796 0.324334 -0.300129
v 0.287839 0.324334 -0.755664
v 0.476669 1.685038 -0.038586
v 0.287839 0.000000 -0.755664
v 0.407796 1.000000 -0.300129
v 0.407796 1.685038 -0.300129
v -1.147858 0.324334 0.330756
v -1.147858 0.000000 0.330756
v -1.147858 1.000000 0.330756
v 1.147858 0.000000 0.330756
v 1.147858 1.000000 0.330756
v 1.147858 0.324334 0.330756
v 0.000000 1.000000 0.692156
v -0.627626 1.000000 0.599707
v 0.627626 1.000000 0.599706
v 1.193254 0.000000 0.416950
v 0.662855 1.000000 0.748667
v 1.193254 1.000000 0.416950
v -1.193254 1.000000 0.416950
v -1.193254 0.324334 0.416950
v 1.193254 0.324334 0.416950
v -1.193254 0.000000 0.416950
v -0.662856 1.000000 0.748667
v 0.000000 1.000000 0.862691
v -0.384629 0.324334 0.019736
v -0.686134 0.324334 -0.186139
v 0.384629 0.324334 0.019736
v -0.000000 0.324334 0.082467
v -0.000000 0.000000 0.082467
v -0.000000 0.889830 0.082467
v -0.384629 0.889830 0.019736
v -0.384629 0.000000 0.019736
v 0.686135 0.324334 -0.186140
v 0.384629 0.000000 0.019736
v 0.384629 0.889830 0.019736
v 0.686135 0.000000 -0.186140
v 0.686135 0.889830 -0.186140
v -0.686134 0.889830 -0.186139
v -0.686134 0.000000 -0.186139
v -0.815593 0.324334 -0.300129
v -0.815593 0.324334 -0.300129
v -0.575677 0.324334 -0.755664
v -0.575677 0.324334 -0.755664
v 0.662855 1.000000 0.748667
v 1.193254 1.000000 0.416950
v 1.193254 1.000000 0.416950
v -1.193254 1.000000 0.416950
v -1.193254 1.000000 0.416950
v -1.193254 0.324334 0.416950
v 1.193254 0.324334 0.416950
v -1.193254 0.000000 0.416950
v 0.575677 0.324334 -0.755665
v 0.575677 0.324334 -0.755665
v 0.575677 0.000000 -0.755665
v 1.193254 0.000000 0.416950
v -0.815593 1.000000 -0.300129
v -0.575677 0.000000 -0.755664
v 0.815593 0.324334 -0.300129
v 0.815593 0.324334 -0.300129
v 0.815593 1.000000 -0.300129
v 0.476669 1.000000 -0.038586
v 0.953339 1.000000 -0.038586
v 0.953339 1.000000 -0.038586
v -1.147858 1.000000 0.330756
v -0.953339 1.000000 -0.038586
v -0.953339 1.000000 -0.038586
v 0.407796 0.324334 -0.300129
v 1.147858 1.000000 0.330756
v 0.287839 0.324334 -0.755664
v -0.953339 1.685038 -0.038586
v -0.953339 1.685038 -0.038586
v -0.815593 1.685038 -0.300129
v -0.815593 1.685038 -0.300129
v 0.815593 1.685038 -0.300129
v 0.815593 1.685038 -0.300129
v 0.953339 1.685038 -0.038586
v 0.953339 1.685038 -0.038586
v 0.476669 1.685038 -0.038586
v -0.407796 1.685038 -0.300129
v -0.662856 1.000000 0.748667
v 0.000000 1.000000 0.862691
v -0.476669 1.000000 -0.038586
v 0.000000 1.000000 -0.038586
v -0.407796 0.324334 -0.300129
v 0.000000 0.324334 -0.300129
v -0.287839 0.324334 -0.755664
v -0.000000 0.324334 -0.755664
v -0.686134 0.889830 -0.186139
v -0.686134 0.889830 -0.186139
v -1.099847 0.889830 0.475367
v -1.099847 0.889830 0.475367
v -0.476669 1.685038 -0.038586
v 0.000000 1.685038 -0.038586
v 0.407796 1.685038 -0.300129
v 0.000000 1.685038 -0.300129
v 0.686135 0.889830 -0.186140
v 0.686135 0.889830 -0.186140
v 1.099847 0.889830 0.475367
v 1.099847 0.889830 0.475367
v 0.662855 0.889830 0.748667
v -1.099847 0.324334 0.475367
v 1.099847 0.324334 0.475367
v -1.099847 0.000000 0.475367
v 1.099847 0.000000 0.475367
v -0.662856 0.889830 0.748667
v 0.000000 0.889830 0.862691
v 0.384629 0.889830 0.019736
v -0.686134 0.324334 -0.186139
v 0.686135 0.324334 -0.186140
v -0.686134 0.000000 -0.186139
v 0.686135 0.000000 -0.186140
v -0.384629 0.889830 0.019736
v -0.000000 0.889830 0.082467
vt 0.437641 0.578885
vt 0.437641 0.657771
vt 0.349521 0.611361
vt 0.349521 0.555680
vt 0.587655 0.424164
vt 0.587655 0.533555
vt 0.459692 0.533555
vt 0.459692 0.424164
vt 0.559681 0.424164
vt 0.488235 0.424164
vt 0.488235 0.554867
vt 0.559681 0.554867
vt 0.611708 0.621410
vt 0.640523 0.628225
vt 0.576355 0.730827
vt 0.559681 0.722045
vt 0.559681 0.361424
vt 0.576355 0.361424
vt 0.576355 0.424164
vt 0.559681 0.424164
vt 0.488235 0.424164
vt 0.488235 0.554867
vt 0.437641 0.554867
vt 0.437641 0.424164
vt 0.437641 0.424164
vt 0.437641 0.554867
vt 0.592208 0.554867
vt 0.684417 0.554867
vt 0.684417 0.687383
vt 0.592208 0.687383
vt 0.576355 0.554867
vt 0.559681 0.554867
vt 0.437641 0.361424
vt 0.488235 0.361424
vt 0.488235 0.361424
vt 0.437641 0.361424
vt 0.349521 0.361424
vt 0.349521 0.424164
vt 0.559681 0.361424
vt 0.444320 0.361424
vt 0.388639 0.361424
vt 0.388639 0.424164
vt 0.444320 0.424164
vt 0.349521 0.361424
vt 0.349521 0.424164
vt 0.578885 0.554867
vt 0.657771 0.554867
vt 0.657771 0.424164
vt 0.578885 0.424164
vt 0.488235 0.592208
vt 0.488235 0.684417
vt 0.437641 0.657771
vt 0.437641 0.578885
vt 0.437641 0.687383
vt 0.488235 0.687383
vt 0.488235 0.687383
vt 0.437641 0.687383
vt 0.421115 0.554867
vt 0.342229 0.554867
vt 0.342229 0.687383
vt 0.421115 0.687383
vt 0.500000 0.554867
vt 0.500000 0.687383
vt 0.578885 0.687383
vt 0.488235 0.407792
vt 0.488235 0.500000
vt 0.437641 0.500000
vt 0.437641 0.421115
vt 0.500000 0.424164
vt 0.421115 0.424164
vt 0.640523 0.371775
vt 0.587655 0.287242
vt 0.459692 0.367272
vt 0.499517 0.425596
vt 0.555680 0.361424
vt 0.500000 0.361424
vt 0.500000 0.424164
vt 0.555680 0.424164
vt 0.407792 0.554867
vt 0.500000 0.554867
vt 0.500000 0.687383
vt 0.407792 0.687383
vt 0.611708 0.378590
vt 0.640523 0.371775
vt 0.662580 0.500000
vt 0.629592 0.500000
vt 0.587655 0.533555
vt 0.587655 0.424164
vt 0.459692 0.424164
vt 0.459692 0.533555
vt 0.437641 0.421115
vt 0.437641 0.500000
vt 0.349521 0.500000
vt 0.349521 0.444320
vt 0.437641 0.342229
vt 0.349521 0.388639
vt 0.587655 0.361424
vt 0.459692 0.361424
vt 0.559681 0.277955
vt 0.576355 0.269173
vt 0.315583 0.554867
vt 0.315583 0.687383
vt 0.342229 0.424164
vt 0.488235 0.315583
vt 0.437641 0.342229
vt 0.611361 0.361424
vt 0.611361 0.424164
vt 0.657771 0.687383
vt 0.587655 0.712758
vt 0.640523 0.628225
vt 0.499517 0.574404
vt 0.459692 0.632728
vt 0.662580 0.500000
vt 0.511652 0.500000
vt 0.488235 0.500000
vt 0.488235 0.592208
vt 0.488235 0.315583
vt 0.488235 0.407792
vt 0.576355 0.361424
vt 0.576355 0.424164
vt 0.488235 0.684417
vt 0.576355 0.554867
vt 0.628225 0.533555
vt 0.712758 0.533555
vt 0.730827 0.554867
vt 0.628225 0.554867
vt 0.287242 0.424164
vt 0.287242 0.533555
vt 0.269173 0.554867
vt 0.269173 0.424164
vt 0.712758 0.424164
vt 0.730827 0.424164
vt 0.287242 0.361424
vt 0.269173 0.361424
vt 0.712758 0.361424
vt 0.730827 0.361424
vt 0.371775 0.533555
vt 0.500000 0.533555
vt 0.500000 0.554867
vt 0.371775 0.554867
vt 0.574404 0.424164
vt 0.632728 0.424164
vt 0.632728 0.533555
vt 0.574404 0.533555
vt 0.574404 0.361424
vt 0.632728 0.361424
vt 0.425596 0.361424
vt 0.500000 0.361424
vt 0.500000 0.424164
vt 0.425596 0.424164
vt 0.500000 0.533555
vt 0.425596 0.533555
vt 0.367272 0.424164
vt 0.367272 0.533555
vt 0.367272 0.361424
vt 0.587655 0.361424
vt 0.459692 0.361424
vn 0.0000 1.0000 0.0000
vn -0.8478 0.0000 0.5302
vn 0.8848 0.0000 -0.4660
vn -0.8848 0.0000 -0.4660
vn 0.0000 0.0000 1.0000
vn 0.0000 0.0000 -1.0000
vn 0.0000 -1.0000 0.0000
vn 0.8478 0.0000 0.5302
vn 0.3566 0.0000 0.9342
vn 0.5302 0.0000 0.8478
vn -0.5302 0.0000 0.8478
vn -0.3566 0.0000 0.9342
vn 0.3713 0.0000 0.9285
vn 0.5639 0.0000 0.8258
vn -0.3713 0.0000 0.9285
vn -0.5639 0.0000 0.8258
usemtl Material.012
s 1
f 111/1/1 103/2/1 97/3/1 113/4/1
f 146/5/2 142/6/2 140/7/2 153/8/2
f 56/9/3 22/10/3 106/11/3 55/12/3
f 59/13/1 88/14/1 89/15/1 112/16/1
f 52/17/4 95/18/4 93/19/4 51/20/4
f 19/21/4 109/22/4 100/23/4 84/24/4
f 102/25/3 104/26/3 106/11/3 22/10/3
f 105/27/5 107/28/5 121/29/5 122/30/5
f 51/20/4 93/19/4 91/31/4 53/32/4
f 14/33/3 102/25/3 22/10/3 13/34/3
f 12/35/4 19/21/4 84/24/4 11/36/4
f 1/37/4 11/36/4 84/24/4 86/38/4
f 54/39/3 13/34/3 22/10/3 56/9/3
f 35/40/6 101/41/6 87/42/6 41/43/6
f 14/33/3 98/44/3 96/45/3 102/25/3
f 49/46/6 17/47/6 21/48/6 45/49/6
f 47/50/1 120/51/1 118/52/1 50/53/1
f 106/11/3 104/26/3 119/54/3 26/55/3
f 100/23/4 109/22/4 114/56/4 116/57/4
f 36/58/6 16/59/6 117/60/6 123/61/6
f 49/46/6 30/62/6 139/63/6 138/64/6
f 136/65/1 137/66/1 34/67/1 37/68/1
f 36/58/6 30/62/6 129/69/6 128/70/6
f 149/71/7 134/72/7 132/73/7 156/74/7
f 48/75/6 27/76/6 32/77/6 46/78/6
f 126/79/5 127/80/5 33/81/5 42/82/5
f 58/83/1 124/84/1 125/85/1 57/86/1
f 135/87/8 145/88/8 152/89/8 133/90/8
f 40/91/1 31/92/1 131/93/1 130/94/1
f 85/95/1 40/91/1 130/94/1 8/96/1
f 148/97/2 146/5/2 153/8/2 155/98/2
f 108/99/1 92/100/1 124/84/1 58/83/1
f 15/101/5 126/79/5 42/82/5 115/102/5
f 16/59/6 36/58/6 128/70/6 20/103/6
f 23/104/1 136/65/1 37/68/1 24/105/1
f 30/62/6 36/58/6 123/61/6 139/63/6
f 27/76/6 35/40/6 41/43/6 32/77/6
f 3/106/6 48/75/6 46/78/6 7/107/6
f 17/47/6 49/46/6 138/64/6 25/108/6
f 137/66/1 47/50/1 50/53/1 34/67/1
f 30/62/6 49/46/6 45/49/6 129/69/6
f 143/109/7 144/110/7 151/111/7 141/112/7
f 127/80/5 105/27/5 122/30/5 33/81/5
f 57/86/1 125/85/1 88/14/1 59/13/1
f 144/110/7 150/113/7 157/114/7 151/111/7
f 31/92/1 111/1/1 113/4/1 131/93/1
f 29/115/1 57/86/1 59/13/1 44/116/1
f 110/117/1 108/99/1 58/83/1 39/118/1
f 39/118/1 58/83/1 57/86/1 29/115/1
f 99/119/3 54/39/3 56/9/3 94/120/3
f 19/21/4 51/20/4 53/32/4 109/22/4
f 12/35/4 52/17/4 51/20/4 19/21/4
f 44/116/1 59/13/1 112/16/1 18/121/1
f 94/120/3 56/9/3 55/12/3 90/122/3
f 43/123/9 6/124/10 62/125/10 61/126/9
f 9/127/11 5/128/11 63/129/11 64/130/11
f 6/124/10 10/131/10 65/132/10 62/125/10
f 2/133/11 9/127/11 64/130/11 66/134/11
f 10/131/10 4/135/10 60/136/10 65/132/10
f 38/137/12 28/138/5 68/139/5 67/140/12
f 5/128/11 38/137/12 67/140/12 63/129/11
f 28/138/5 43/123/9 61/126/9 68/139/5
f 71/141/13 77/142/14 81/143/14 79/144/13
f 78/145/13 80/146/14 77/142/14 71/141/13
f 76/147/15 73/148/5 72/149/5 69/150/15
f 69/150/15 72/149/5 74/151/5 75/152/15
f 70/153/16 69/150/15 75/152/15 82/154/16
f 83/155/16 76/147/15 69/150/15 70/153/16
f 73/148/5 78/145/13 71/141/13 72/149/5
f 72/149/5 71/141/13 79/144/13 74/151/5
f 150/113/7 149/71/7 156/74/7 157/114/7
f 145/88/8 147/156/8 154/157/8 152/89/8
