# Blender v2.82 (sub 0) OBJ File: 'Mediatheque - Copie.blend'
# www.blender.org
mtllib Desk.mtl
o Plane.135_Plane.062
v 1.330941 0.902047 0.757587
v 1.330941 0.902047 -0.741299
v -1.325984 0.902047 0.757587
v -1.325984 0.902047 -0.741300
v -1.325984 1.000000 0.757587
v 1.330941 1.000000 0.757587
v 1.330941 1.000000 -0.741299
v -1.325984 1.000000 -0.741300
v 1.115134 0.000000 -0.611557
v 1.119556 0.000000 -0.589326
v 1.132149 0.000000 -0.570479
v 1.150996 0.000000 -0.557886
v 1.173228 0.000000 -0.553463
v 1.195460 0.000000 -0.557886
v 1.214306 0.000000 -0.570479
v 1.226900 0.000000 -0.589326
v 1.231322 0.000000 -0.611557
v 1.226900 0.000000 -0.633789
v 1.214306 0.000000 -0.652636
v 1.195460 0.000000 -0.665229
v 1.173228 0.000000 -0.669651
v 1.150996 0.000000 -0.665229
v 1.132149 0.000000 -0.652636
v 1.119556 0.000000 -0.633789
v 1.115134 0.902047 -0.611557
v 1.119556 0.902047 -0.589326
v 1.132149 0.902047 -0.570479
v 1.150996 0.902047 -0.557886
v 1.173228 0.902047 -0.553463
v 1.195460 0.902047 -0.557886
v 1.214306 0.902047 -0.570479
v 1.226900 0.902047 -0.589326
v 1.231322 0.902047 -0.611557
v 1.226900 0.902047 -0.633789
v 1.214306 0.902047 -0.652636
v 1.195460 0.902047 -0.665229
v 1.173228 0.902047 -0.669651
v 1.150996 0.902047 -0.665229
v 1.132149 0.902047 -0.652636
v 1.119556 0.902047 -0.633789
v 1.115134 0.000000 0.611558
v 1.119556 0.000000 0.589326
v 1.132149 0.000000 0.570479
v 1.150996 0.000000 0.557886
v 1.173228 0.000000 0.553464
v 1.195460 0.000000 0.557886
v 1.214306 0.000000 0.570479
v 1.226900 0.000000 0.589326
v 1.231322 0.000000 0.611558
v 1.226900 0.000000 0.633789
v 1.214306 0.000000 0.652636
v 1.195460 0.000000 0.665229
v 1.173228 0.000000 0.669652
v 1.150996 0.000000 0.665229
v 1.132149 0.000000 0.652636
v 1.119556 0.000000 0.633789
v 1.115134 0.902047 0.611558
v 1.119556 0.902047 0.589326
v 1.132149 0.902047 0.570479
v 1.150996 0.902047 0.557886
v 1.173228 0.902047 0.553464
v 1.195460 0.902047 0.557886
v 1.214306 0.902047 0.570479
v 1.226900 0.902047 0.589326
v 1.231322 0.902047 0.611558
v 1.226900 0.902047 0.633789
v 1.214306 0.902047 0.652636
v 1.195460 0.902047 0.665229
v 1.173228 0.902047 0.669652
v 1.150996 0.902047 0.665229
v 1.132149 0.902047 0.652636
v 1.119556 0.902047 0.633789
v -1.115134 0.000000 -0.611558
v -1.119556 0.000000 -0.589326
v -1.132149 0.000000 -0.570479
v -1.150996 0.000000 -0.557886
v -1.173228 0.000000 -0.553464
v -1.195460 0.000000 -0.557886
v -1.214306 0.000000 -0.570479
v -1.226900 0.000000 -0.589326
v -1.231322 0.000000 -0.611558
v -1.226900 0.000000 -0.633789
v -1.214306 0.000000 -0.652636
v -1.195460 0.000000 -0.665229
v -1.173228 0.000000 -0.669652
v -1.150996 0.000000 -0.665229
v -1.132149 0.000000 -0.652636
v -1.119556 0.000000 -0.633789
v -1.115134 0.902047 -0.611558
v -1.119556 0.902047 -0.589326
v -1.132149 0.902047 -0.570479
v -1.150996 0.902047 -0.557886
v -1.173228 0.902047 -0.553464
v -1.195460 0.902047 -0.557886
v -1.214306 0.902047 -0.570479
v -1.226900 0.902047 -0.589326
v -1.231322 0.902047 -0.611558
v -1.226900 0.902047 -0.633789
v -1.214306 0.902047 -0.652636
v -1.195460 0.902047 -0.665229
v -1.173228 0.902047 -0.669652
v -1.150996 0.902047 -0.665229
v -1.132149 0.902047 -0.652636
v -1.119556 0.902047 -0.633789
v -1.115134 0.000000 0.611557
v -1.119556 0.000000 0.589326
v -1.132149 0.000000 0.570479
v -1.150996 0.000000 0.557886
v -1.173228 0.000000 0.553463
v -1.195460 0.000000 0.557886
v -1.214306 0.000000 0.570479
v -1.226900 0.000000 0.589326
v -1.231322 0.000000 0.611557
v -1.226900 0.000000 0.633789
v -1.214306 0.000000 0.652636
v -1.195460 0.000000 0.665229
v -1.173228 0.000000 0.669651
v -1.150996 0.000000 0.665229
v -1.132149 0.000000 0.652636
v -1.119556 0.000000 0.633789
v -1.115134 0.902047 0.611557
v -1.119556 0.902047 0.589326
v -1.132149 0.902047 0.570479
v -1.150996 0.902047 0.557886
v -1.173228 0.902047 0.553463
v -1.195460 0.902047 0.557886
v -1.214306 0.902047 0.570479
v -1.226900 0.902047 0.589326
v -1.231322 0.902047 0.611557
v -1.226900 0.902047 0.633789
v -1.214306 0.902047 0.652636
v -1.195460 0.902047 0.665229
v -1.173228 0.902047 0.669651
v -1.150996 0.902047 0.665229
v -1.132149 0.902047 0.652636
v -1.119556 0.902047 0.633789
v -1.325984 0.902047 0.757587
v -1.325984 0.902047 0.757587
v 1.330941 0.902047 0.757587
v 1.330941 0.902047 0.757587
v 1.330941 0.902047 -0.741299
v 1.330941 0.902047 -0.741299
v -1.325984 0.902047 -0.741300
v -1.325984 0.902047 -0.741300
v -1.325984 1.000000 0.757587
v -1.325984 1.000000 0.757587
v 1.330941 1.000000 0.757587
v 1.330941 1.000000 0.757587
v 1.330941 1.000000 -0.741299
v 1.330941 1.000000 -0.741299
v -1.325984 1.000000 -0.741300
v -1.325984 1.000000 -0.741300
vt 0.000000 0.000000
vt 0.000000 1.000000
vt 1.000000 1.000000
vt 1.000000 0.000000
vt 0.000000 0.000000
vt 1.000000 0.000000
vt 1.000000 1.000000
vt 0.000000 1.000000
vt 1.000000 0.000000
vt 1.000000 1.000000
vt 1.000000 1.000000
vt 1.000000 0.000000
vt 0.000000 1.000000
vt 0.000000 0.000000
vt 0.000000 0.000000
vt 0.000000 1.000000
vt 1.000000 1.000000
vt 0.000000 1.000000
vt 0.000000 1.000000
vt 1.000000 1.000000
vt 0.000000 0.000000
vt 1.000000 0.000000
vt 1.000000 0.000000
vt 0.000000 0.000000
vt 0.000000 0.000000
vt 0.000000 0.000000
vt 0.000000 0.000000
vt 0.000000 0.000000
vt 0.000000 0.000000
vt 0.000000 0.000000
vt 0.000000 0.000000
vt 0.000000 0.000000
vt 0.000000 0.000000
vt 0.000000 0.000000
vt 0.000000 0.000000
vt 0.000000 0.000000
vt 0.000000 0.000000
vt 0.000000 0.000000
vt 0.000000 0.000000
vt 0.000000 0.000000
vt 0.000000 0.000000
vt 0.000000 0.000000
vt 0.000000 0.000000
vt 0.000000 0.000000
vt 0.000000 0.000000
vt 0.000000 0.000000
vt 0.000000 0.000000
vt 0.000000 0.000000
vt 0.000000 0.000000
vt 0.000000 0.000000
vt 0.000000 0.000000
vt 0.000000 0.000000
vt 0.000000 0.000000
vt 0.000000 0.000000
vt 0.000000 0.000000
vt 0.000000 0.000000
vt 0.000000 0.000000
vt 0.000000 0.000000
vt 0.000000 0.000000
vt 0.000000 0.000000
vt 0.000000 0.000000
vt 0.000000 0.000000
vt 0.000000 0.000000
vt 0.000000 0.000000
vt 0.000000 0.000000
vt 0.000000 0.000000
vt 0.000000 0.000000
vt 0.000000 0.000000
vt 0.000000 0.000000
vt 0.000000 0.000000
vt 0.000000 0.000000
vt 0.000000 0.000000
vt 0.000000 0.000000
vt 0.000000 0.000000
vt 0.000000 0.000000
vt 0.000000 0.000000
vt 0.000000 0.000000
vt 0.000000 0.000000
vt 0.000000 0.000000
vt 0.000000 0.000000
vt 0.000000 0.000000
vt 0.000000 0.000000
vt 0.000000 0.000000
vt 0.000000 0.000000
vt 0.000000 0.000000
vt 0.000000 0.000000
vt 0.000000 0.000000
vt 0.000000 0.000000
vt 0.000000 0.000000
vt 0.000000 0.000000
vt 0.000000 0.000000
vt 0.000000 0.000000
vt 0.000000 0.000000
vt 0.000000 0.000000
vt 0.000000 0.000000
vt 0.000000 0.000000
vt 0.000000 0.000000
vt 0.000000 0.000000
vt 0.000000 0.000000
vt 0.000000 0.000000
vt 0.000000 0.000000
vt 0.000000 0.000000
vt 0.000000 0.000000
vt 0.000000 0.000000
vt 0.000000 0.000000
vt 0.000000 0.000000
vt 0.000000 0.000000
vt 0.000000 0.000000
vt 0.000000 0.000000
vt 0.000000 0.000000
vt 0.000000 0.000000
vt 0.000000 0.000000
vt 0.000000 0.000000
vt 0.000000 0.000000
vt 0.000000 0.000000
vt 0.000000 0.000000
vt 0.000000 0.000000
vt 0.000000 0.000000
vt 0.000000 0.000000
vt 0.000000 0.000000
vt 0.000000 0.000000
vt 0.000000 0.000000
vt 0.000000 0.000000
vt 0.000000 0.000000
vt 0.000000 0.000000
vt 0.000000 0.000000
vt 0.000000 0.000000
vt 0.000000 0.000000
vt 0.000000 0.000000
vt 0.000000 0.000000
vt 0.000000 0.000000
vt 0.000000 0.000000
vt 0.000000 0.000000
vt 0.000000 0.000000
vt 0.000000 0.000000
vt 0.000000 0.000000
vt 0.000000 0.000000
vt 0.000000 0.000000
vt 0.000000 0.000000
vt 0.000000 0.000000
vt 0.000000 0.000000
vt 0.000000 0.000000
vt 0.000000 0.000000
vt 0.000000 0.000000
vt 0.000000 0.000000
vt 0.000000 0.000000
vt 0.000000 0.000000
vt 0.000000 0.000000
vt 0.000000 0.000000
vt 0.000000 0.000000
vt 0.000000 0.000000
vt 0.000000 0.000000
vn 0.0000 -1.0000 0.0000
vn 0.0000 1.0000 0.0000
vn 0.0000 0.0000 -1.0000
vn 0.0000 0.0000 1.0000
vn -1.0000 0.0000 0.0000
vn 1.0000 0.0000 0.0000
vn 0.3827 0.0000 -0.9239
vn 0.7071 0.0000 -0.7071
vn -0.3827 0.0000 0.9239
vn 0.3827 0.0000 0.9239
vn -0.3827 0.0000 -0.9239
vn 0.7071 0.0000 0.7071
vn -0.7071 0.0000 -0.7071
vn 0.9239 0.0000 0.3827
vn -0.9239 0.0000 -0.3827
vn -0.9239 0.0000 0.3827
vn 0.9239 0.0000 -0.3827
vn -0.7071 0.0000 0.7071
usemtl None
s 1
f 139/1/1 137/2/1 143/3/1 141/4/1
f 147/5/2 149/6/2 151/7/2 145/8/2
f 142/9/3 144/10/3 152/11/3 150/12/3
f 138/13/4 140/14/4 148/15/4 146/16/4
f 4/17/5 3/18/5 5/19/5 8/20/5
f 1/21/6 2/22/6 7/23/6 6/24/6
f 20/25/7 36/26/7 35/27/8 19/28/8
f 13/29/4 29/30/4 28/31/9 12/32/9
f 21/33/3 37/34/3 36/26/7 20/25/7
f 14/35/10 30/36/10 29/30/4 13/29/4
f 22/37/11 38/38/11 37/34/3 21/33/3
f 15/39/12 31/40/12 30/36/10 14/35/10
f 23/41/13 39/42/13 38/38/11 22/37/11
f 16/43/14 32/44/14 31/40/12 15/39/12
f 24/45/15 40/46/15 39/42/13 23/41/13
f 17/47/6 33/48/6 32/44/14 16/43/14
f 10/49/16 26/50/16 25/51/5 9/52/5
f 9/52/5 25/51/5 40/46/15 24/45/15
f 18/53/17 34/54/17 33/48/6 17/47/6
f 11/55/18 27/56/18 26/50/16 10/49/16
f 19/28/8 35/27/8 34/54/17 18/53/17
f 12/32/9 28/31/9 27/56/18 11/55/18
f 52/57/10 51/58/12 67/59/12 68/60/10
f 45/61/3 44/62/11 60/63/11 61/64/3
f 53/65/4 52/57/10 68/60/10 69/66/4
f 46/67/7 45/61/3 61/64/3 62/68/7
f 54/69/9 53/65/4 69/66/4 70/70/9
f 47/71/8 46/67/7 62/68/7 63/72/8
f 55/73/18 54/69/9 70/70/9 71/74/18
f 48/75/17 47/71/8 63/72/8 64/76/17
f 56/77/16 55/73/18 71/74/18 72/78/16
f 49/79/6 48/75/17 64/76/17 65/80/6
f 42/81/15 41/82/5 57/83/5 58/84/15
f 41/82/5 56/77/16 72/78/16 57/83/5
f 50/85/14 49/79/6 65/80/6 66/86/14
f 43/87/13 42/81/15 58/84/15 59/88/13
f 51/58/12 50/85/14 66/86/14 67/59/12
f 44/62/11 43/87/13 59/88/13 60/63/11
f 84/89/11 83/90/13 99/91/13 100/92/11
f 77/93/4 76/94/10 92/95/10 93/96/4
f 85/97/3 84/89/11 100/92/11 101/98/3
f 78/99/9 77/93/4 93/96/4 94/100/9
f 86/101/7 85/97/3 101/98/3 102/102/7
f 79/103/18 78/99/9 94/100/9 95/104/18
f 87/105/8 86/101/7 102/102/7 103/106/8
f 80/107/16 79/103/18 95/104/18 96/108/16
f 88/109/17 87/105/8 103/106/8 104/110/17
f 81/111/5 80/107/16 96/108/16 97/112/5
f 74/113/14 73/114/6 89/115/6 90/116/14
f 73/114/6 88/109/17 104/110/17 89/115/6
f 82/117/15 81/111/5 97/112/5 98/118/15
f 75/119/12 74/113/14 90/116/14 91/120/12
f 83/90/13 82/117/15 98/118/15 99/91/13
f 76/94/10 75/119/12 91/120/12 92/95/10
f 116/121/9 132/122/9 131/123/18 115/124/18
f 109/125/3 125/126/3 124/127/7 108/128/7
f 117/129/4 133/130/4 132/122/9 116/121/9
f 110/131/11 126/132/11 125/126/3 109/125/3
f 118/133/10 134/134/10 133/130/4 117/129/4
f 111/135/13 127/136/13 126/132/11 110/131/11
f 119/137/12 135/138/12 134/134/10 118/133/10
f 112/139/15 128/140/15 127/136/13 111/135/13
f 120/141/14 136/142/14 135/138/12 119/137/12
f 113/143/5 129/144/5 128/140/15 112/139/15
f 106/145/17 122/146/17 121/147/6 105/148/6
f 105/148/6 121/147/6 136/142/14 120/141/14
f 114/149/16 130/150/16 129/144/5 113/143/5
f 107/151/8 123/152/8 122/146/17 106/145/17
f 115/124/18 131/123/18 130/150/16 114/149/16
f 108/128/7 124/127/7 123/152/8 107/151/8
