# Blender v2.82 (sub 1) OBJ File: 'Mediatheque - Copie.blend'
# www.blender.org
mtllib GroundEPM.mtl
o Circle.020_Circle.013
v -0.000005 -0.000000 -9.839140
v -0.787741 -0.000000 -9.791761
v -1.567890 -0.000000 -9.650083
v -2.332940 -0.000000 -9.415470
v -3.075523 -0.000000 -9.090179
v -3.788486 -0.000000 -8.677347
v -4.464965 -0.000000 -8.180945
v -5.098443 -0.000000 -7.605759
v -5.682821 -0.000000 -6.957324
v -6.212470 -0.000000 -6.241885
v -7.087754 -0.000000 -4.638139
v -7.424961 -0.000000 -3.765277
v -7.690662 -0.000000 -2.856152
v -7.882297 -0.000000 -1.919522
v -7.998021 -0.000000 -0.964405
v -8.036719 -0.000000 -0.000001
v -7.998021 -0.000000 0.964404
v -7.882296 -0.000000 1.919520
v -7.690661 -0.000000 2.856151
v -7.424961 -0.000000 3.765276
v -7.087753 -0.000000 4.638138
v -6.212467 -0.000000 6.241883
v -5.682818 -0.000000 6.957322
v -5.098439 -0.000000 7.605756
v -4.464961 -0.000000 8.180943
v -3.788482 -0.000000 8.677344
v -3.075518 -0.000000 9.090178
v -2.332935 -0.000000 9.415465
v -1.567884 -0.000000 9.650080
v -0.787735 -0.000000 9.791757
v 0.000001 -0.000000 9.839134
v 0.787737 -0.000000 9.791756
v 1.567887 -0.000000 9.650076
v 2.332937 -0.000000 9.415462
v 2.332953 -0.000000 -9.415462
v 1.567906 -0.000000 -9.650078
v 0.787758 -0.000000 -9.791758
v -0.000005 0.022742 -9.839140
v -0.787741 0.022742 -9.791761
v -1.567890 0.022742 -9.650083
v -2.332940 0.022742 -9.415470
v -3.075523 0.022742 -9.090179
v -3.788486 0.022742 -8.677347
v -4.464965 0.022742 -8.180945
v -5.098443 0.022742 -7.605759
v -5.682821 0.022742 -6.957324
v -6.212470 0.022742 -6.241885
v -7.087754 0.022742 -4.638139
v -7.424961 0.022742 -3.765277
v -7.690662 0.022742 -2.856152
v -7.882297 0.022742 -1.919522
v -7.998021 0.022742 -0.964405
v -8.036719 0.022742 -0.000001
v -7.998021 0.022742 0.964404
v -7.882296 0.022742 1.919520
v -7.690661 0.022742 2.856151
v -7.424961 0.022742 3.765276
v -7.087753 0.022742 4.638138
v -6.212467 0.022742 6.241883
v -5.682818 0.022742 6.957322
v -5.098439 0.022742 7.605756
v -4.464961 0.022742 8.180943
v -3.788482 0.022742 8.677344
v -3.075518 0.022742 9.090178
v -2.332935 0.022742 9.415465
v -1.567884 0.022742 9.650080
v -0.787735 0.022742 9.791757
v 0.000001 0.022742 9.839134
v 0.787737 0.022742 9.791756
v 1.567887 0.022742 9.650076
v 2.332937 0.022742 9.415462
v 2.332953 0.022742 -9.415462
v 1.567906 0.022742 -9.650078
v 0.787758 0.022742 -9.791758
v -0.787741 -0.000000 -9.791761
v -0.000005 -0.000000 -9.839140
v -1.567890 -0.000000 -9.650083
v -2.332940 -0.000000 -9.415470
v -3.075523 -0.000000 -9.090179
v -3.788486 -0.000000 -8.677347
v -4.464965 -0.000000 -8.180945
v -5.098443 -0.000000 -7.605759
v -5.682821 -0.000000 -6.957324
v -6.212470 -0.000000 -6.241885
v -7.424961 -0.000000 -3.765277
v -7.087754 -0.000000 -4.638139
v -7.690662 -0.000000 -2.856152
v -7.882297 -0.000000 -1.919522
v -7.998021 -0.000000 -0.964405
v -8.036719 -0.000000 -0.000001
v -7.998021 -0.000000 0.964404
v -7.882296 -0.000000 1.919520
v -7.690661 -0.000000 2.856151
v -7.424961 -0.000000 3.765276
v -7.087753 -0.000000 4.638138
v -5.682818 -0.000000 6.957322
v -6.212467 -0.000000 6.241883
v -5.098439 -0.000000 7.605756
v -4.464961 -0.000000 8.180943
v -3.788482 -0.000000 8.677344
v -3.075518 -0.000000 9.090178
v -2.332935 -0.000000 9.415465
v -1.567884 -0.000000 9.650080
v -0.787735 -0.000000 9.791757
v 0.000001 -0.000000 9.839134
v 0.787737 -0.000000 9.791756
v 1.567887 -0.000000 9.650076
v 2.332937 -0.000000 9.415462
v 2.332937 -0.000000 9.415462
v 1.567906 -0.000000 -9.650078
v 2.332953 -0.000000 -9.415462
v 2.332953 -0.000000 -9.415462
v 0.787758 -0.000000 -9.791758
v -0.787741 0.022742 -9.791761
v -0.000005 0.022742 -9.839140
v -1.567890 0.022742 -9.650083
v -2.332940 0.022742 -9.415470
v -3.075523 0.022742 -9.090179
v -3.788486 0.022742 -8.677347
v -4.464965 0.022742 -8.180945
v -5.098443 0.022742 -7.605759
v -5.682821 0.022742 -6.957324
v -6.212470 0.022742 -6.241885
v -7.424961 0.022742 -3.765277
v -7.087754 0.022742 -4.638139
v -7.690662 0.022742 -2.856152
v -7.882297 0.022742 -1.919522
v -7.998021 0.022742 -0.964405
v -8.036719 0.022742 -0.000001
v -7.998021 0.022742 0.964404
v -7.882296 0.022742 1.919520
v -7.690661 0.022742 2.856151
v -7.424961 0.022742 3.765276
v -7.087753 0.022742 4.638138
v -5.682818 0.022742 6.957322
v -6.212467 0.022742 6.241883
v -5.098439 0.022742 7.605756
v -4.464961 0.022742 8.180943
v -3.788482 0.022742 8.677344
v -3.075518 0.022742 9.090178
v -2.332935 0.022742 9.415465
v -1.567884 0.022742 9.650080
v -0.787735 0.022742 9.791757
v 0.000001 0.022742 9.839134
v 0.787737 0.022742 9.791756
v 1.567887 0.022742 9.650076
v 2.332937 0.022742 9.415462
v 2.332937 0.022742 9.415462
v 1.567906 0.022742 -9.650078
v 2.332953 0.022742 -9.415462
v 2.332953 0.022742 -9.415462
v 0.787758 0.022742 -9.791758
vt 0.828407 1.565147
vt 0.914097 1.570301
vt 0.999790 1.565147
vt 1.084654 1.549735
vt 1.167876 1.524213
vt 1.167874 -0.524214
vt 1.084652 -0.549735
vt 0.999787 -0.565147
vt 0.914097 -0.570301
vt 0.828408 -0.565147
vt 0.743543 -0.549735
vt 0.660321 -0.524214
vt 0.579543 -0.488829
vt 0.501986 -0.443921
vt 0.428399 -0.389923
vt 0.359489 -0.327354
vt 0.295921 -0.256817
vt 0.238305 -0.178992
vt 0.143092 -0.004537
vt 0.106410 0.090413
vt 0.077508 0.189308
vt 0.056662 0.291194
vt 0.044073 0.395092
vt 0.039863 0.500000
vt 0.044073 0.604908
vt 0.056661 0.708805
vt 0.077507 0.810692
vt 0.106410 0.909586
vt 0.143092 1.004536
vt 0.238305 1.178992
vt 0.295920 1.256817
vt 0.359489 1.327354
vt 0.428399 1.389923
vt 0.501986 1.443921
vt 0.579542 1.488829
vt 0.660320 1.524214
vt 0.743542 1.549735
vt 0.828407 1.565147
vt 0.743542 1.549735
vt 0.660320 1.524214
vt 0.579542 1.488829
vt 0.501986 1.443921
vt 0.428399 1.389923
vt 0.359489 1.327354
vt 0.295920 1.256817
vt 0.238305 1.178992
vt 0.143092 1.004536
vt 0.106410 0.909586
vt 0.077507 0.810692
vt 0.056661 0.708805
vt 0.044073 0.604908
vt 0.039863 0.500000
vt 0.044073 0.395092
vt 0.056662 0.291194
vt 0.077508 0.189308
vt 0.106410 0.090413
vt 0.143092 -0.004537
vt 0.238305 -0.178992
vt 0.295921 -0.256817
vt 0.359489 -0.327354
vt 0.428399 -0.389923
vt 0.501986 -0.443921
vt 0.579543 -0.488829
vt 0.660321 -0.524214
vt 0.743543 -0.549735
vt 0.828408 -0.565147
vt 0.914097 -0.570301
vt 0.999787 -0.565147
vt 1.084652 -0.549735
vt 1.167874 -0.524214
vt 1.167876 1.524213
vt 1.084654 1.549735
vt 0.999790 1.565147
vt 0.914097 1.570301
vt 1.004537 0.498763
vt 0.909587 0.498763
vt 0.909587 0.501237
vt 1.004537 0.501237
vt -0.524214 0.498763
vt 1.524213 0.498763
vt 1.524213 0.501237
vt -0.524214 0.501237
vt 0.501986 0.498763
vt 0.579543 0.498763
vt 0.579543 0.501237
vt 0.501986 0.501237
vt 0.810692 0.498763
vt 0.810692 0.501237
vt 0.660321 0.498763
vt 0.660321 0.501237
vt 0.708806 0.498763
vt 0.708806 0.501237
vt 0.743543 0.498763
vt 0.743543 0.501237
vt 0.604908 0.498763
vt 0.604908 0.501237
vt 0.828408 0.498763
vt 0.828408 0.501237
vt 0.500000 0.498763
vt 0.500000 0.501237
vt 0.914097 0.498763
vt 0.828407 0.498763
vt 0.828407 0.501237
vt 0.914097 0.501237
vt 0.914097 0.498763
vt 0.914097 0.501237
vt 0.395092 0.498763
vt 0.395092 0.501237
vt 0.743542 0.498763
vt 0.743542 0.501237
vt 0.999787 0.498763
vt 0.999787 0.501237
vt 0.291195 0.498763
vt 0.291195 0.501237
vt 0.660320 0.498763
vt 0.660320 0.501237
vt 1.084652 0.498763
vt 1.084652 0.501237
vt 0.189308 0.498763
vt 0.189308 0.501237
vt 0.579542 0.498763
vt 0.579542 0.501237
vt 1.167874 0.498763
vt 1.167874 0.501237
vt 0.090413 0.498763
vt 0.090413 0.501237
vt 0.501986 0.498763
vt 0.501986 0.501237
vt 1.167876 0.498763
vt 1.084654 0.498763
vt 1.084654 0.501237
vt 1.167876 0.501237
vt -0.004536 0.498763
vt -0.004536 0.501237
vt 0.428399 0.498763
vt 0.428399 0.501237
vt 0.999790 0.498763
vt 0.999790 0.501237
vt -0.178992 0.498763
vt -0.256817 0.498763
vt -0.256817 0.501237
vt -0.178992 0.501237
vt 0.359489 0.498763
vt 0.359489 0.501237
vt -0.327354 0.498763
vt -0.327354 0.501237
vt 1.327354 0.498763
vt 1.256817 0.498763
vt 1.256817 0.501237
vt 1.327354 0.501237
vt 0.359489 0.498763
vt 0.428399 0.498763
vt 0.428399 0.501237
vt 0.359489 0.501237
vt 1.178992 0.498763
vt 1.178992 0.501237
vn 0.0000 -1.0000 0.0000
vn 0.0000 1.0000 -0.0000
vn -0.9328 0.0000 -0.3604
vn 1.0000 0.0000 0.0000
vn -0.5011 0.0000 0.8654
vn -0.9598 0.0000 -0.2805
vn -0.4012 0.0000 0.9160
vn -0.9797 0.0000 -0.2004
vn -0.2932 0.0000 0.9561
vn -0.9927 0.0000 -0.1203
vn -0.1787 0.0000 0.9839
vn -0.9992 0.0000 -0.0401
vn -0.0600 0.0000 -0.9982
vn -0.0600 0.0000 0.9982
vn -0.9992 0.0000 0.0401
vn -0.1787 0.0000 -0.9839
vn 0.0600 0.0000 0.9982
vn -0.9927 0.0000 0.1203
vn -0.2932 0.0000 -0.9561
vn 0.1787 0.0000 0.9839
vn -0.9797 0.0000 0.2004
vn -0.4012 0.0000 -0.9160
vn 0.2932 0.0000 0.9561
vn -0.9598 0.0000 0.2805
vn -0.5011 0.0000 -0.8654
vn 0.2932 0.0000 -0.9561
vn -0.9328 0.0000 0.3604
vn -0.5916 0.0000 -0.8062
vn 0.1787 0.0000 -0.9839
vn -0.8037 0.0000 0.5950
vn -0.6722 0.0000 -0.7403
vn 0.0600 0.0000 -0.9982
vn -0.7428 0.0000 0.6695
vn -0.7428 0.0000 -0.6695
vn -0.8778 0.0000 0.4791
vn -0.6722 0.0000 0.7403
vn -0.8037 0.0000 -0.5950
vn -0.8778 0.0000 -0.4791
vn -0.5916 0.0000 0.8062
usemtl Green
s off
f 75/1/1 76/2/1 113/3/1 110/4/1 111/5/1 108/6/1 107/7/1 106/8/1 105/9/1 104/10/1 103/11/1 102/12/1 101/13/1 100/14/1 99/15/1 98/16/1 96/17/1 97/18/1 95/19/1 94/20/1 93/21/1 92/22/1 91/23/1 90/24/1 89/25/1 88/26/1 87/27/1 85/28/1 86/29/1 84/30/1 83/31/1 82/32/1 81/33/1 80/34/1 79/35/1 78/36/1 77/37/1
f 114/38/2 116/39/2 117/40/2 118/41/2 119/42/2 120/43/2 121/44/2 122/45/2 123/46/2 125/47/2 124/48/2 126/49/2 127/50/2 128/51/2 129/52/2 130/53/2 131/54/2 132/55/2 133/56/2 134/57/2 136/58/2 135/59/2 137/60/2 138/61/2 139/62/2 140/63/2 141/64/2 142/65/2 143/66/2 144/67/2 145/68/2 146/69/2 147/70/2 150/71/2 149/72/2 152/73/2 115/74/2
f 11/75/3 12/76/3 49/77/3 48/78/3
f 109/79/4 112/80/4 151/81/4 148/82/4
f 26/83/5 27/84/5 64/85/5 63/86/5
f 12/76/6 13/87/6 50/88/6 49/77/6
f 27/84/7 28/89/7 65/90/7 64/85/7
f 13/87/8 14/91/8 51/92/8 50/88/8
f 28/89/9 29/93/9 66/94/9 65/90/9
f 14/91/10 15/95/10 52/96/10 51/92/10
f 29/93/11 30/97/11 67/98/11 66/94/11
f 15/95/12 16/99/12 53/100/12 52/96/12
f 1/101/13 2/102/13 39/103/13 38/104/13
f 30/97/14 31/105/14 68/106/14 67/98/14
f 16/99/15 17/107/15 54/108/15 53/100/15
f 2/102/16 3/109/16 40/110/16 39/103/16
f 31/105/17 32/111/17 69/112/17 68/106/17
f 17/107/18 18/113/18 55/114/18 54/108/18
f 3/109/19 4/115/19 41/116/19 40/110/19
f 32/111/20 33/117/20 70/118/20 69/112/20
f 18/113/21 19/119/21 56/120/21 55/114/21
f 4/115/22 5/121/22 42/122/22 41/116/22
f 33/117/23 34/123/23 71/124/23 70/118/23
f 19/119/24 20/125/24 57/126/24 56/120/24
f 5/121/25 6/127/25 43/128/25 42/122/25
f 35/129/26 36/130/26 73/131/26 72/132/26
f 20/125/27 21/133/27 58/134/27 57/126/27
f 6/127/28 7/135/28 44/136/28 43/128/28
f 36/130/29 37/137/29 74/138/29 73/131/29
f 22/139/30 23/140/30 60/141/30 59/142/30
f 7/135/31 8/143/31 45/144/31 44/136/31
f 37/137/32 1/101/32 38/104/32 74/138/32
f 23/140/33 24/145/33 61/146/33 60/141/33
f 8/147/34 9/148/34 46/149/34 45/150/34
f 21/133/35 22/139/35 59/142/35 58/134/35
f 24/151/36 25/152/36 62/153/36 61/154/36
f 9/148/37 10/155/37 47/156/37 46/149/37
f 10/155/38 11/75/38 48/78/38 47/156/38
f 25/152/39 26/83/39 63/86/39 62/153/39
