# Blender v2.82 (sub 1) OBJ File: 'Mediatheque - Copie.blend'
# www.blender.org
mtllib GroundComics.mtl
o Circle.014_Circle.006
v -10.180933 0.000000 -54.247093
v -11.135565 0.000000 -54.219208
v -12.080997 0.000000 -54.135818
v -13.008133 0.000000 -53.997734
v -13.908044 0.000000 -53.806282
v -14.772056 0.000000 -53.563301
v -15.591859 0.000000 -53.271137
v -16.359550 0.000000 -52.932598
v -17.067738 0.000000 -52.550957
v -17.709599 0.000000 -52.129875
v -18.278957 0.000000 -51.673405
v -18.770332 0.000000 -51.185963
v -19.178974 0.000000 -50.672226
v -19.500969 0.000000 -50.137142
v -19.733204 0.000000 -49.585876
v -19.873451 0.000000 -49.023727
v -19.920341 0.000000 -48.456108
v -19.873451 0.000000 -47.888496
v -19.733204 0.000000 -47.326347
v -19.500965 0.000000 -46.775074
v -19.178974 0.000000 -46.240002
v -18.770325 0.000000 -45.726261
v -18.278957 0.000000 -45.238815
v -17.709599 0.000000 -44.782349
v -17.067732 0.000000 -44.361271
v -16.359547 0.000000 -43.979622
v -15.591859 0.000000 -43.641087
v -14.772056 0.000000 -43.348923
v -13.908040 0.000000 -43.105942
v -13.008128 0.000000 -42.914486
v -12.080992 0.000000 -42.776402
v -11.135555 0.000000 -42.693012
v -10.180923 0.000000 -42.665131
v -9.226292 0.000000 -42.693012
v -8.280859 0.000000 -42.776405
v -7.353724 0.000000 -42.914490
v -6.453811 0.000000 -43.105949
v -5.589794 0.000000 -43.348923
v -4.769997 0.000000 -43.641094
v -4.002305 0.000000 -43.979626
v -3.294119 0.000000 -44.361275
v -2.652256 0.000000 -44.782360
v -2.082903 0.000000 -45.238819
v -1.591533 0.000000 -45.726269
v -1.182885 0.000000 -46.240002
v -0.860893 0.000000 -46.775078
v -0.628659 0.000000 -47.326347
v -0.488417 0.000000 -47.888496
v -0.441518 0.000000 -48.456108
v -0.488417 0.000000 -49.023724
v -0.628656 0.000000 -49.585873
v -0.860891 0.000000 -50.137138
v -1.182882 0.000000 -50.672218
v -1.591532 0.000000 -51.185955
v -2.082896 0.000000 -51.673401
v -2.652250 0.000000 -52.129868
v -3.294112 0.000000 -52.550949
v -4.002297 0.000000 -52.932594
v -4.769984 0.000000 -53.271133
v -5.589781 0.000000 -53.563297
v -6.453794 0.000000 -53.806274
v -7.353702 0.000000 -53.997726
v -8.280837 0.000000 -54.135818
v -9.226269 0.000000 -54.219208
v -11.135565 0.031928 -54.219208
v -10.180933 0.031928 -54.247093
v -12.080997 0.031928 -54.135818
v -13.008133 0.031928 -53.997734
v -13.908044 0.031928 -53.806282
v -14.772056 0.031928 -53.563301
v -15.591859 0.031928 -53.271137
v -16.359550 0.031928 -52.932598
v -17.067738 0.031928 -52.550957
v -17.709599 0.031928 -52.129875
v -18.278957 0.031928 -51.673405
v -18.770332 0.031928 -51.185963
v -19.178974 0.031928 -50.672226
v -19.500969 0.031928 -50.137142
v -19.733204 0.031928 -49.585876
v -19.873451 0.031928 -49.023727
v -19.920341 0.031928 -48.456108
v -19.873451 0.031928 -47.888496
v -19.733204 0.031928 -47.326347
v -19.500965 0.031928 -46.775074
v -19.178974 0.031928 -46.240002
v -18.770325 0.031928 -45.726261
v -18.278957 0.031928 -45.238815
v -17.709599 0.031928 -44.782349
v -17.067732 0.031928 -44.361271
v -16.359547 0.031928 -43.979622
v -15.591859 0.031928 -43.641087
v -14.772056 0.031928 -43.348923
v -13.908040 0.031928 -43.105942
v -13.008128 0.031928 -42.914486
v -12.080992 0.031928 -42.776402
v -11.135555 0.031928 -42.693012
v -10.180923 0.031928 -42.665131
v -9.226292 0.031928 -42.693012
v -8.280859 0.031928 -42.776405
v -7.353724 0.031928 -42.914490
v -6.453811 0.031928 -43.105949
v -5.589794 0.031928 -43.348923
v -4.769997 0.031928 -43.641094
v -4.002305 0.031928 -43.979626
v -3.294119 0.031928 -44.361275
v -2.652256 0.031928 -44.782360
v -2.082903 0.031928 -45.238819
v -1.591533 0.031928 -45.726269
v -1.182882 0.031928 -46.240002
v -0.860896 0.031928 -46.775078
v -0.628659 0.031928 -47.326347
v -0.488417 0.031928 -47.888496
v -0.441518 0.031928 -48.456108
v -0.488417 0.031928 -49.023724
v -0.628656 0.031928 -49.585873
v -0.860891 0.031928 -50.137138
v -1.182882 0.031928 -50.672218
v -1.591532 0.031928 -51.185955
v -2.082896 0.031928 -51.673401
v -2.652250 0.031928 -52.129868
v -3.294112 0.031928 -52.550949
v -4.002297 0.031928 -52.932594
v -4.769984 0.031928 -53.271133
v -5.589781 0.031928 -53.563297
v -6.453794 0.031928 -53.806274
v -7.353702 0.031928 -53.997726
v -8.280837 0.031928 -54.135818
v -9.226269 0.031928 -54.219208
v -11.135565 0.000000 -54.219208
v -10.180933 0.000000 -54.247093
v -12.080997 0.000000 -54.135818
v -13.008133 0.000000 -53.997734
v -13.908044 0.000000 -53.806282
v -14.772056 0.000000 -53.563301
v -15.591859 0.000000 -53.271137
v -16.359550 0.000000 -52.932598
v -17.067738 0.000000 -52.550957
v -17.709599 0.000000 -52.129875
v -18.278957 0.000000 -51.673405
v -18.770332 0.000000 -51.185963
v -19.178974 0.000000 -50.672226
v -19.500969 0.000000 -50.137142
v -19.733204 0.000000 -49.585876
v -19.873451 0.000000 -49.023727
v -19.920341 0.000000 -48.456108
v -19.873451 0.000000 -47.888496
v -19.733204 0.000000 -47.326347
v -19.500965 0.000000 -46.775074
v -19.178974 0.000000 -46.240002
v -18.770325 0.000000 -45.726261
v -18.278957 0.000000 -45.238815
v -17.709599 0.000000 -44.782349
v -17.067732 0.000000 -44.361271
v -16.359547 0.000000 -43.979622
v -15.591859 0.000000 -43.641087
v -14.772056 0.000000 -43.348923
v -13.908040 0.000000 -43.105942
v -13.008128 0.000000 -42.914486
v -12.080992 0.000000 -42.776402
v -11.135555 0.000000 -42.693012
v -10.180923 0.000000 -42.665131
v -9.226292 0.000000 -42.693012
v -8.280859 0.000000 -42.776405
v -7.353724 0.000000 -42.914490
v -6.453811 0.000000 -43.105949
v -5.589794 0.000000 -43.348923
v -4.769997 0.000000 -43.641094
v -4.002305 0.000000 -43.979626
v -3.294119 0.000000 -44.361275
v -2.652256 0.000000 -44.782360
v -2.082903 0.000000 -45.238819
v -1.591533 0.000000 -45.726269
v -1.182885 0.000000 -46.240002
v -0.860893 0.000000 -46.775078
v -0.628659 0.000000 -47.326347
v -0.488417 0.000000 -47.888496
v -0.441518 0.000000 -48.456108
v -0.488417 0.000000 -49.023724
v -0.628656 0.000000 -49.585873
v -0.860891 0.000000 -50.137138
v -1.182882 0.000000 -50.672218
v -1.591532 0.000000 -51.185955
v -2.082896 0.000000 -51.673401
v -2.652250 0.000000 -52.129868
v -3.294112 0.000000 -52.550949
v -4.002297 0.000000 -52.932594
v -4.769984 0.000000 -53.271133
v -5.589781 0.000000 -53.563297
v -6.453794 0.000000 -53.806274
v -7.353702 0.000000 -53.997726
v -8.280837 0.000000 -54.135818
v -9.226269 0.000000 -54.219208
v -11.135565 0.031928 -54.219208
v -10.180933 0.031928 -54.247093
v -12.080997 0.031928 -54.135818
v -13.008133 0.031928 -53.997734
v -13.908044 0.031928 -53.806282
v -14.772056 0.031928 -53.563301
v -15.591859 0.031928 -53.271137
v -16.359550 0.031928 -52.932598
v -17.067738 0.031928 -52.550957
v -17.709599 0.031928 -52.129875
v -18.278957 0.031928 -51.673405
v -18.770332 0.031928 -51.185963
v -19.178974 0.031928 -50.672226
v -19.500969 0.031928 -50.137142
v -19.733204 0.031928 -49.585876
v -19.873451 0.031928 -49.023727
v -19.920341 0.031928 -48.456108
v -19.873451 0.031928 -47.888496
v -19.733204 0.031928 -47.326347
v -19.500965 0.031928 -46.775074
v -19.178974 0.031928 -46.240002
v -18.770325 0.031928 -45.726261
v -18.278957 0.031928 -45.238815
v -17.709599 0.031928 -44.782349
v -17.067732 0.031928 -44.361271
v -16.359547 0.031928 -43.979622
v -15.591859 0.031928 -43.641087
v -14.772056 0.031928 -43.348923
v -13.908040 0.031928 -43.105942
v -13.008128 0.031928 -42.914486
v -12.080992 0.031928 -42.776402
v -11.135555 0.031928 -42.693012
v -10.180923 0.031928 -42.665131
v -9.226292 0.031928 -42.693012
v -8.280859 0.031928 -42.776405
v -7.353724 0.031928 -42.914490
v -6.453811 0.031928 -43.105949
v -5.589794 0.031928 -43.348923
v -4.769997 0.031928 -43.641094
v -4.002305 0.031928 -43.979626
v -3.294119 0.031928 -44.361275
v -2.652256 0.031928 -44.782360
v -2.082903 0.031928 -45.238819
v -1.591533 0.031928 -45.726269
v -1.182882 0.031928 -46.240002
v -0.860896 0.031928 -46.775078
v -0.628659 0.031928 -47.326347
v -0.488417 0.031928 -47.888496
v -0.441518 0.031928 -48.456108
v -0.488417 0.031928 -49.023724
v -0.628656 0.031928 -49.585873
v -0.860891 0.031928 -50.137138
v -1.182882 0.031928 -50.672218
v -1.591532 0.031928 -51.185955
v -2.082896 0.031928 -51.673401
v -2.652250 0.031928 -52.129868
v -3.294112 0.031928 -52.550949
v -4.002297 0.031928 -52.932594
v -4.769984 0.031928 -53.271133
v -5.589781 0.031928 -53.563297
v -6.453794 0.031928 -53.806274
v -7.353702 0.031928 -53.997726
v -8.280837 0.031928 -54.135818
v -9.226269 0.031928 -54.219208
vt 0.407214 1.060147
vt 0.500000 1.062857
vt 0.592789 1.060147
vt 0.684681 1.052042
vt 0.774794 1.038620
vt 0.862261 1.020012
vt 0.946239 0.996396
vt 1.025920 0.967998
vt 1.100536 0.935094
vt 1.169368 0.898000
vt 1.231754 0.857072
vt 1.287093 0.812706
vt 1.334851 0.765328
vt 1.374570 0.715395
vt 1.405867 0.663388
vt 1.428439 0.609807
vt 1.442069 0.555169
vt 1.446628 0.499999
vt 1.442069 0.444830
vt 1.428438 0.390191
vt 1.405866 0.336611
vt 1.374570 0.284604
vt 1.334851 0.234671
vt 1.287092 0.187293
vt 1.231754 0.142927
vt 1.169368 0.101999
vt 1.100535 0.064905
vt 1.025919 0.032001
vt 0.946238 0.003603
vt 0.862260 -0.020013
vt 0.774792 -0.038622
vt 0.684678 -0.052043
vt 0.592786 -0.060148
vt 0.500001 -0.062858
vt 0.407214 -0.060148
vt 0.315322 -0.052043
vt 0.225209 -0.038622
vt 0.137741 -0.020013
vt 0.053763 0.003603
vt -0.025919 0.032000
vt -0.100534 0.064905
vt -0.169367 0.101999
vt -0.231754 0.142926
vt -0.287093 0.187293
vt -0.334851 0.234670
vt -0.374570 0.284604
vt -0.405867 0.336610
vt -0.428439 0.390191
vt -0.442070 0.444830
vt -0.446628 0.499999
vt -0.442070 0.555169
vt -0.428439 0.609808
vt -0.405867 0.663388
vt -0.374570 0.715396
vt -0.334852 0.765329
vt -0.287093 0.812706
vt -0.231754 0.857073
vt -0.169367 0.898000
vt -0.100535 0.935094
vt -0.025919 0.967999
vt 0.053763 0.996396
vt 0.137741 1.020012
vt 0.225208 1.038621
vt 0.315322 1.052042
vt 0.407214 1.060147
vt 0.315322 1.052042
vt 0.225208 1.038621
vt 0.137741 1.020012
vt 0.053763 0.996396
vt -0.025919 0.967999
vt -0.100535 0.935094
vt -0.169367 0.898000
vt -0.231754 0.857073
vt -0.287093 0.812706
vt -0.334852 0.765329
vt -0.374570 0.715396
vt -0.405867 0.663388
vt -0.428439 0.609808
vt -0.442070 0.555169
vt -0.446628 0.499999
vt -0.442070 0.444830
vt -0.428439 0.390191
vt -0.405867 0.336610
vt -0.374570 0.284604
vt -0.334851 0.234670
vt -0.287093 0.187293
vt -0.231754 0.142926
vt -0.169367 0.101999
vt -0.100534 0.064905
vt -0.025919 0.032000
vt 0.053763 0.003603
vt 0.137741 -0.020013
vt 0.225209 -0.038622
vt 0.315322 -0.052043
vt 0.407214 -0.060148
vt 0.500001 -0.062858
vt 0.592786 -0.060148
vt 0.684678 -0.052043
vt 0.774792 -0.038622
vt 0.862260 -0.020013
vt 0.946238 0.003603
vt 1.025919 0.032001
vt 1.100535 0.064905
vt 1.169368 0.101999
vt 1.231754 0.142927
vt 1.287092 0.187293
vt 1.334851 0.234671
vt 1.374570 0.284604
vt 1.405866 0.336611
vt 1.428438 0.390191
vt 1.442069 0.444830
vt 1.446628 0.499999
vt 1.442069 0.555169
vt 1.428439 0.609807
vt 1.405867 0.663388
vt 1.374570 0.715395
vt 1.334851 0.765328
vt 1.287093 0.812706
vt 1.231754 0.857072
vt 1.169368 0.898000
vt 1.100536 0.935094
vt 1.025920 0.967998
vt 0.946239 0.996396
vt 0.862261 1.020012
vt 0.774794 1.038620
vt 0.684681 1.052042
vt 0.592789 1.060147
vt 0.500000 1.062857
vt 0.284603 0.498449
vt 0.336610 0.498449
vt 0.336610 0.501552
vt 0.284603 0.501552
vt 0.390191 0.498449
vt 0.336610 0.498449
vt 0.336610 0.501552
vt 0.390191 0.501552
vt 0.390191 0.498449
vt 0.390191 0.501552
vt 0.284603 0.498449
vt 0.284603 0.501552
vt 0.444830 0.498449
vt 0.444830 0.501552
vt 0.234670 0.498449
vt 0.234670 0.501552
vt 0.499999 0.498449
vt 0.499999 0.501552
vt -0.334851 0.498449
vt -0.287093 0.498449
vt -0.287093 0.501552
vt -0.334851 0.501552
vt 0.555169 0.498449
vt 0.555169 0.501552
vt -0.231754 0.498449
vt -0.231754 0.501552
vt 0.609807 0.498449
vt 0.609807 0.501552
vt -0.169367 0.498449
vt -0.169367 0.501552
vt 0.663388 0.498449
vt 0.663388 0.501552
vt -0.100534 0.498449
vt -0.100534 0.501552
vt 0.715395 0.498449
vt 0.715395 0.501552
vt -0.025919 0.498449
vt -0.025919 0.501552
vt 0.765328 0.498449
vt 0.765328 0.501552
vt 0.053763 0.498449
vt 0.053763 0.501552
vt 0.500000 0.498449
vt 0.407214 0.498449
vt 0.407214 0.501552
vt 0.500000 0.501552
vt 1.334851 0.498449
vt 1.287093 0.498449
vt 1.287093 0.501552
vt 1.334851 0.501552
vt 0.137741 0.498449
vt 0.137741 0.501552
vt 0.315322 0.498449
vt 0.315322 0.501552
vt 1.231754 0.498449
vt 1.231754 0.501552
vt 0.225209 0.498449
vt 0.225209 0.501552
vt 0.225208 0.498449
vt 0.225208 0.501552
vt 1.169368 0.498449
vt 1.169368 0.501552
vt 0.315322 0.498449
vt 0.315322 0.501552
vt 0.137741 0.498449
vt 0.137741 0.501552
vt 1.100536 0.498449
vt 1.100536 0.501552
vt 0.407214 0.498449
vt 0.407214 0.501552
vt 0.053763 0.498449
vt 0.053763 0.501552
vt 1.025920 0.498449
vt 1.025920 0.501552
vt 0.500001 0.498449
vt 0.500001 0.501552
vt -0.025919 0.498449
vt -0.025919 0.501552
vt 0.946239 0.498449
vt 0.946239 0.501552
vt 0.592786 0.498449
vt 0.592786 0.501552
vt -0.100535 0.498449
vt -0.100535 0.501552
vt 0.862261 0.498449
vt 0.862261 0.501552
vt 0.684678 0.498449
vt 0.684678 0.501552
vt -0.169367 0.498449
vt -0.169367 0.501552
vt 0.774794 0.498449
vt 0.774794 0.501552
vt 0.774792 0.498449
vt 0.774792 0.501552
vt -0.231754 0.498449
vt -0.231754 0.501552
vt 0.684681 0.498449
vt 0.684681 0.501552
vt 0.862260 0.498449
vt 0.862260 0.501552
vt -0.287093 0.498449
vt -0.287093 0.501552
vt 0.592789 0.498449
vt 0.592789 0.501552
vt 0.946238 0.498449
vt 0.946238 0.501552
vt -0.334852 0.498449
vt -0.334852 0.501552
vt 1.025919 0.498449
vt 1.025919 0.501552
vt 0.765329 0.498449
vt 0.715396 0.498449
vt 0.715396 0.501552
vt 0.765329 0.501552
vt 1.100535 0.498449
vt 1.100535 0.501552
vt 0.663388 0.498449
vt 0.663388 0.501552
vt 1.169368 0.498449
vt 1.169368 0.501552
vt 0.609808 0.498449
vt 0.609808 0.501552
vt 1.231754 0.498449
vt 1.231754 0.501552
vt 0.555169 0.498449
vt 0.555169 0.501552
vt 1.287092 0.498449
vt 1.287092 0.501552
vt 0.499999 0.498449
vt 0.499999 0.501552
vt 1.334851 0.498449
vt 1.334851 0.501552
vt 0.444830 0.498449
vt 0.444830 0.501552
vt 0.234671 0.498449
vt 0.234671 0.501552
vn 0.0000 -1.0000 -0.0000
vn 0.0000 1.0000 0.0000
vn 0.8568 0.0000 0.5156
vn -0.9216 0.0000 0.3882
vn 0.9216 0.0000 0.3882
vn -0.8568 0.0000 0.5156
vn 0.9703 0.0000 0.2421
vn -0.7826 0.0000 0.6225
vn 0.9966 0.0000 0.0823
vn -0.7043 0.0000 0.7099
vn 0.9966 0.0000 -0.0823
vn -0.6255 0.0000 0.7802
vn 0.9703 0.0000 -0.2421
vn -0.5485 0.0000 0.8361
vn 0.9216 0.0000 -0.3882
vn -0.4744 0.0000 0.8803
vn 0.8568 0.0000 -0.5156
vn -0.4035 0.0000 0.9150
vn 0.7826 0.0000 -0.6225
vn -0.3357 0.0000 0.9420
vn -0.0292 0.0000 -0.9996
vn 0.7043 0.0000 -0.7099
vn -0.2707 0.0000 0.9627
vn -0.0879 0.0000 -0.9961
vn 0.6255 0.0000 -0.7802
vn -0.2081 0.0000 0.9781
vn -0.1473 0.0000 -0.9891
vn 0.5485 0.0000 -0.8361
vn -0.1473 0.0000 0.9891
vn -0.2081 0.0000 -0.9781
vn 0.4744 0.0000 -0.8803
vn -0.0879 0.0000 0.9961
vn -0.2707 0.0000 -0.9627
vn 0.4035 0.0000 -0.9150
vn -0.0292 0.0000 0.9996
vn -0.3357 0.0000 -0.9420
vn 0.3357 0.0000 -0.9420
vn 0.0292 0.0000 0.9996
vn -0.4035 0.0000 -0.9150
vn 0.2707 0.0000 -0.9627
vn 0.0879 0.0000 0.9961
vn -0.4744 0.0000 -0.8803
vn 0.2081 0.0000 -0.9781
vn 0.1473 0.0000 0.9891
vn -0.5485 0.0000 -0.8361
vn 0.1473 0.0000 -0.9891
vn 0.2081 0.0000 0.9781
vn -0.6255 0.0000 -0.7802
vn 0.0879 0.0000 -0.9961
vn 0.2707 0.0000 0.9627
vn -0.7043 0.0000 -0.7099
vn 0.0292 0.0000 -0.9996
vn 0.3357 0.0000 0.9420
vn -0.7826 0.0000 -0.6225
vn 0.4035 0.0000 0.9150
vn -0.8568 0.0000 -0.5156
vn 0.4744 0.0000 0.8803
vn -0.9216 0.0000 -0.3882
vn 0.5485 0.0000 0.8361
vn -0.9703 0.0000 -0.2421
vn 0.6255 0.0000 0.7802
vn -0.9966 0.0000 -0.0823
vn 0.7043 0.0000 0.7099
vn -0.9966 0.0000 0.0823
vn 0.7826 -0.0000 0.6225
vn -0.9703 0.0000 0.2421
usemtl Material.009
s off
f 129/1/1 130/2/1 192/3/1 191/4/1 190/5/1 189/6/1 188/7/1 187/8/1 186/9/1 185/10/1 184/11/1 183/12/1 182/13/1 181/14/1 180/15/1 179/16/1 178/17/1 177/18/1 176/19/1 175/20/1 174/21/1 173/22/1 172/23/1 171/24/1 170/25/1 169/26/1 168/27/1 167/28/1 166/29/1 165/30/1 164/31/1 163/32/1 162/33/1 161/34/1 160/35/1 159/36/1 158/37/1 157/38/1 156/39/1 155/40/1 154/41/1 153/42/1 152/43/1 151/44/1 150/45/1 149/46/1 148/47/1 147/48/1 146/49/1 145/50/1 144/51/1 143/52/1 142/53/1 141/54/1 140/55/1 139/56/1 138/57/1 137/58/1 136/59/1 135/60/1 134/61/1 133/62/1 132/63/1 131/64/1
f 193/65/2 195/66/2 196/67/2 197/68/2 198/69/2 199/70/2 200/71/2 201/72/2 202/73/2 203/74/2 204/75/2 205/76/2 206/77/2 207/78/2 208/79/2 209/80/2 210/81/2 211/82/2 212/83/2 213/84/2 214/85/2 215/86/2 216/87/2 217/88/2 218/89/2 219/90/2 220/91/2 221/92/2 222/93/2 223/94/2 224/95/2 225/96/2 226/97/2 227/98/2 228/99/2 229/100/2 230/101/2 231/102/2 232/103/2 233/104/2 234/105/2 235/106/2 236/107/2 237/108/2 238/109/2 239/110/2 240/111/2 241/112/2 242/113/2 243/114/2 244/115/2 245/116/2 246/117/2 247/118/2 248/119/2 249/120/2 250/121/2 251/122/2 252/123/2 253/124/2 254/125/2 255/126/2 256/127/2 194/128/2
f 45/129/3 46/130/3 110/131/3 109/132/3
f 19/133/4 20/134/4 84/135/4 83/136/4
f 46/130/5 47/137/5 111/138/5 110/131/5
f 20/134/6 21/139/6 85/140/6 84/135/6
f 47/137/7 48/141/7 112/142/7 111/138/7
f 21/139/8 22/143/8 86/144/8 85/140/8
f 48/141/9 49/145/9 113/146/9 112/142/9
f 22/147/10 23/148/10 87/149/10 86/150/10
f 49/145/11 50/151/11 114/152/11 113/146/11
f 23/148/12 24/153/12 88/154/12 87/149/12
f 50/151/13 51/155/13 115/156/13 114/152/13
f 24/153/14 25/157/14 89/158/14 88/154/14
f 51/155/15 52/159/15 116/160/15 115/156/15
f 25/157/16 26/161/16 90/162/16 89/158/16
f 52/159/17 53/163/17 117/164/17 116/160/17
f 26/161/18 27/165/18 91/166/18 90/162/18
f 53/163/19 54/167/19 118/168/19 117/164/19
f 27/165/20 28/169/20 92/170/20 91/166/20
f 1/171/21 2/172/21 65/173/21 66/174/21
f 54/175/22 55/176/22 119/177/22 118/178/22
f 28/169/23 29/179/23 93/180/23 92/170/23
f 2/172/24 3/181/24 67/182/24 65/173/24
f 55/176/25 56/183/25 120/184/25 119/177/25
f 29/179/26 30/185/26 94/186/26 93/180/26
f 3/181/27 4/187/27 68/188/27 67/182/27
f 56/183/28 57/189/28 121/190/28 120/184/28
f 30/185/29 31/191/29 95/192/29 94/186/29
f 4/187/30 5/193/30 69/194/30 68/188/30
f 57/189/31 58/195/31 122/196/31 121/190/31
f 31/191/32 32/197/32 96/198/32 95/192/32
f 5/193/33 6/199/33 70/200/33 69/194/33
f 58/195/34 59/201/34 123/202/34 122/196/34
f 32/197/35 33/203/35 97/204/35 96/198/35
f 6/199/36 7/205/36 71/206/36 70/200/36
f 59/201/37 60/207/37 124/208/37 123/202/37
f 33/203/38 34/209/38 98/210/38 97/204/38
f 7/205/39 8/211/39 72/212/39 71/206/39
f 60/207/40 61/213/40 125/214/40 124/208/40
f 34/209/41 35/215/41 99/216/41 98/210/41
f 8/211/42 9/217/42 73/218/42 72/212/42
f 61/213/43 62/219/43 126/220/43 125/214/43
f 35/215/44 36/221/44 100/222/44 99/216/44
f 9/217/45 10/223/45 74/224/45 73/218/45
f 62/219/46 63/225/46 127/226/46 126/220/46
f 36/221/47 37/227/47 101/228/47 100/222/47
f 10/223/48 11/229/48 75/230/48 74/224/48
f 63/225/49 64/231/49 128/232/49 127/226/49
f 37/227/50 38/233/50 102/234/50 101/228/50
f 11/229/51 12/235/51 76/236/51 75/230/51
f 64/231/52 1/171/52 66/174/52 128/232/52
f 38/233/53 39/237/53 103/238/53 102/234/53
f 12/239/54 13/240/54 77/241/54 76/242/54
f 39/237/55 40/243/55 104/244/55 103/238/55
f 13/240/56 14/245/56 78/246/56 77/241/56
f 40/243/57 41/247/57 105/248/57 104/244/57
f 14/245/58 15/249/58 79/250/58 78/246/58
f 41/247/59 42/251/59 106/252/59 105/248/59
f 15/249/60 16/253/60 80/254/60 79/250/60
f 42/251/61 43/255/61 107/256/61 106/252/61
f 16/253/62 17/257/62 81/258/62 80/254/62
f 43/255/63 44/259/63 108/260/63 107/256/63
f 17/257/64 18/261/64 82/262/64 81/258/64
f 44/263/65 45/129/65 109/132/65 108/264/65
f 18/261/66 19/133/66 83/136/66 82/262/66
