# Blender v2.82 (sub 1) OBJ File: 'Mediatheque - Copie.blend'
# www.blender.org
mtllib Keyboard.mtl
o Plane.142_Plane.002
v -0.323449 0.020102 -0.094836
v -0.323449 -0.000000 0.134930
v 0.323449 0.020102 -0.094836
v 0.323449 -0.000000 0.134930
v 0.323449 0.032496 -0.093752
v -0.323449 0.032496 -0.093752
v -0.323449 0.012394 0.136014
v 0.323449 0.012394 0.136014
v 0.108586 0.020102 -0.094836
v 0.108586 -0.000000 0.134930
v 0.108586 0.032496 -0.093752
v 0.108586 0.012394 0.136014
v 0.203311 -0.000000 0.134930
v 0.203311 0.012394 0.136014
v 0.203311 0.020102 -0.094836
v 0.203311 0.032496 -0.093752
v -0.323449 0.015170 -0.038459
v 0.323449 0.015170 -0.038459
v -0.321714 0.034779 -0.035002
v 0.323449 0.027564 -0.037375
v 0.106851 0.034779 -0.035002
v 0.108586 0.015170 -0.038459
v 0.201576 0.034779 -0.035002
v 0.203311 0.015170 -0.038459
v -0.323449 0.001959 0.112533
v -0.321714 0.021871 0.112534
v 0.108586 0.001959 0.112533
v 0.203311 0.001959 0.112533
v 0.323449 0.001959 0.112533
v 0.323449 0.014353 0.113618
v 0.106851 0.021871 0.112534
v 0.201576 0.021871 0.112534
v 0.323449 0.007026 0.054618
v 0.323449 0.019420 0.055702
v 0.106851 0.026787 0.056347
v 0.201576 0.026636 0.058075
v -0.323449 0.007026 0.054618
v -0.321714 0.026787 0.056347
v 0.108586 0.007026 0.054618
v 0.203311 0.007026 0.054618
v 0.323449 0.008788 0.034481
v 0.323449 0.021182 0.035565
v 0.106851 0.028549 0.036209
v 0.201576 0.028700 0.034481
v -0.323449 0.008788 0.034481
v -0.321714 0.028549 0.036209
v 0.108586 0.008788 0.034481
v 0.203311 0.008788 0.034481
v 0.323449 0.016020 -0.048183
v 0.323449 0.028414 -0.047098
v 0.106851 0.035932 -0.048182
v 0.201576 0.035932 -0.048182
v -0.323449 0.016020 -0.048183
v -0.321714 0.035932 -0.048182
v 0.108586 0.016020 -0.048183
v 0.203311 0.016020 -0.048183
v 0.323449 0.018061 -0.071509
v 0.323449 0.030455 -0.070425
v 0.106851 0.037671 -0.068052
v 0.201576 0.037671 -0.068052
v -0.323449 0.018061 -0.071509
v -0.321714 0.037671 -0.068052
v 0.108586 0.018061 -0.071509
v 0.203311 0.018061 -0.071509
v 0.221025 -0.000000 0.134930
v 0.221025 0.012394 0.136014
v 0.221025 0.020102 -0.094836
v 0.221025 0.032496 -0.093752
v 0.222760 0.034779 -0.035002
v 0.221025 0.015170 -0.038459
v 0.222760 0.021871 0.112534
v 0.221025 0.001959 0.112533
v 0.221025 0.007026 0.054618
v 0.222760 0.026787 0.056347
v 0.222760 0.028549 0.036209
v 0.221025 0.008788 0.034481
v 0.221025 0.016020 -0.048183
v 0.221025 0.028414 -0.047098
v 0.221025 0.030455 -0.070425
v 0.221025 0.018061 -0.071509
v 0.125343 0.020102 -0.094836
v 0.125343 0.032496 -0.093752
v 0.125343 -0.000000 0.134930
v 0.125343 0.012394 0.136014
v 0.125343 0.015170 -0.038459
v 0.127078 0.034779 -0.035002
v 0.125343 0.001959 0.112533
v 0.127078 0.021871 0.112534
v 0.127078 0.026636 0.058075
v 0.125343 0.007026 0.054618
v 0.125343 0.008788 0.034481
v 0.127078 0.028700 0.034481
v 0.127078 0.035932 -0.048182
v 0.125343 0.016020 -0.048183
v 0.125343 0.018061 -0.071509
v 0.127078 0.037671 -0.068052
v 0.312658 -0.000000 0.134930
v 0.312658 0.012394 0.136014
v 0.310923 0.034779 -0.035002
v 0.310923 0.021871 0.112534
v 0.310923 0.026787 0.056347
v 0.310923 0.028549 0.036209
v 0.312658 0.028414 -0.047098
v 0.312658 0.030455 -0.070425
v 0.312658 0.020102 -0.094836
v 0.312658 0.032496 -0.093752
v 0.312658 0.015170 -0.038459
v 0.312658 0.001959 0.112533
v 0.312658 0.007026 0.054618
v 0.312658 0.008788 0.034481
v 0.312658 0.016020 -0.048183
v 0.312658 0.018061 -0.071509
v 0.108586 0.021182 0.035565
v 0.108586 0.027564 -0.037375
v 0.203311 0.021182 0.035565
v 0.203311 0.027564 -0.037375
v 0.125343 0.027564 -0.037375
v -0.323449 0.027564 -0.037375
v -0.323449 0.019420 0.055702
v -0.323449 0.014353 0.113618
v 0.125343 0.014353 0.113618
v 0.203311 0.014353 0.113618
v 0.108586 0.014353 0.113618
v 0.108586 0.019420 0.055702
v 0.203311 0.019420 0.055702
v -0.323449 0.021182 0.035565
v 0.125343 0.019420 0.055702
v 0.125343 0.021182 0.035565
v -0.323449 0.030455 -0.070425
v -0.323449 0.028414 -0.047098
v 0.108586 0.028414 -0.047098
v 0.125343 0.028414 -0.047098
v 0.203311 0.028414 -0.047098
v 0.108586 0.030455 -0.070425
v 0.203311 0.030455 -0.070425
v 0.125343 0.030455 -0.070425
v 0.221025 0.021182 0.035565
v 0.221025 0.027564 -0.037375
v 0.221025 0.019420 0.055702
v 0.221025 0.014353 0.113618
v 0.312658 0.027564 -0.037375
v 0.312658 0.014353 0.113618
v 0.312658 0.021182 0.035565
v 0.312658 0.019420 0.055702
vt 0.750000 0.937500
vt 0.750000 1.000000
vt 1.000000 1.000000
vt 1.000000 0.937500
vt 0.750000 0.937500
vt 1.000000 0.937500
vt 1.000000 1.000000
vt 0.750000 1.000000
vt 0.000000 0.500000
vt 0.000000 0.000000
vt 0.000000 0.000000
vt 0.000000 0.500000
vt 0.125000 1.000000
vt 0.000000 1.000000
vt 0.000000 1.000000
vt 0.125000 1.000000
vt 0.750000 0.000000
vt 1.000000 0.000000
vt 1.000000 0.000000
vt 0.750000 0.000000
vt 0.000000 0.625000
vt 0.000000 0.625000
vt 1.000000 0.500000
vt 1.000000 0.500000
vt 0.750000 0.500000
vt 0.750000 0.500000
vt 0.000000 0.875000
vt 0.000000 0.750000
vt 0.000000 0.750000
vt 0.000000 0.875000
vt 1.000000 0.625000
vt 1.000000 0.750000
vt 1.000000 0.750000
vt 1.000000 0.625000
vt 0.750000 0.625000
vt 0.750000 0.750000
vt 0.750000 0.625000
vt 0.750000 0.750000
vt 0.250000 0.625000
vt 0.250000 0.750000
vt 0.500000 0.750000
vt 0.500000 0.625000
vt 0.250000 0.625000
vt 0.500000 0.625000
vt 0.500000 0.750000
vt 0.250000 0.750000
vt 0.250000 0.000000
vt 0.250000 0.500000
vt 0.500000 0.500000
vt 0.500000 0.000000
vt 0.250000 0.000000
vt 0.500000 0.000000
vt 0.500000 0.500000
vt 0.250000 0.500000
vt 0.562500 1.000000
vt 0.500000 1.000000
vt 0.500000 1.000000
vt 0.562500 1.000000
vt 0.250000 0.937500
vt 0.500000 0.937500
vt 0.250000 1.000000
vt 0.250000 0.937500
vt 0.250000 1.000000
vt 0.500000 0.937500
vt 0.625000 0.625000
vt 0.625000 0.750000
vt 0.628730 0.627781
vt 0.746270 0.627782
vt 0.746270 0.747218
vt 0.628730 0.747218
vt 0.625000 0.000000
vt 0.625000 0.500000
vt 0.625000 0.002008
vt 0.746270 0.002008
vt 0.746270 0.497992
vt 0.625000 0.497992
vt 0.625000 0.000000
vt 0.625000 0.937500
vt 0.625000 1.000000
vt 0.625000 0.937500
vt 0.625000 1.000000
vt 0.562500 0.937500
vt 0.562500 0.937500
vt 0.562500 0.000000
vt 0.562500 0.000000
vt 0.562500 0.002008
vt 0.562500 0.497992
vt 0.562500 0.500000
vt 0.562500 0.625000
vt 0.625000 0.625000
vt 0.625000 0.750000
vt 0.562500 0.750000
vt 0.562500 0.625000
vt 0.562500 0.750000
vt 0.501481 0.627782
vt 0.561019 0.627782
vt 0.561019 0.747218
vt 0.501481 0.747218
vt 0.501481 0.002008
vt 0.501481 0.497992
vt 0.125000 0.937500
vt 0.125000 0.937500
vt 0.125000 0.000000
vt 0.125000 0.000000
vt 0.134262 0.002008
vt 0.240738 0.002008
vt 0.240738 0.497992
vt 0.134262 0.497992
vt 0.125000 0.500000
vt 0.134262 0.627782
vt 0.240738 0.627782
vt 0.240738 0.747218
vt 0.134262 0.747218
vt 0.125000 0.625000
vt 0.125000 0.750000
vt 0.125000 0.625000
vt 0.125000 0.750000
vt 0.125000 0.500000
vt 0.000000 0.937500
vt 0.000000 0.937500
vt 0.125000 0.875000
vt 0.125000 0.875000
vt 0.250000 0.875000
vt 0.250000 0.875000
vt 0.500000 0.875000
vt 0.562500 0.875000
vt 0.562500 0.875000
vt 0.500000 0.875000
vt 0.625000 0.875000
vt 0.625000 0.875000
vt 0.750000 0.875000
vt 0.750000 0.875000
vt 1.000000 0.875000
vt 1.000000 0.875000
vt 0.562500 0.500000
vt 0.625000 0.500000
vt 0.501481 0.876183
vt 0.562500 0.876183
vt 0.562500 0.936317
vt 0.501481 0.936317
vt 0.625000 0.876183
vt 0.625000 0.936317
vt 0.746270 0.876183
vt 0.746270 0.936317
vn -0.0000 -0.9962 -0.0872
vn 0.0000 0.9962 0.0872
vn 0.0000 -0.0872 0.9962
vn -0.0000 0.0872 -0.9962
vn 1.0000 0.0000 0.0000
vn -1.0000 0.0000 0.0000
vn 0.9736 0.2275 0.0199
vn -0.0000 0.3124 -0.9500
vn -0.9736 0.2275 0.0199
vn 0.0000 0.1427 0.9898
usemtl Material.001
s off
f 108/1/1 29/2/1 4/3/1 97/4/1
f 142/5/2 98/6/2 8/7/2 30/8/2
f 97/4/3 4/3/3 8/7/3 98/6/3
f 9/9/4 1/10/4 6/11/4 11/12/4
f 57/13/5 3/14/5 5/15/5 58/16/5
f 25/17/6 2/18/6 7/19/6 120/20/6
f 81/21/4 9/9/4 11/12/4 82/22/4
f 2/18/3 10/23/3 12/24/3 7/19/3
f 120/20/2 7/19/2 12/24/2 123/25/2
f 25/17/1 27/26/1 10/23/1 2/18/1
f 67/27/4 15/28/4 16/29/4 68/30/4
f 83/31/3 13/32/3 14/33/3 84/34/3
f 121/35/2 84/34/2 14/33/2 122/36/2
f 87/37/1 28/38/1 13/32/1 83/31/1
f 94/39/1 56/40/1 24/41/1 85/42/1
f 132/43/2 117/44/2 116/45/2 133/46/2
f 53/47/1 55/48/1 22/49/1 17/50/1
f 130/51/2 118/52/2 114/53/2 131/54/2
f 53/47/6 17/50/6 118/52/6 130/51/6
f 41/55/5 18/56/5 20/57/5 42/58/5
f 103/59/2 141/60/2 20/57/2 50/61/2
f 111/62/1 49/63/1 18/56/1 107/64/1
f 4/3/5 29/2/5 30/8/5 8/7/5
f 90/65/1 40/66/1 28/38/1 87/37/1
f 89/67/2 88/68/2 32/69/2 36/70/2
f 37/71/1 39/72/1 27/26/1 25/17/1
f 38/73/2 26/74/2 31/75/2 35/76/2
f 37/71/6 25/17/6 120/20/6 119/77/6
f 144/78/2 142/5/2 30/8/2 34/79/2
f 109/80/1 33/81/1 29/2/1 108/1/1
f 110/82/1 41/55/1 33/81/1 109/80/1
f 143/83/2 144/78/2 34/79/2 42/58/2
f 45/84/6 37/71/6 119/77/6 126/85/6
f 46/86/2 38/73/2 35/76/2 43/87/2
f 45/84/1 47/88/1 39/72/1 37/71/1
f 128/89/2 127/90/2 125/91/2 115/92/2
f 91/93/1 48/94/1 40/66/1 90/65/1
f 29/2/5 33/81/5 34/79/5 30/8/5
f 85/42/1 24/41/1 48/94/1 91/93/1
f 86/95/2 92/96/2 44/97/2 23/98/2
f 17/50/1 22/49/1 47/88/1 45/84/1
f 19/99/2 46/86/2 43/87/2 21/100/2
f 17/50/6 45/84/6 126/85/6 118/52/6
f 141/60/2 143/83/2 42/58/2 20/57/2
f 107/64/1 18/56/1 41/55/1 110/82/1
f 33/81/5 41/55/5 42/58/5 34/79/5
f 112/101/1 57/13/1 49/63/1 111/62/1
f 104/102/2 103/59/2 50/61/2 58/16/2
f 61/103/6 53/47/6 130/51/6 129/104/6
f 62/105/2 54/106/2 51/107/2 59/108/2
f 61/103/1 63/109/1 55/48/1 53/47/1
f 96/110/2 93/111/2 52/112/2 60/113/2
f 95/114/1 64/115/1 56/40/1 94/39/1
f 18/56/5 49/63/5 50/61/5 20/57/5
f 81/21/1 15/28/1 64/115/1 95/114/1
f 82/22/2 136/116/2 135/117/2 16/29/2
f 1/10/1 9/9/1 63/109/1 61/103/1
f 6/11/2 129/104/2 134/118/2 11/12/2
f 1/10/6 61/103/6 129/104/6 6/11/6
f 106/119/2 104/102/2 58/16/2 5/15/2
f 105/120/1 3/14/1 57/13/1 112/101/1
f 49/63/5 57/13/5 58/16/5 50/61/5
f 15/28/1 67/27/1 80/121/1 64/115/1
f 16/29/2 135/117/2 79/122/2 68/30/2
f 135/117/2 133/46/2 78/123/2 79/122/2
f 64/115/1 80/121/1 77/124/1 56/40/1
f 24/41/1 70/125/1 76/126/1 48/94/1
f 116/45/2 115/92/2 137/127/2 138/128/2
f 115/92/2 125/91/2 139/129/2 137/127/2
f 48/94/1 76/126/1 73/130/1 40/66/1
f 40/66/1 73/130/1 72/131/1 28/38/1
f 125/91/2 122/36/2 140/132/2 139/129/2
f 56/40/1 77/124/1 70/125/1 24/41/1
f 133/46/2 116/45/2 138/128/2 78/123/2
f 105/120/4 67/27/4 68/30/4 106/119/4
f 13/32/3 65/133/3 66/134/3 14/33/3
f 122/36/2 14/33/2 66/134/2 140/132/2
f 28/38/1 72/131/1 65/133/1 13/32/1
f 11/12/2 134/118/2 136/116/2 82/22/2
f 9/9/1 81/21/1 95/114/1 63/109/1
f 63/109/1 95/114/1 94/39/1 55/48/1
f 134/118/2 131/54/2 132/43/2 136/116/2
f 114/53/2 113/135/2 128/89/2 117/44/2
f 22/49/1 85/42/1 91/93/1 47/88/1
f 47/88/1 91/93/1 90/65/1 39/72/1
f 113/135/2 124/136/2 127/90/2 128/89/2
f 124/136/2 123/25/2 121/35/2 127/90/2
f 39/72/1 90/65/1 87/37/1 27/26/1
f 131/54/2 114/53/2 117/44/2 132/43/2
f 55/48/1 94/39/1 85/42/1 22/49/1
f 27/26/1 87/37/1 83/31/1 10/23/1
f 123/25/2 12/24/2 84/34/2 121/35/2
f 10/23/3 83/31/3 84/34/3 12/24/3
f 15/28/4 81/21/4 82/22/4 16/29/4
f 3/14/4 105/120/4 106/119/4 5/15/4
f 67/27/1 105/120/1 112/101/1 80/121/1
f 68/30/2 79/122/2 104/102/2 106/119/2
f 79/122/2 78/123/2 103/59/2 104/102/2
f 80/121/1 112/101/1 111/62/1 77/124/1
f 70/125/1 107/64/1 110/82/1 76/126/1
f 69/137/2 75/138/2 102/139/2 99/140/2
f 75/138/2 74/141/2 101/142/2 102/139/2
f 76/126/1 110/82/1 109/80/1 73/130/1
f 73/130/1 109/80/1 108/1/1 72/131/1
f 74/141/2 71/143/2 100/144/2 101/142/2
f 77/124/1 111/62/1 107/64/1 70/125/1
f 78/123/2 138/128/2 141/60/2 103/59/2
f 65/133/3 97/4/3 98/6/3 66/134/3
f 140/132/2 66/134/2 98/6/2 142/5/2
f 72/131/1 108/1/1 97/4/1 65/133/1
f 21/100/7 43/87/7 113/135/7 114/53/7
f 23/98/7 44/97/7 115/92/7 116/45/7
f 86/95/8 23/98/8 116/45/8 117/44/8
f 19/99/8 21/100/8 114/53/8 118/52/8
f 26/74/9 38/73/9 119/77/9 120/20/9
f 32/69/10 88/68/10 121/35/10 122/36/10
f 31/75/10 26/74/10 120/20/10 123/25/10
f 35/76/7 31/75/7 123/25/7 124/136/7
f 36/70/7 32/69/7 122/36/7 125/91/7
f 38/73/9 46/86/9 126/85/9 119/77/9
f 89/67/8 36/70/8 125/91/8 127/90/8
f 43/87/7 35/76/7 124/136/7 113/135/7
f 46/86/9 19/99/9 118/52/9 126/85/9
f 44/97/10 92/96/10 128/89/10 115/92/10
f 54/106/9 62/105/9 129/104/9 130/51/9
f 51/107/10 54/106/10 130/51/10 131/54/10
f 52/112/10 93/111/10 132/43/10 133/46/10
f 59/108/7 51/107/7 131/54/7 134/118/7
f 60/113/7 52/112/7 133/46/7 135/117/7
f 96/110/8 60/113/8 135/117/8 136/116/8
f 62/105/8 59/108/8 134/118/8 129/104/8
f 75/138/9 69/137/9 138/128/9 137/127/9
f 74/141/9 75/138/9 137/127/9 139/129/9
f 71/143/9 74/141/9 139/129/9 140/132/9
f 93/111/9 96/110/9 136/116/9 132/43/9
f 92/96/9 86/95/9 117/44/9 128/89/9
f 88/68/9 89/67/9 127/90/9 121/35/9
f 69/137/8 99/140/8 141/60/8 138/128/8
f 100/144/10 71/143/10 140/132/10 142/5/10
f 99/140/7 102/139/7 143/83/7 141/60/7
f 102/139/7 101/142/7 144/78/7 143/83/7
f 101/142/7 100/144/7 142/5/7 144/78/7
