# Blender v2.82 (sub 1) OBJ File: 'Mediatheque - Copie.blend'
# www.blender.org
mtllib Mouse.mtl
o Plane.143_Plane.068
v -0.056790 0.000000 0.129630
v 0.056790 0.000000 0.129630
v -0.056790 0.015929 0.133290
v 0.056790 0.015929 0.133290
v -0.056790 0.000000 -0.006225
v 0.056790 0.000000 -0.006225
v -0.056790 0.000000 -0.043829
v -0.032086 0.000000 -0.069152
v 0.032086 0.000000 -0.069152
v 0.056790 0.000000 -0.043829
v 0.056790 0.032229 -0.051087
v 0.032086 0.024038 -0.074565
v -0.032086 0.024038 -0.074565
v -0.056790 0.032229 -0.051087
v -0.056790 0.046900 0.009004
v -0.056790 0.044588 -0.020843
v -0.056790 0.032397 -0.006225
v 0.056790 0.044588 -0.020843
v 0.056790 0.046900 0.009004
v 0.056790 0.032397 -0.006225
vt 0.500000 0.000000
vt 0.500000 1.000000
vt 1.000000 1.000000
vt 1.000000 0.000000
vt 0.500000 1.000000
vt 0.551706 1.000000
vt 1.000000 1.000000
vt 1.000000 0.000000
vt 0.551705 0.000000
vt 0.201203 0.000000
vt 0.500000 0.000000
vt 0.393049 0.000000
vt 0.171773 0.000000
vt 0.000000 0.211783
vt 0.393049 1.000000
vt 0.171773 1.000000
vt 0.000000 0.788217
vt 0.201203 1.000000
vt 0.000000 0.788217
vt 0.000000 0.211783
vt 0.455045 -0.000000
vt 0.592987 1.000000
vn 0.0000 -1.0000 0.0000
vn 1.0000 -0.0000 -0.0000
vn 0.0000 -0.2240 0.9746
vn 0.0000 0.9703 0.2418
vn -1.0000 0.0000 0.0000
vn 0.0000 0.9329 -0.3602
vn 0.0000 -0.2197 -0.9756
vn -0.7071 -0.1553 -0.6898
vn 0.7071 -0.1553 -0.6898
vn 0.0000 0.9970 -0.0772
usemtl Material.001
s off
f 5/1/1 6/2/1 2/3/1 1/4/1
f 2/3/2 6/2/2 20/5/2 19/6/2 4/7/2
f 1/4/3 2/3/3 4/7/3 3/8/3
f 15/9/4 3/8/4 4/7/4 19/6/4
f 7/10/5 5/1/5 17/11/5 16/12/5 14/13/5
f 13/14/6 14/13/6 16/12/6 18/15/6 11/16/6 12/17/6
f 6/2/2 10/18/2 11/16/2 18/15/2 20/5/2
f 9/19/7 8/20/7 13/14/7 12/17/7
f 7/10/8 14/13/8 13/14/8 8/20/8
f 11/16/9 10/18/9 9/19/9 12/17/9
f 7/10/1 8/20/1 9/19/1 10/18/1 6/2/1 5/1/1
f 15/9/5 16/21/5 17/11/5
f 18/15/2 19/22/2 20/5/2
f 15/9/10 19/6/10 18/15/10 16/12/10
f 5/1/5 1/4/5 3/8/5 15/9/5 17/11/5
