# Blender v2.82 (sub 0) OBJ File: 'Mediatheque - Copie.blend'
# www.blender.org
mtllib PC.mtl
o Cube.038_Cube.003
v -0.106261 0.000000 0.238245
v -0.106261 0.477753 0.238245
v -0.106261 0.000000 -0.238244
v -0.106261 0.477753 -0.238244
v 0.106261 0.000000 0.238245
v 0.106261 0.477753 0.238245
v 0.106261 0.000000 -0.238244
v 0.106261 0.477753 -0.238244
v -0.106261 0.000000 0.204060
v -0.106261 0.477753 0.204060
v 0.106261 0.000000 0.204060
v 0.106261 0.477753 0.204060
v 0.106261 0.503701 0.204060
v 0.106261 0.503701 0.238245
v -0.106261 0.503701 0.238245
v -0.106261 0.503701 0.204060
v -0.106261 0.446330 0.238245
v -0.106261 0.446330 -0.238244
v 0.106261 0.446330 -0.238244
v 0.095425 0.435494 0.238245
v 0.106261 0.446330 0.204060
v -0.106261 0.446330 0.204060
v -0.106261 0.286720 -0.238244
v 0.106261 0.286720 -0.238244
v 0.095425 0.297556 0.238245
v 0.106261 0.286720 0.204060
v -0.106261 0.286720 0.204060
v -0.106261 0.286720 0.238245
v 0.038690 0.000000 -0.238244
v 0.038690 0.477753 -0.238244
v 0.038690 0.000000 0.238245
v 0.038690 0.477753 0.238245
v 0.038690 0.477753 0.204060
v 0.038690 0.000000 0.204060
v 0.038690 0.503701 0.238245
v 0.038690 0.503701 0.204060
v 0.049526 0.435494 0.238245
v 0.038690 0.446330 -0.238244
v 0.038690 0.286720 -0.238244
v 0.049526 0.297556 0.238245
v 0.106261 0.446330 0.238245
v 0.106261 0.286720 0.238245
v 0.038690 0.446330 0.238245
v 0.038690 0.286720 0.238245
v 0.095425 0.435494 0.221482
v 0.095425 0.297556 0.221482
v 0.049526 0.435494 0.221482
v 0.049526 0.297556 0.221482
vt 0.500000 0.125000
vt 0.625000 0.125000
vt 0.625000 0.250000
vt 0.500000 0.250000
vt 0.500000 0.375000
vt 0.625000 0.375000
vt 0.625000 0.500000
vt 0.500000 0.500000
vt 0.500000 0.625000
vt 0.625000 0.625000
vt 0.625000 0.750000
vt 0.500000 0.750000
vt 0.500000 0.875000
vt 0.625000 0.875000
vt 0.625000 1.000000
vt 0.500000 1.000000
vt 0.250000 0.625000
vt 0.375000 0.625000
vt 0.375000 0.750000
vt 0.250000 0.750000
vt 0.625000 0.625000
vt 0.625000 0.750000
vt 0.750000 0.500000
vt 0.875000 0.500000
vt 0.875000 0.625000
vt 0.750000 0.625000
vt 0.250000 0.500000
vt 0.375000 0.500000
vt 0.500000 0.000000
vt 0.625000 0.000000
vt 0.750000 0.625000
vt 0.875000 0.625000
vt 0.875000 0.750000
vt 0.750000 0.750000
vt 0.625000 0.000000
vt 0.625000 0.125000
vt 0.625000 0.875000
vt 0.437500 0.000000
vt 0.437500 0.125000
vt 0.437500 0.500000
vt 0.437500 0.625000
vt 0.437500 0.875000
vt 0.437500 1.000000
vt 0.437500 0.750000
vt 0.437500 0.375000
vt 0.437500 0.250000
vt 0.375000 0.125000
vt 0.375000 0.250000
vt 0.375000 0.375000
vt 0.375000 0.875000
vt 0.375000 1.000000
vt 0.375000 0.000000
vt 0.495639 0.856434
vt 0.441861 0.856434
vt 0.441861 0.856434
vt 0.495639 0.856434
vt 0.625000 1.000000
vt 0.125000 0.500000
vt 0.125000 0.625000
vt 0.125000 0.750000
vt 0.495639 0.768566
vt 0.441861 0.768566
vt 0.441861 0.768566
vt 0.495639 0.768566
vn -1.0000 0.0000 0.0000
vn 0.0000 0.0000 -1.0000
vn 1.0000 0.0000 0.0000
vn 0.0000 0.0000 1.0000
vn 0.0000 -1.0000 0.0000
vn 0.0000 1.0000 0.0000
usemtl Material.001
s off
f 22/1/1 10/2/1 4/3/1 18/4/1
f 38/5/2 30/6/2 8/7/2 19/8/2
f 21/9/3 12/10/3 6/11/3 41/12/3
f 43/13/4 32/14/4 2/15/4 17/16/4
f 34/17/5 11/18/5 5/19/5 31/20/5
f 6/11/3 12/10/3 13/21/3 14/22/3
f 30/23/6 4/24/6 10/25/6 33/26/6
f 29/27/5 7/28/5 11/18/5 34/17/5
f 19/8/3 8/7/3 12/10/3 21/9/3
f 17/29/1 2/30/1 10/2/1 22/1/1
f 36/31/6 16/32/6 15/33/6 35/34/6
f 10/2/1 2/30/1 15/35/1 16/36/1
f 32/14/4 6/11/4 14/22/4 35/37/4
f 33/26/2 10/25/2 16/32/2 36/31/2
f 28/38/1 17/29/1 22/1/1 27/39/1
f 24/40/3 19/8/3 21/9/3 26/41/3
f 44/42/4 43/13/4 17/16/4 28/43/4
f 26/41/3 21/9/3 41/12/3 42/44/3
f 39/45/2 38/5/2 19/8/2 24/40/2
f 27/39/1 22/1/1 18/4/1 23/46/1
f 9/47/1 27/39/1 23/46/1 3/48/1
f 29/49/2 39/45/2 24/40/2 7/28/2
f 11/18/3 26/41/3 42/44/3 5/19/3
f 31/50/4 44/42/4 28/43/4 1/51/4
f 7/28/3 24/40/3 26/41/3 11/18/3
f 1/52/1 28/38/1 27/39/1 9/47/1
f 5/19/4 42/44/4 44/42/4 31/50/4
f 3/48/2 23/46/2 39/45/2 29/49/2
f 23/46/2 18/4/2 38/5/2 39/45/2
f 37/53/3 40/54/3 48/55/3 47/56/3
f 12/10/2 33/26/2 36/31/2 13/21/2
f 2/15/4 32/14/4 35/37/4 15/57/4
f 13/21/6 36/31/6 35/34/6 14/22/6
f 3/58/5 29/27/5 34/17/5 9/59/5
f 8/7/6 30/23/6 33/26/6 12/10/6
f 9/59/5 34/17/5 31/20/5 1/60/5
f 41/12/4 6/11/4 32/14/4 43/13/4
f 18/4/2 4/3/2 30/6/2 38/5/2
f 20/61/4 25/62/4 42/44/4 41/12/4
f 37/53/4 20/61/4 41/12/4 43/13/4
f 25/62/4 40/54/4 44/42/4 42/44/4
f 40/54/4 37/53/4 43/13/4 44/42/4
f 46/63/4 45/64/4 47/56/4 48/55/4
f 20/61/5 37/53/5 47/56/5 45/64/5
f 40/54/6 25/62/6 46/63/6 48/55/6
f 25/62/1 20/61/1 45/64/1 46/63/1
