# Blender v2.82 (sub 1) OBJ File: 'Mediatheque - Copie.blend'
# www.blender.org
mtllib Pillar.mtl
o Plane.131_Plane.035
v -0.564480 0.000000 0.564480
v 0.564480 0.000000 0.564480
v -0.564480 0.000000 -0.564480
v 0.564480 0.000000 -0.564480
v -1.324025 4.200000 -1.324025
v -1.324025 4.200000 1.324025
v 1.324026 4.200000 1.324025
v 1.324026 4.200000 -1.324025
v -0.684357 3.462748 -0.684357
v -0.564480 3.141663 -0.564480
v 0.564480 3.141663 -0.564480
v 0.684357 3.462748 -0.684357
v 0.684357 3.462748 0.684357
v 0.564480 3.141663 0.564480
v -0.564480 3.141663 0.564480
v -0.684357 3.462748 0.684357
v -0.564480 0.000000 -0.564480
v -0.564480 0.000000 -0.564480
v -0.564480 0.000000 0.564480
v -0.564480 0.000000 0.564480
v 0.564480 0.000000 0.564480
v 0.564480 0.000000 0.564480
v 0.564480 0.000000 -0.564480
v 0.564480 0.000000 -0.564480
v -1.324025 4.200000 -1.324025
v -1.324025 4.200000 -1.324025
v -1.324025 4.200000 1.324025
v -1.324025 4.200000 1.324025
v 1.324026 4.200000 1.324025
v 1.324026 4.200000 1.324025
v 1.324026 4.200000 -1.324025
v 1.324026 4.200000 -1.324025
v -0.564480 3.141663 0.564480
v -0.684357 3.462748 0.684357
v -0.684357 3.462748 -0.684357
v -0.564480 3.141663 -0.564480
v 0.564480 3.141663 -0.564480
v 0.684357 3.462748 -0.684357
v 0.684357 3.462748 0.684357
v 0.564480 3.141663 0.564480
vt 0.426259 0.352437
vt 0.426259 0.499919
vt 0.573741 0.499919
vt 0.573741 0.352437
vt 0.327035 0.253213
vt 0.672965 0.253213
vt 0.672965 0.599143
vt 0.327035 0.599143
vt 0.573741 0.062100
vt 0.426259 0.062100
vt 0.426259 0.472513
vt 0.573741 0.472513
vt 0.426259 0.062100
vt 0.573741 0.062100
vt 0.573741 0.472513
vt 0.426259 0.472513
vt 0.410599 0.514458
vt 0.589401 0.514458
vt 0.672965 0.610770
vt 0.327035 0.610770
vt 0.573741 0.062100
vt 0.426259 0.062100
vt 0.426259 0.472513
vt 0.573741 0.472513
vt 0.426259 0.062100
vt 0.573741 0.062100
vt 0.573741 0.472513
vt 0.426259 0.472513
vt 0.410599 0.514458
vt 0.589401 0.514458
vt 0.672965 0.610770
vt 0.327035 0.610770
vt 0.589401 0.514458
vt 0.410599 0.514458
vt 0.327035 0.610770
vt 0.672965 0.610770
vt 0.410599 0.514458
vt 0.589401 0.514458
vt 0.327035 0.610770
vt 0.672965 0.610770
vn 0.0000 -1.0000 0.0000
vn 0.0000 1.0000 0.0000
vn -1.0000 0.0000 0.0000
vn -0.9808 -0.1949 0.0000
vn 0.0000 0.0000 1.0000
vn 0.0000 -0.1949 0.9808
vn 0.0000 -0.5520 0.8338
vn 0.0000 -0.6553 0.7553
vn 0.0000 0.0000 -1.0000
vn 0.0000 -0.1949 -0.9808
vn 1.0000 0.0000 0.0000
vn 0.9808 -0.1949 0.0000
vn 0.8338 -0.5520 0.0000
vn 0.7553 -0.6553 0.0000
vn 0.0000 -0.5520 -0.8338
vn 0.0000 -0.6553 -0.7553
vn -0.8338 -0.5520 0.0000
vn -0.7553 -0.6553 0.0000
usemtl White
s 1
f 19/1/1 17/2/1 23/3/1 21/4/1
f 27/5/2 29/6/2 31/7/2 25/8/2
f 18/9/3 20/10/3 33/11/4 36/12/4
f 1/13/5 22/14/5 14/15/6 15/16/6
f 16/17/7 13/18/7 30/19/8 28/20/8
f 24/21/9 3/22/9 10/23/10 11/24/10
f 2/25/11 4/26/11 37/27/12 40/28/12
f 39/29/13 38/30/13 32/31/14 7/32/14
f 12/33/15 9/34/15 26/35/16 8/36/16
f 34/37/17 35/38/17 36/12/4 33/11/4
f 38/30/13 39/29/13 40/28/12 37/27/12
f 13/18/7 16/17/7 15/16/6 14/15/6
f 9/34/15 12/33/15 11/24/10 10/23/10
f 35/38/17 34/37/17 6/39/18 5/40/18
