# Blender v2.82 (sub 0) OBJ File: 'Mediatheque - Copie.blend'
# www.blender.org
mtllib Screen.mtl
o Cube.039_Cube.004
v -0.414962 0.229179 0.332809
v -0.414962 0.788887 0.332809
v -0.035673 0.437872 0.256140
v -0.035673 0.563314 0.256140
v 0.414958 0.229179 0.332809
v 0.414958 0.788887 0.332809
v 0.035028 0.437872 0.256140
v 0.035028 0.563314 0.256140
v -0.422840 0.796765 0.279252
v -0.422840 0.204421 0.279252
v 0.422835 0.204421 0.279252
v 0.422835 0.796765 0.279252
v -0.035352 0.438277 0.066151
v -0.035352 0.400244 0.133142
v 0.035349 0.400244 0.133142
v 0.035349 0.438277 0.066151
v -0.035288 0.020701 -0.073674
v 0.035413 0.020701 -0.073674
v 0.035262 0.020700 0.048073
v -0.035439 0.020700 0.048073
v -0.422840 0.204421 0.332809
v -0.422840 0.796765 0.332809
v 0.422835 0.796765 0.332809
v 0.422835 0.204421 0.332809
v -0.054166 0.020701 -0.113601
v 0.054161 0.020701 -0.113601
v 0.172042 0.020700 0.078824
v -0.165508 0.020699 0.078824
v 0.093602 0.020699 0.185721
v -0.087068 0.020699 0.185721
v -0.054166 0.000000 -0.113601
v 0.054161 0.000000 -0.113601
v 0.172042 -0.000001 0.078824
v -0.165508 -0.000002 0.078824
v 0.093602 -0.000001 0.185721
v -0.087068 -0.000001 0.185721
v -0.230175 0.680496 0.256140
v -0.259685 0.698468 0.279252
v -0.259685 0.302717 0.279252
v -0.230175 0.320689 0.256140
v 0.259681 0.302717 0.279252
v 0.229530 0.320689 0.256140
v 0.229530 0.680496 0.256140
v 0.259681 0.698468 0.279252
vt 0.375000 0.000000
vt 0.625000 0.000000
vt 0.625000 0.250000
vt 0.375000 0.250000
vt 0.473687 0.430876
vt 0.473687 0.319124
vt 0.473687 0.319124
vt 0.473687 0.430876
vt 0.375000 0.500000
vt 0.625000 0.500000
vt 0.625000 0.750000
vt 0.375000 0.750000
vt 0.378325 0.752329
vt 0.621675 0.752329
vt 0.621675 0.997671
vt 0.378325 0.997671
vt 0.125000 0.500000
vt 0.125000 0.750000
vt 0.875000 0.500000
vt 0.875000 0.750000
vt 0.420211 0.281667
vt 0.420211 0.468333
vt 0.427858 0.462976
vt 0.427858 0.287024
vt 0.526313 0.430876
vt 0.526313 0.319124
vt 0.572142 0.287024
vt 0.572142 0.462976
vt 0.526313 0.319124
vt 0.526313 0.430876
vt 0.526313 0.430876
vt 0.526313 0.319124
vt 0.473687 0.319124
vt 0.473687 0.430876
vt 0.526313 0.319124
vt 0.473687 0.319124
vt 0.625000 1.000000
vt 0.375000 1.000000
vt 0.526313 0.430876
vt 0.473687 0.430876
vt 0.473687 0.319124
vt 0.473687 0.430876
vt 0.526313 0.319124
vt 0.473687 0.319124
vt 0.526313 0.430876
vt 0.473687 0.430876
vt 0.473687 0.430876
vt 0.473687 0.319124
vt 0.579789 0.281667
vt 0.579789 0.468333
vn -1.0000 0.0000 0.0000
vn 0.0000 -0.9563 0.2925
vn 1.0000 0.0000 0.0000
vn 0.0000 0.0000 1.0000
vn 0.0000 -1.0000 0.0000
vn 0.0000 1.0000 0.0000
vn 0.0000 0.0000 -1.0000
vn 0.0000 0.3175 -0.9483
vn 0.0000 0.8353 -0.5498
vn -1.0000 -0.0007 -0.0017
vn 1.0000 0.0007 0.0017
vn -1.0000 0.0002 -0.0008
vn 1.0000 -0.0002 0.0008
vn -0.0000 -0.2187 0.9758
vn -0.8655 0.0000 -0.5008
vn 0.8062 0.0000 0.5916
vn 0.8527 0.0000 -0.5224
vn -0.8062 0.0000 0.5916
vn 0.6084 0.0000 -0.7937
vn 0.0000 0.7894 -0.6139
vn 0.0000 -0.7894 -0.6139
vn -0.6166 0.0000 -0.7873
usemtl Material.001
s off
f 21/1/1 22/2/1 9/3/1 10/4/1
f 7/5/2 3/6/2 14/7/2 15/8/2
f 11/9/3 12/10/3 23/11/3 24/12/3
f 5/13/4 6/14/4 2/15/4 1/16/4
f 10/17/5 11/9/5 24/12/5 21/18/5
f 12/10/6 9/19/6 22/20/6 23/11/6
f 39/21/7 41/22/7 11/9/7 10/4/7
f 3/6/7 7/5/7 42/23/7 40/24/7
f 8/25/7 4/26/7 37/27/7 43/28/7
f 7/5/7 8/25/7 43/28/7 42/23/7
f 13/29/8 16/30/8 18/31/8 17/32/8
f 4/26/9 8/25/9 16/30/9 13/29/9
f 3/6/10 4/26/10 13/29/10 14/7/10
f 8/25/11 7/5/11 15/8/11 16/30/11
f 14/7/12 13/29/12 17/32/12 20/33/12
f 16/30/13 15/8/13 19/34/13 18/31/13
f 15/8/14 14/7/14 20/33/14 19/34/14
f 20/33/6 17/32/6 25/35/6 28/36/6
f 1/16/4 2/15/4 22/37/4 21/38/4
f 6/14/4 5/13/4 24/12/4 23/11/4
f 5/13/4 1/16/4 21/38/4 24/12/4
f 2/15/4 6/14/4 23/11/4 22/37/4
f 17/32/6 18/31/6 26/39/6 25/35/6
f 18/31/6 19/34/6 27/40/6 26/39/6
f 19/34/6 20/33/6 28/36/6 27/40/6
f 27/40/6 28/36/6 30/41/6 29/42/6
f 28/36/15 25/35/15 31/43/15 34/44/15
f 25/35/7 26/39/7 32/45/7 31/43/7
f 27/40/16 29/42/16 35/46/16 33/47/16
f 26/39/17 27/40/17 33/47/17 32/45/17
f 30/41/18 28/36/18 34/44/18 36/48/18
f 29/42/4 30/41/4 36/48/4 35/46/4
f 34/44/5 33/47/5 35/46/5 36/48/5
f 31/43/5 32/45/5 33/47/5 34/44/5
f 38/49/7 39/21/7 10/4/7 9/3/7
f 41/22/7 44/50/7 12/10/7 11/9/7
f 44/50/7 38/49/7 9/3/7 12/10/7
f 44/50/19 41/22/19 42/23/19 43/28/19
f 38/49/20 44/50/20 43/28/20 37/27/20
f 41/22/21 39/21/21 40/24/21 42/23/21
f 39/21/22 38/49/22 37/27/22 40/24/22
f 4/26/7 3/6/7 40/24/7 37/27/7
