# Blender v2.82 (sub 1) OBJ File: 'Mediatheque - Copie.blend'
# www.blender.org
mtllib Sofa.mtl
o Circle.013_Circle.031
v 2.059649 -0.005103 -0.337429
v 1.940147 -0.005103 -0.661891
v 1.746086 -0.005103 -0.960916
v 1.484924 -0.005103 -1.223014
v 1.166697 -0.005103 -1.438113
v 0.803635 -0.005103 -1.597945
v 0.409690 -0.005103 -1.696370
v 0.000000 -0.005103 -1.729603
v -0.409690 -0.005103 -1.696370
v -0.803635 -0.005103 -1.597945
v -1.166698 -0.005103 -1.438113
v -1.484924 -0.005103 -1.223014
v -1.746086 -0.005103 -0.960916
v -1.940147 -0.005103 -0.661890
v -2.059649 -0.005103 -0.337428
v 2.059649 1.508021 -0.337429
v 1.940147 1.508021 -0.661891
v 1.746086 1.508021 -0.960916
v 1.484924 1.508021 -1.223014
v 1.166697 1.508021 -1.438113
v 0.803635 1.508021 -1.597945
v 0.409690 1.508021 -1.696370
v 0.000000 1.508021 -1.729603
v -0.409690 1.508021 -1.696370
v -0.803635 1.508021 -1.597945
v -1.166698 1.508021 -1.438113
v -1.484924 1.508021 -1.223014
v -1.746086 1.508021 -0.960916
v -1.940147 1.508021 -0.661890
v -2.059649 1.508021 -0.337428
v 1.939043 -0.005103 -0.293009
v 1.825226 -0.005103 -0.604340
v 1.646118 -0.005103 -0.880137
v 1.403034 -0.005103 -1.123954
v 1.104567 -0.005103 -1.325602
v 0.762015 -0.005103 -1.476344
v 0.388847 -0.005103 -1.569545
v 0.000000 -0.005103 -1.601077
v -0.388847 -0.005103 -1.569545
v -0.762015 -0.005103 -1.476344
v -1.104567 -0.005103 -1.325602
v -1.403035 -0.005103 -1.123953
v -1.646118 -0.005103 -0.880136
v -1.825226 -0.005103 -0.604340
v -1.939043 -0.005103 -0.293008
v 1.939043 1.508021 -0.293009
v 1.825226 1.508021 -0.604340
v 1.646118 1.508021 -0.880137
v 1.403034 1.508021 -1.123954
v 1.104567 1.508021 -1.325602
v 0.762015 1.508021 -1.476344
v 0.388847 1.508021 -1.569545
v 0.000000 1.508021 -1.601077
v -0.388847 1.508021 -1.569545
v -0.762015 1.508021 -1.476344
v -1.104567 1.508021 -1.325602
v -1.403035 1.508021 -1.123953
v -1.646118 1.508021 -0.880136
v -1.825226 1.508021 -0.604340
v -1.939043 1.508021 -0.293008
v 1.746086 0.597745 -0.960916
v 1.484924 0.597745 -1.223014
v 1.166697 0.597745 -1.438113
v 0.803635 0.597745 -1.597945
v 0.409690 0.597745 -1.696370
v 0.000000 0.597745 -1.729603
v -0.409690 0.597745 -1.696370
v -0.803635 0.597745 -1.597945
v -1.166698 0.597745 -1.438113
v -1.484924 0.597745 -1.223014
v -1.746086 0.597745 -0.960916
v -1.940147 0.597745 -0.661890
v 2.059649 0.597745 -0.337429
v -2.059649 0.597745 -0.337428
v 1.940147 0.597745 -0.661891
v 1.646118 0.597745 -0.880137
v 1.403034 0.597745 -1.123954
v 1.104567 0.597745 -1.325602
v 0.762015 0.597745 -1.476344
v 0.388847 0.597745 -1.569545
v 0.000000 0.597745 -1.601077
v -0.388847 0.597745 -1.569545
v -0.762015 0.597745 -1.476344
v -1.104567 0.597745 -1.325602
v -1.403035 0.597745 -1.123953
v -1.646118 0.597745 -0.880136
v -1.825226 0.597745 -0.604340
v 1.939043 0.597745 -0.293009
v -1.939043 0.597745 -0.293008
v 1.825226 0.597745 -0.604340
v 1.351131 -0.005103 -0.641626
v 1.507080 -0.005103 -0.397730
v 1.161408 -0.005103 -0.831513
v 0.921247 -0.005103 -0.993490
v 0.639215 -0.005103 -1.117423
v 0.327350 -0.005103 -1.195215
v -0.000000 -0.005103 -1.221730
v -0.327350 -0.005103 -1.195215
v -0.639215 -0.005103 -1.117423
v -0.921247 -0.005103 -0.993489
v -1.161409 -0.005103 -0.831513
v -1.351131 -0.005103 -0.641626
v -1.507080 -0.005103 -0.397729
v 1.351131 0.597745 -0.641626
v 1.161408 0.597745 -0.831513
v 0.921247 0.597745 -0.993490
v 0.639215 0.597745 -1.117423
v 0.327350 0.597745 -1.195215
v -0.000000 0.597745 -1.221730
v -0.327350 0.597745 -1.195215
v -0.639215 0.597745 -1.117423
v -0.921247 0.597745 -0.993489
v -1.161409 0.597745 -0.831513
v -1.351131 0.597745 -0.641626
v -1.507080 0.597745 -0.397729
v 1.507079 0.597745 -0.397730
v 1.940147 -0.005103 -0.661891
v 2.059649 -0.005103 -0.337429
v 2.059649 -0.005103 -0.337429
v 1.746086 -0.005103 -0.960916
v 1.484924 -0.005103 -1.223014
v 1.166697 -0.005103 -1.438113
v 0.803635 -0.005103 -1.597945
v 0.409690 -0.005103 -1.696370
v 0.000000 -0.005103 -1.729603
v -0.409690 -0.005103 -1.696370
v -0.803635 -0.005103 -1.597945
v -1.166698 -0.005103 -1.438113
v -1.484924 -0.005103 -1.223014
v -1.746086 -0.005103 -0.960916
v -1.940147 -0.005103 -0.661890
v -2.059649 -0.005103 -0.337428
v -2.059649 -0.005103 -0.337428
v 1.940147 1.508021 -0.661891
v 2.059649 1.508021 -0.337429
v 2.059649 1.508021 -0.337429
v 1.746086 1.508021 -0.960916
v 1.484924 1.508021 -1.223014
v 1.166697 1.508021 -1.438113
v 0.803635 1.508021 -1.597945
v 0.409690 1.508021 -1.696370
v 0.000000 1.508021 -1.729603
v -0.409690 1.508021 -1.696370
v -0.803635 1.508021 -1.597945
v -1.166698 1.508021 -1.438113
v -1.484924 1.508021 -1.223014
v -1.746086 1.508021 -0.960916
v -1.940147 1.508021 -0.661890
v -2.059649 1.508021 -0.337428
v -2.059649 1.508021 -0.337428
v 2.059649 0.597745 -0.337429
v -2.059649 0.597745 -0.337428
v 1.825226 -0.005103 -0.604340
v 1.825226 -0.005103 -0.604340
v 1.939043 -0.005103 -0.293009
v 1.939043 -0.005103 -0.293009
v -1.939043 -0.005103 -0.293008
v -1.939043 -0.005103 -0.293008
v -1.825226 -0.005103 -0.604340
v -1.825226 -0.005103 -0.604340
v 1.825226 1.508021 -0.604340
v 1.939043 1.508021 -0.293009
v 1.939043 1.508021 -0.293009
v 1.646118 1.508021 -0.880137
v 1.403034 1.508021 -1.123954
v 1.104567 1.508021 -1.325602
v 0.762015 1.508021 -1.476344
v 0.388847 1.508021 -1.569545
v 0.000000 1.508021 -1.601077
v -0.388847 1.508021 -1.569545
v -0.762015 1.508021 -1.476344
v -1.104567 1.508021 -1.325602
v -1.403035 1.508021 -1.123953
v -1.646118 1.508021 -0.880136
v -1.825226 1.508021 -0.604340
v -1.939043 1.508021 -0.293008
v -1.939043 1.508021 -0.293008
v 1.507079 0.597745 -0.397730
v 1.507079 0.597745 -0.397730
v 1.825226 0.597745 -0.604340
v 1.825226 0.597745 -0.604340
v 1.939043 0.597745 -0.293009
v -1.939043 0.597745 -0.293008
v 1.507080 -0.005103 -0.397730
v 1.507080 -0.005103 -0.397730
v -1.825226 0.597745 -0.604340
v -1.825226 0.597745 -0.604340
v 1.646118 0.597745 -0.880137
v -1.646118 0.597745 -0.880136
v -1.403035 0.597745 -1.123953
v -1.104567 0.597745 -1.325602
v -0.762015 0.597745 -1.476344
v -0.388847 0.597745 -1.569545
v 0.000000 0.597745 -1.601077
v 0.388847 0.597745 -1.569545
v 0.762015 0.597745 -1.476344
v 1.104567 0.597745 -1.325602
v 1.403034 0.597745 -1.123954
v 1.351131 -0.005103 -0.641626
v 1.161408 -0.005103 -0.831513
v 0.921247 -0.005103 -0.993490
v 0.639215 -0.005103 -1.117423
v 0.327350 -0.005103 -1.195215
v -0.000000 -0.005103 -1.221730
v -0.327350 -0.005103 -1.195215
v -0.639215 -0.005103 -1.117423
v -0.921247 -0.005103 -0.993489
v -1.161409 -0.005103 -0.831513
v -1.351131 -0.005103 -0.641626
v -1.507080 -0.005103 -0.397729
v -1.507080 -0.005103 -0.397729
v -1.507080 0.597745 -0.397729
v -1.507080 0.597745 -0.397729
v 1.351131 0.597745 -0.641626
v -1.351131 0.597745 -0.641626
v -1.161409 0.597745 -0.831513
v -0.921247 0.597745 -0.993489
v -0.639215 0.597745 -1.117423
v -0.327350 0.597745 -1.195215
v -0.000000 0.597745 -1.221730
v 0.327350 0.597745 -1.195215
v 0.639215 0.597745 -1.117423
v 0.921247 0.597745 -0.993490
v 1.161408 0.597745 -0.831513
vt 0.517489 0.501309
vt 0.480964 0.501308
vt 0.480964 0.604258
vt 0.517489 0.604258
vt 0.706930 0.501309
vt 0.662584 0.501309
vt 0.662584 0.604258
vt 0.706930 0.604258
vt 0.611990 0.501309
vt 0.611990 0.604258
vt 0.557092 0.501309
vt 0.557092 0.604258
vt 0.500000 0.501309
vt 0.500000 0.604258
vt 0.442908 0.501309
vt 0.442908 0.604258
vt 0.388010 0.501309
vt 0.388010 0.604258
vt 0.337416 0.501308
vt 0.337416 0.604258
vt 0.293070 0.501309
vt 0.293070 0.604258
vt 0.480964 0.501309
vt 0.517489 0.501309
vt 0.517489 0.604258
vt 0.480964 0.604258
vt 0.559159 0.501309
vt 0.559159 0.604258
vt 0.604374 0.501309
vt 0.604374 0.604258
vt 0.604374 0.501309
vt 0.559159 0.501309
vt 0.559159 0.604258
vt 0.604374 0.604258
vt 0.528746 0.501309
vt 0.528746 0.604258
vt 0.494769 0.604258
vt 0.494769 0.501309
vt 0.695519 0.501309
vt 0.695519 0.604258
vt 0.653926 0.604258
vt 0.653926 0.501309
vt 0.606190 0.604258
vt 0.606190 0.501309
vt 0.554187 0.604258
vt 0.554187 0.501309
vt 0.500000 0.604258
vt 0.500000 0.501309
vt 0.445813 0.604258
vt 0.445813 0.501309
vt 0.393810 0.604258
vt 0.393810 0.501309
vt 0.346074 0.604258
vt 0.346074 0.501309
vt 0.304481 0.604258
vt 0.304481 0.501309
vt 0.494769 0.501309
vt 0.494769 0.604258
vt 0.528746 0.604258
vt 0.528746 0.501309
vt 0.567179 0.604258
vt 0.567179 0.501309
vt 0.610564 0.604258
vt 0.610564 0.501309
vt 0.610564 0.501309
vt 0.610564 0.604258
vt 0.567179 0.604258
vt 0.567179 0.501309
vt 0.415000 0.442908
vt 0.432674 0.445813
vt 0.428280 0.500000
vt 0.410369 0.500000
vt 0.415000 0.442908
vt 0.432674 0.445813
vt 0.445662 0.393810
vt 0.428716 0.388010
vt 0.428716 0.388010
vt 0.445662 0.393810
vt 0.466668 0.346074
vt 0.450989 0.337416
vt 0.450989 0.337416
vt 0.466668 0.346074
vt 0.494769 0.304481
vt 0.480964 0.293070
vt 0.480964 0.293070
vt 0.494769 0.304481
vt 0.528746 0.270607
vt 0.517489 0.256676
vt 0.517489 0.256676
vt 0.528746 0.270607
vt 0.567179 0.245647
vt 0.559159 0.229633
vt 0.559159 0.229633
vt 0.567179 0.245647
vt 0.610564 0.229786
vt 0.604374 0.212980
vt 0.787020 0.501309
vt 0.770213 0.501309
vt 0.770213 0.426673
vt 0.787020 0.426673
vt 0.604374 0.787020
vt 0.610564 0.770213
vt 0.567179 0.754353
vt 0.559159 0.770367
vt 0.604374 0.212980
vt 0.610564 0.229786
vt 0.559159 0.770367
vt 0.567179 0.754353
vt 0.610564 0.770213
vt 0.604374 0.787020
vt 0.212980 0.501309
vt 0.229786 0.501309
vt 0.229786 0.604258
vt 0.212980 0.604258
vt 0.528746 0.729393
vt 0.517489 0.743324
vt 0.517489 0.743324
vt 0.528746 0.729393
vt 0.494769 0.695519
vt 0.480964 0.706930
vt 0.480964 0.706930
vt 0.494769 0.695519
vt 0.466668 0.653926
vt 0.450989 0.662584
vt 0.450989 0.662584
vt 0.466668 0.653926
vt 0.445662 0.606190
vt 0.428716 0.611990
vt 0.428716 0.611990
vt 0.445662 0.606190
vt 0.432674 0.554187
vt 0.415000 0.557092
vt 0.415000 0.557092
vt 0.432674 0.554187
vt 0.428280 0.500000
vt 0.410369 0.500000
vt 0.212980 0.426673
vt 0.229786 0.426673
vt 0.787020 0.604258
vt 0.770213 0.604258
vt 0.245647 0.501309
vt 0.245647 0.426673
vt 0.289982 0.426673
vt 0.289982 0.501309
vt 0.610564 0.426673
vt 0.567179 0.426673
vt 0.567179 0.426673
vt 0.610564 0.426673
vt 0.512950 0.371620
vt 0.535522 0.338153
vt 0.561983 0.688285
vt 0.535522 0.661847
vt 0.428280 0.500000
vt 0.432674 0.445813
vt 0.484838 0.454383
vt 0.481143 0.500000
vt 0.495679 0.410923
vt 0.567179 0.754353
vt 0.528746 0.729393
vt 0.561983 0.688285
vt 0.595971 0.710018
vt 0.595971 0.710018
vt 0.445662 0.393810
vt 0.495679 0.410923
vt 0.484838 0.454383
vt 0.466668 0.346074
vt 0.512950 0.371620
vt 0.481143 0.500000
vt 0.494769 0.695518
vt 0.535522 0.661847
vt 0.559159 0.426673
vt 0.517489 0.426673
vt 0.604374 0.426673
vt 0.559159 0.426673
vt 0.604374 0.426673
vt 0.517489 0.426673
vt 0.480964 0.426673
vt 0.337416 0.426673
vt 0.293070 0.426673
vt 0.388010 0.426673
vt 0.442908 0.426673
vt 0.500000 0.426673
vt 0.557092 0.426673
vt 0.611990 0.426673
vt 0.662584 0.426673
vt 0.706930 0.426673
vt 0.480964 0.426673
vt 0.595971 0.426673
vt 0.595971 0.501309
vt 0.561983 0.501308
vt 0.561983 0.426673
vt 0.561983 0.426673
vt 0.561983 0.501309
vt 0.595971 0.501309
vt 0.595971 0.426673
vt 0.535522 0.426673
vt 0.535522 0.501309
vt 0.371620 0.426673
vt 0.371620 0.501309
vt 0.338153 0.501308
vt 0.338153 0.426673
vt 0.410923 0.426673
vt 0.410923 0.501309
vt 0.454383 0.426673
vt 0.454383 0.501309
vt 0.500000 0.426673
vt 0.500000 0.501309
vt 0.545618 0.426673
vt 0.545618 0.501309
vt 0.589077 0.426673
vt 0.589077 0.501309
vt 0.628379 0.426673
vt 0.628379 0.501309
vt 0.661847 0.426673
vt 0.661847 0.501309
vt 0.535522 0.501309
vt 0.535522 0.426673
vt 0.432674 0.554187
vt 0.484838 0.545618
vt 0.512950 0.628379
vt 0.561983 0.311714
vt 0.445662 0.606190
vt 0.495679 0.589077
vt 0.495679 0.589077
vt 0.528746 0.270607
vt 0.567179 0.245647
vt 0.595971 0.289982
vt 0.561983 0.311714
vt 0.595971 0.289982
vt 0.466668 0.653926
vt 0.512950 0.628380
vt 0.484838 0.545618
vt 0.494769 0.304481
vt 0.535522 0.338153
vt 0.754353 0.426673
vt 0.754353 0.501309
vt 0.710018 0.501309
vt 0.710018 0.426673
vn 0.7778 0.0000 -0.6285
vn 0.6371 0.0000 -0.7707
vn 0.4834 0.0000 -0.8754
vn 0.3238 0.0000 -0.9461
vn 0.1621 0.0000 -0.9868
vn 0.0000 0.0000 -1.0000
vn -0.1621 0.0000 -0.9868
vn -0.3238 0.0000 -0.9461
vn -0.4834 0.0000 -0.8754
vn -0.6371 0.0000 -0.7707
vn -0.7778 0.0000 -0.6285
vn -0.8941 0.0000 -0.4478
vn -0.9384 0.0000 -0.3456
vn 0.9384 0.0000 -0.3456
vn 0.8941 0.0000 -0.4478
vn -0.7776 0.0000 0.6287
vn -0.6369 0.0000 0.7709
vn -0.4832 0.0000 0.8755
vn -0.3237 0.0000 0.9461
vn -0.1621 0.0000 0.9868
vn 0.0000 0.0000 1.0000
vn 0.1621 0.0000 0.9868
vn 0.3237 0.0000 0.9461
vn 0.4832 0.0000 0.8755
vn 0.6369 0.0000 0.7709
vn 0.7776 0.0000 0.6287
vn 0.8946 0.0000 0.4468
vn 0.9108 0.0000 0.4128
vn 0.9392 0.0000 0.3433
vn -0.9392 0.0000 0.3433
vn -0.8946 0.0000 0.4468
vn -0.9108 0.0000 0.4128
vn 0.0000 1.0000 0.0000
vn 0.0000 -1.0000 0.0000
vn 0.3456 0.0000 0.9384
vn -0.3456 0.0000 0.9384
vn -0.5446 0.0000 0.8386
vn -0.8425 0.0000 0.5387
vn -0.7795 0.0000 0.6264
vn 0.7795 0.0000 0.6264
vn 0.8425 0.0000 0.5387
vn 0.6362 0.0000 0.7715
vn 0.4827 0.0000 0.8758
vn 0.3233 0.0000 0.9463
vn 0.1619 0.0000 0.9868
vn -0.1619 0.0000 0.9868
vn -0.3233 0.0000 0.9463
vn -0.4827 0.0000 0.8758
vn -0.6362 0.0000 0.7715
vn 0.5446 0.0000 0.8386
usemtl Material.012
s 1
f 61/1/1 62/2/2 138/3/2 137/4/1
f 62/5/2 63/6/3 139/7/3 138/8/2
f 63/6/3 64/9/4 140/10/4 139/7/3
f 64/9/4 65/11/5 141/12/5 140/10/4
f 65/11/5 66/13/6 142/14/6 141/12/5
f 66/13/6 67/15/7 143/16/7 142/14/6
f 67/15/7 68/17/8 144/18/8 143/16/7
f 68/17/8 69/19/9 145/20/9 144/18/8
f 69/19/9 70/21/10 146/22/10 145/20/9
f 70/23/10 71/24/11 147/25/11 146/26/10
f 71/24/11 72/27/12 148/28/12 147/25/11
f 72/27/12 152/29/13 149/30/13 148/28/12
f 151/31/14 75/32/15 134/33/15 135/34/14
f 75/32/15 61/1/1 137/4/1 134/33/15
f 188/35/16 164/36/16 165/37/17 198/38/17
f 198/39/17 165/40/17 166/41/18 197/42/18
f 197/42/18 166/41/18 167/43/19 196/44/19
f 196/44/19 167/43/19 168/45/20 195/46/20
f 195/46/20 168/45/20 169/47/21 194/48/21
f 194/48/21 169/47/21 170/49/22 193/50/22
f 193/50/22 170/49/22 171/51/23 192/52/23
f 192/52/23 171/51/23 172/53/24 191/54/24
f 191/54/24 172/53/24 173/55/25 190/56/25
f 190/57/25 173/58/25 174/59/26 189/60/26
f 189/60/26 174/59/26 175/61/27 186/62/28
f 186/62/28 175/61/27 176/63/29 183/64/29
f 182/65/30 162/66/30 161/67/31 181/68/32
f 181/68/32 161/67/31 164/36/16 188/35/16
f 24/69/33 54/70/33 53/71/33 23/72/33
f 126/73/34 39/74/34 40/75/34 127/76/34
f 25/77/33 55/78/33 54/70/33 24/69/33
f 127/76/34 40/75/34 41/79/34 128/80/34
f 26/81/33 56/82/33 55/78/33 25/77/33
f 128/80/34 41/79/34 42/83/34 129/84/34
f 27/85/33 57/86/33 56/82/33 26/81/33
f 129/84/34 42/83/34 43/87/34 130/88/34
f 28/89/33 58/90/33 57/86/33 27/85/33
f 130/88/34 43/87/34 159/91/34 131/92/34
f 29/93/33 59/94/33 58/90/33 28/89/33
f 131/92/34 159/91/34 157/95/34 132/96/34
f 73/97/35 88/98/35 156/99/35 119/100/35
f 118/101/34 155/102/34 153/103/34 117/104/34
f 150/105/33 177/106/33 59/94/33 29/93/33
f 17/107/33 47/108/33 163/109/33 136/110/33
f 74/111/36 89/112/36 60/113/36 30/114/36
f 117/104/34 153/103/34 33/115/34 120/116/34
f 18/117/33 48/118/33 47/108/33 17/107/33
f 120/116/34 33/115/34 34/119/34 121/120/34
f 19/121/33 49/122/33 48/118/33 18/117/33
f 121/120/34 34/119/34 35/123/34 122/124/34
f 20/125/33 50/126/33 49/122/33 19/121/33
f 122/124/34 35/123/34 36/127/34 123/128/34
f 21/129/33 51/130/33 50/126/33 20/125/33
f 123/128/34 36/127/34 37/131/34 124/132/34
f 22/133/33 52/134/33 51/130/33 21/129/33
f 124/132/34 37/131/34 38/135/34 125/136/34
f 23/72/33 53/71/33 52/134/33 22/133/33
f 125/136/34 38/135/34 39/74/34 126/73/34
f 133/137/36 158/138/36 89/112/36 74/111/36
f 16/139/35 46/140/35 88/98/35 73/97/35
f 187/141/37 160/142/37 211/143/37 212/144/37
f 31/145/30 182/65/30 181/68/32 154/146/30
f 44/147/29 186/62/28 183/64/29 45/148/29
f 42/83/34 41/79/34 207/149/34 208/150/34
f 34/119/34 33/115/34 199/151/34 200/152/34
f 81/153/33 82/154/33 219/155/33 109/156/33
f 41/79/34 40/75/34 206/157/34 207/149/34
f 180/158/33 76/159/33 214/160/33 178/161/33
f 33/115/34 153/103/34 184/162/34 199/151/34
f 82/154/33 83/163/33 218/164/33 219/155/33
f 40/75/34 39/74/34 205/165/34 206/157/34
f 83/163/33 84/166/33 217/167/33 218/164/33
f 39/74/34 38/135/34 204/168/34 205/165/34
f 76/159/33 77/169/33 224/170/33 214/160/33
f 2/171/15 3/172/1 61/1/1 75/32/15
f 1/173/14 2/171/15 75/32/15 151/31/14
f 14/174/12 15/175/13 152/29/13 72/27/12
f 13/176/11 14/174/12 72/27/12 71/24/11
f 12/177/10 13/176/11 71/24/11 70/23/10
f 11/178/9 12/179/10 70/21/10 69/19/9
f 10/180/8 11/178/9 69/19/9 68/17/8
f 9/181/7 10/180/8 68/17/8 67/15/7
f 8/182/6 9/181/7 67/15/7 66/13/6
f 7/183/5 8/182/6 66/13/6 65/11/5
f 6/184/4 7/183/5 65/11/5 64/9/4
f 5/185/3 6/184/4 64/9/4 63/6/3
f 4/186/2 5/185/3 63/6/3 62/5/2
f 3/172/1 4/187/2 62/2/2 61/1/1
f 185/188/38 179/189/38 104/190/39 91/191/39
f 209/192/40 215/193/40 213/194/41 210/195/41
f 101/196/42 216/197/42 215/193/40 209/192/40
f 100/198/43 112/199/43 216/200/42 101/201/42
f 99/202/44 111/203/44 112/199/43 100/198/43
f 98/204/45 110/205/45 111/203/44 99/202/44
f 97/206/21 220/207/21 110/205/45 98/204/45
f 203/208/46 221/209/46 220/207/21 97/206/21
f 202/210/47 222/211/47 221/209/46 203/208/46
f 201/212/48 223/213/48 222/211/47 202/210/47
f 93/214/49 105/215/49 223/213/48 201/212/48
f 91/191/39 104/190/39 105/216/49 93/217/49
f 80/218/33 81/153/33 109/156/33 108/219/33
f 35/123/34 34/119/34 200/152/34 94/220/34
f 43/87/34 42/83/34 208/150/34 102/221/34
f 79/222/33 80/218/33 108/219/33 107/223/33
f 36/127/34 35/123/34 94/220/34 95/224/34
f 86/225/33 87/226/33 115/227/33 114/228/33
f 159/91/34 43/87/34 102/221/34 103/229/34
f 78/230/33 79/222/33 107/223/33 106/231/33
f 37/131/34 36/127/34 95/224/34 96/232/34
f 85/233/33 86/225/33 114/228/33 113/234/33
f 32/235/50 90/236/50 116/237/50 92/238/50
f 77/169/33 78/230/33 106/231/33 224/170/33
f 38/135/34 37/131/34 96/232/34 204/168/34
f 84/166/33 85/233/33 113/234/33 217/167/33
