# Blender v2.82 (sub 1) OBJ File: 'Mediatheque - Copie.blend'
# www.blender.org
mtllib SofaSolo.mtl
o Cube.040_Cube.012
v 0.071915 0.412045 -0.433879
v 0.370075 0.412045 -0.158560
v 0.212955 0.412045 -0.396994
v 0.322089 0.412045 -0.296220
v -0.322089 0.412045 -0.296220
v -0.212955 0.412045 -0.396994
v 0.460882 0.461019 0.412319
v -0.460882 0.461019 0.412319
v 0.077670 0.461019 -0.478629
v 0.234613 0.461019 -0.436573
v 0.359821 0.461019 -0.320957
v -0.234613 0.461019 -0.436573
v -0.077670 0.461019 -0.478629
v -0.071915 0.412045 -0.433879
v -0.359821 0.461019 -0.320957
v -0.414225 0.461019 -0.167856
v -0.370074 0.412045 -0.158561
v 0.089006 1.220096 -0.698034
v 0.263565 1.220096 -0.652382
v 0.290370 1.220096 -0.701369
v -0.263564 1.220096 -0.652382
v -0.089006 1.220096 -0.698034
v 0.096129 1.220096 -0.753419
v -0.290370 1.220096 -0.701369
v -0.096128 1.220096 -0.753419
v 0.454024 0.715155 0.397550
v 0.474713 0.882519 0.232941
v 0.465226 0.793784 0.371437
v 0.472799 0.855044 0.311186
v -0.474713 0.882519 0.232941
v -0.454024 0.715155 0.397550
v -0.472799 0.855044 0.311186
v -0.465226 0.793784 0.371436
v 0.527329 0.882368 0.228730
v 0.503121 0.715155 0.393633
v 0.524567 0.854968 0.307049
v 0.515706 0.793764 0.367407
v -0.503121 0.715155 0.393633
v -0.527330 0.882368 0.228730
v -0.515707 0.793764 0.367407
v -0.524567 0.854968 0.307049
v 0.468723 0.917810 -0.159526
v 0.449562 0.985604 -0.303063
v 0.381263 0.514416 -0.168558
v -0.449562 0.985604 -0.303063
v -0.468723 0.917810 -0.159526
v -0.381263 0.514416 -0.168559
v 0.503733 0.983502 -0.316316
v 0.523909 0.917888 -0.170905
v 0.414225 0.461019 -0.167856
v -0.523909 0.917888 -0.170905
v -0.503733 0.983502 -0.316316
v 0.391132 1.182227 -0.491389
v 0.343726 1.220096 -0.566425
v 0.326219 0.515265 -0.312759
v 0.388135 1.220096 -0.596978
v 0.436613 1.183623 -0.520976
v 0.420138 1.170220 -0.542683
v -0.343726 1.220096 -0.566425
v -0.391132 1.182227 -0.491389
v -0.436613 1.183623 -0.520976
v -0.388135 1.220096 -0.596978
v -0.420138 1.170220 -0.542683
v 0.426854 0.502762 0.411998
v 0.378336 0.454271 0.415907
v 0.415907 0.412045 0.415907
v -0.378336 0.454271 0.415907
v -0.426854 0.502762 0.411998
v -0.415907 0.412045 0.415907
v 0.314932 0.461019 -0.146951
v 0.073126 0.514819 -0.452601
v 0.064728 0.461019 -0.377989
v 0.273910 0.461019 -0.264633
v 0.185300 0.461019 -0.346455
v 0.216547 0.514897 -0.415120
v -0.064727 0.461019 -0.377989
v -0.073126 0.514819 -0.452601
v -0.314932 0.461019 -0.146951
v -0.216547 0.514897 -0.415120
v -0.185300 0.461019 -0.346456
v -0.326218 0.515265 -0.312759
v -0.273910 0.461019 -0.264634
v 0.417123 -0.022706 0.363144
v 0.377990 -0.023130 0.385662
v 0.377490 -0.025245 0.431196
v 0.417158 -0.026789 0.454747
v 0.457205 -0.026438 0.431460
v 0.456565 -0.024454 0.385519
v 0.296517 0.425859 0.200694
v 0.256470 0.425507 0.223981
v 0.257109 0.423524 0.269922
v 0.296551 0.421775 0.292297
v 0.335685 0.422199 0.269779
v 0.336184 0.424314 0.224245
v 0.370163 -0.031044 -0.519912
v 0.329960 -0.026669 -0.493756
v 0.330913 -0.019440 -0.447937
v 0.369775 -0.018769 -0.425422
v 0.409405 -0.025422 -0.447752
v 0.412089 -0.030697 -0.495384
v 0.255225 0.417839 -0.270340
v 0.215596 0.424491 -0.248009
v 0.212911 0.429767 -0.200377
v 0.254838 0.430114 -0.175849
v 0.295041 0.425738 -0.202006
v 0.294088 0.418510 -0.247825
v -0.417123 -0.022706 0.363144
v -0.377990 -0.023130 0.385662
v -0.377490 -0.025245 0.431196
v -0.417158 -0.026789 0.454747
v -0.457205 -0.026438 0.431460
v -0.456565 -0.024454 0.385519
v -0.296517 0.425859 0.200694
v -0.256470 0.425507 0.223981
v -0.257109 0.423524 0.269922
v -0.296551 0.421775 0.292297
v -0.335685 0.422199 0.269779
v -0.336184 0.424314 0.224245
v -0.370163 -0.031044 -0.519912
v -0.329960 -0.026669 -0.493756
v -0.330913 -0.019440 -0.447937
v -0.369775 -0.018769 -0.425422
v -0.409405 -0.025422 -0.447752
v -0.412089 -0.030697 -0.495384
v -0.255225 0.417839 -0.270340
v -0.215596 0.424491 -0.248009
v -0.212911 0.429767 -0.200377
v -0.254838 0.430114 -0.175849
v -0.295041 0.425738 -0.202006
v -0.294088 0.418510 -0.247825
v 0.089006 1.220096 -0.698034
v 0.263565 1.220096 -0.652382
v -0.263564 1.220096 -0.652382
v -0.089006 1.220096 -0.698034
v 0.096129 1.220096 -0.753419
v 0.290370 1.220096 -0.701369
v -0.290370 1.220096 -0.701369
v -0.096128 1.220096 -0.753419
v -0.472799 0.855044 0.311186
v -0.474713 0.882519 0.232941
v -0.527330 0.882368 0.228730
v -0.524567 0.854968 0.307049
v -0.465226 0.793784 0.371436
v -0.515707 0.793764 0.367407
v -0.454024 0.715155 0.397550
v -0.503121 0.715155 0.393633
v 0.465226 0.793784 0.371437
v 0.454024 0.715155 0.397550
v 0.503121 0.715155 0.393633
v 0.515706 0.793764 0.367407
v 0.472799 0.855044 0.311186
v 0.524567 0.854968 0.307049
v 0.474713 0.882519 0.232941
v 0.527329 0.882368 0.228730
v 0.460882 0.461019 0.412319
v -0.460882 0.461019 0.412319
v 0.468723 0.917810 -0.159526
v 0.449562 0.985604 -0.303063
v -0.449562 0.985604 -0.303063
v -0.468723 0.917810 -0.159526
v 0.503733 0.983502 -0.316316
v 0.523909 0.917888 -0.170905
v -0.523909 0.917888 -0.170905
v -0.503733 0.983502 -0.316316
v 0.391132 1.182227 -0.491389
v 0.343726 1.220096 -0.566425
v 0.388135 1.220096 -0.596978
v 0.436613 1.183623 -0.520976
v -0.343726 1.220096 -0.566425
v -0.391132 1.182227 -0.491389
v -0.436613 1.183623 -0.520976
v -0.388135 1.220096 -0.596978
v 0.426854 0.502762 0.411998
v 0.378336 0.454271 0.415907
v -0.378336 0.454271 0.415907
v -0.426854 0.502762 0.411998
v 0.415907 0.412045 0.415907
v -0.415907 0.412045 0.415907
v 0.409405 -0.025422 -0.447752
v 0.295041 0.425738 -0.202006
v 0.215596 0.424491 -0.248009
v 0.329960 -0.026669 -0.493756
v -0.409405 -0.025422 -0.447752
v -0.295041 0.425738 -0.202006
v -0.215596 0.424491 -0.248009
v -0.329960 -0.026669 -0.493756
vt 0.641851 0.500000
vt 0.858149 0.500000
vt 0.856069 0.665891
vt 0.844876 0.700527
vt 0.815277 0.724702
vt 0.772222 0.734470
vt 0.722083 0.739145
vt 0.663921 0.747659
vt 0.645070 0.706394
vt 0.641446 0.666870
vt 0.625000 0.250000
vt 0.625000 0.250000
vt 0.625000 0.250000
vt 0.625000 0.250000
vt 0.625000 0.669004
vt 0.625000 0.500000
vt 0.625000 0.500000
vt 0.625000 0.501880
vt 0.625000 0.519841
vt 0.625000 0.540603
vt 0.625000 0.646236
vt 0.625000 0.500000
vt 0.625000 0.500000
vt 0.625000 0.500000
vt 0.625000 0.500000
vt 0.625000 0.951468
vt 0.625000 0.900823
vt 0.625000 0.900823
vt 0.625000 0.951468
vt 0.125000 0.500000
vt 0.375000 0.500000
vt 0.375000 0.669003
vt 0.370825 0.710077
vt 0.358721 0.778737
vt 0.275824 0.750000
vt 0.224176 0.750000
vt 0.173838 0.739148
vt 0.137524 0.709502
vt 0.125000 0.669004
vt 0.374698 0.848827
vt 0.625000 0.849177
vt 0.375000 0.900806
vt 0.375000 0.081061
vt 0.625000 0.080996
vt 0.625000 0.250000
vt 0.375000 0.250000
vt 0.375000 0.951362
vt 0.625000 1.000000
vt 0.375000 0.996885
vt 0.375000 0.042353
vt 0.625000 0.039635
vt 0.641279 0.778737
vt 0.629175 0.710077
vt 0.625000 0.849177
vt 0.629175 0.710077
vt 0.641279 0.778737
vt 0.641279 0.778737
vt 0.632937 0.731418
vt 0.826162 0.739148
vt 0.851189 0.718716
vt 0.852654 0.717520
vt 0.826162 0.739148
vt 0.625821 0.677086
vt 0.628658 0.704991
vt 0.629175 0.710077
vt 0.632937 0.731418
vt 0.641279 0.778737
vt 0.641279 0.778737
vt 0.632449 0.728647
vt 0.375000 0.250000
vt 0.625000 0.266851
vt 0.625000 0.483149
vt 0.375000 0.500000
vt 0.625851 0.677378
vt 0.628638 0.704797
vt 0.628658 0.704991
vt 0.625821 0.677086
vt 0.864086 0.704295
vt 0.872446 0.677261
vt 0.872536 0.676972
vt 0.864027 0.704487
vt 0.875000 0.669003
vt 0.875000 0.500000
vt 0.875000 0.500000
vt 0.875000 0.505699
vt 0.875000 0.520735
vt 0.875000 0.541052
vt 0.875000 0.646003
vt 0.724177 0.750000
vt 0.775824 0.750000
vt 0.775824 0.750000
vt 0.724177 0.750000
vt 0.625000 0.541052
vt 0.625000 0.646003
vt 0.625000 0.646236
vt 0.625000 0.540603
vt 0.625000 0.500000
vt 0.625000 0.669004
vt 0.625000 0.646003
vt 0.625000 0.541052
vt 0.625000 0.520057
vt 0.625000 0.501900
vt 0.625000 0.500000
vt 0.625000 0.986874
vt 0.625000 1.000000
vt 0.632449 0.728647
vt 0.641279 0.778737
vt 0.826162 0.739148
vt 0.862476 0.709502
vt 0.851189 0.718716
vt 0.826162 0.739148
vt 0.724177 0.750000
vt 0.775823 0.750000
vt 0.775824 0.750000
vt 0.724177 0.750000
vt 0.872446 0.677261
vt 0.864086 0.704295
vt 0.628638 0.704797
vt 0.625851 0.677378
vt 0.625000 0.103765
vt 0.625000 0.209397
vt 0.625000 0.229487
vt 0.625000 0.244359
vt 0.625000 0.250000
vt 0.625000 0.039635
vt 0.625000 0.044757
vt 0.625000 0.072858
vt 0.625000 0.519841
vt 0.625000 0.520057
vt 0.625000 0.501880
vt 0.625000 0.501900
vt 0.625000 0.250000
vt 0.625000 0.250000
vt 0.625000 0.250000
vt 0.625000 0.250000
vt 0.875000 0.519890
vt 0.875000 0.516549
vt 0.875000 0.537902
vt 0.875000 0.541052
vt 0.875000 0.646003
vt 0.875000 0.645757
vt 0.875000 0.686872
vt 0.624363 0.662739
vt 0.872536 0.676972
vt 0.875000 0.669003
vt 0.880150 0.652350
vt 0.625000 0.687069
vt 0.861370 0.713079
vt 0.852654 0.717520
vt 0.862476 0.709502
vt 0.862476 0.709502
vt 0.626958 0.697503
vt 0.629556 0.713827
vt 0.875000 0.500000
vt 0.875000 0.501308
vt 0.875000 0.499951
vt 0.875000 0.500000
vt 0.641851 0.500000
vt 0.625000 0.500953
vt 0.624369 0.499561
vt 0.000000 0.000000
vt 0.000000 0.000000
vt 0.000000 0.000000
vt 0.000000 0.000000
vt 0.000000 0.000000
vt 0.000000 0.000000
vt 0.000000 0.000000
vt 0.000000 0.000000
vt 0.000000 0.000000
vt 0.000000 0.000000
vt 0.000000 0.000000
vt 0.000000 0.000000
vt 0.000000 0.000000
vt 0.000000 0.000000
vt 0.000000 0.000000
vt 0.000000 0.000000
vt 0.000000 0.000000
vt 0.000000 0.000000
vt 0.000000 0.000000
vt 0.000000 0.000000
vt 0.000000 0.000000
vt 0.000000 0.000000
vt 0.000000 0.000000
vt 0.000000 0.000000
vt 0.000000 0.000000
vt 0.000000 0.000000
vt 0.000000 0.000000
vt 0.000000 0.000000
vt 0.000000 0.000000
vt 0.000000 0.000000
vt 0.000000 0.000000
vt 0.000000 0.000000
vt 0.000000 0.000000
vt 0.000000 0.000000
vt 0.000000 0.000000
vt 0.000000 0.000000
vt 0.000000 0.000000
vt 0.000000 0.000000
vt 0.000000 0.000000
vt 0.000000 0.000000
vt 0.000000 0.000000
vt 0.000000 0.000000
vt 0.000000 0.000000
vt 0.000000 0.000000
vt 0.000000 0.000000
vt 0.000000 0.000000
vt 0.000000 0.000000
vt 0.000000 0.000000
vt 0.000000 0.000000
vt 0.000000 0.000000
vt 0.000000 0.000000
vt 0.000000 0.000000
vt 0.000000 0.000000
vt 0.000000 0.000000
vt 0.000000 0.000000
vt 0.000000 0.000000
vn 0.3627 0.9308 0.0461
vn -0.3627 0.9308 0.0461
vn -0.3511 0.9325 0.0852
vn -0.3047 0.9315 0.1984
vn -0.1718 0.9359 0.3074
vn -0.0422 0.9432 0.3295
vn 0.0422 0.9432 0.3295
vn 0.1718 0.9359 0.3074
vn 0.3047 0.9315 0.1984
vn 0.3511 0.9325 0.0852
vn 0.0604 0.0515 0.9968
vn 0.0511 0.0454 0.9977
vn 0.0752 0.1971 0.9775
vn 0.0749 0.1721 0.9822
vn -0.8654 -0.4580 -0.2029
vn -0.8855 -0.4609 -0.0585
vn -0.9775 -0.2036 -0.0538
vn -0.9630 -0.2186 -0.1571
vn -0.0511 0.0454 0.9977
vn -0.0604 0.0515 0.9968
vn -0.0749 0.1721 0.9822
vn -0.0752 0.1971 0.9775
vn 0.4357 -0.4956 -0.7513
vn 0.1127 -0.5110 -0.8522
vn 0.1211 -0.3405 -0.9324
vn 0.4597 -0.3189 -0.8288
vn 0.4116 -0.9108 -0.0330
vn -0.4116 -0.9108 -0.0330
vn -0.4195 -0.9033 -0.0893
vn -0.3758 -0.8930 -0.2476
vn -0.2169 -0.8930 -0.3943
vn -0.0556 -0.9031 -0.4258
vn 0.0556 -0.9031 -0.4258
vn 0.2169 -0.8930 -0.3943
vn 0.3758 -0.8930 -0.2476
vn 0.4195 -0.9033 -0.0893
vn -0.1127 -0.5110 -0.8522
vn 0.8654 -0.4580 -0.2029
vn 0.8855 -0.4609 -0.0585
vn 0.7322 -0.4665 -0.4962
vn -0.4357 -0.4956 -0.7513
vn -0.7322 -0.4665 -0.4962
vn -0.1211 -0.3405 -0.9324
vn 0.6987 0.5299 0.4806
vn 0.4114 0.5663 0.7141
vn 0.4578 0.3081 0.8339
vn 0.7081 0.2582 0.6572
vn 0.0000 1.0000 0.0000
vn 0.1002 0.9820 0.1603
vn 0.1078 0.9791 0.1725
vn -0.8935 -0.2347 -0.3827
vn -0.8575 -0.1917 -0.4773
vn -0.7884 -0.2082 -0.5789
vn -0.1002 0.9820 0.1603
vn -0.1078 0.9791 0.1725
vn 0.0256 0.0242 0.9994
vn 0.0167 0.0158 0.9997
vn -0.0167 0.0158 0.9997
vn -0.0256 0.0242 0.9994
vn -0.1960 0.8262 0.5282
vn -0.2482 0.8290 0.5011
vn -0.2426 0.8443 0.4778
vn -0.1962 0.8260 0.5284
vn 0.2482 0.8290 0.5011
vn 0.1960 0.8262 0.5282
vn 0.1962 0.8260 0.5284
vn 0.2426 0.8443 0.4778
vn -0.8395 0.5030 0.2053
vn -0.8614 0.5031 0.0692
vn -0.9825 0.1776 0.0556
vn -0.9698 0.1920 0.1503
vn -0.0216 0.9757 0.2180
vn -0.0579 0.9695 0.2380
vn -0.0656 0.9623 0.2639
vn -0.0208 0.9786 0.2047
vn 0.8614 0.5031 0.0692
vn 0.8395 0.5030 0.2053
vn 0.9698 0.1920 0.1503
vn 0.9825 0.1776 0.0556
vn 0.6952 -0.2598 -0.6702
vn 0.7884 -0.2082 -0.5789
vn -0.6952 -0.2598 -0.6702
vn -0.4597 -0.3189 -0.8288
vn -0.4114 0.5663 0.7141
vn -0.6987 0.5299 0.4806
vn -0.7081 0.2582 0.6572
vn -0.4578 0.3081 0.8339
vn 0.1039 0.5872 0.8027
vn -0.1039 0.5872 0.8027
vn -0.1189 0.3287 0.9369
vn 0.1189 0.3287 0.9369
vn -0.9000 0.2169 0.3781
vn -0.7906 0.2330 0.5663
vn 0.7906 0.2330 0.5663
vn 0.9000 0.2169 0.3781
vn 0.9630 -0.2186 -0.1571
vn 0.9775 -0.2036 -0.0538
vn 0.8575 -0.1916 -0.4773
vn 0.8935 -0.2347 -0.3827
vn -0.0430 0.8528 0.5205
vn -0.0454 0.8324 0.5523
vn -0.0676 0.5355 0.8418
vn -0.0695 0.4948 0.8662
vn 0.0676 0.5355 0.8418
vn 0.0695 0.4948 0.8662
vn 0.0430 0.8528 0.5205
vn 0.0454 0.8324 0.5523
vn 0.0208 0.9786 0.2047
vn 0.0216 0.9757 0.2180
vn 0.0579 0.9695 0.2380
vn 0.0656 0.9623 0.2639
vn 0.9240 0.1176 -0.3637
vn 0.7828 -0.0137 -0.6221
vn 0.8309 0.3731 0.4128
vn 0.7669 0.3907 0.5090
vn 0.0700 0.3557 0.9319
vn -0.0903 0.3168 0.9442
vn -0.9240 -0.1176 0.3637
vn -0.7828 0.0137 0.6221
vn -0.8309 -0.3731 -0.4128
vn -0.7669 -0.3907 -0.5090
vn -0.0700 -0.3557 -0.9319
vn 0.0903 -0.3168 -0.9442
vn 0.7031 0.4748 -0.5293
vn 0.8407 0.4118 -0.3515
vn 0.9659 0.2584 -0.0167
vn 0.0828 -0.4658 0.8810
vn -0.0775 -0.4980 0.8637
vn -0.7031 -0.4748 0.5293
vn -0.8407 -0.4118 0.3515
vn -0.4540 0.3380 -0.8244
vn -0.0828 0.4658 -0.8810
vn 0.0775 0.4980 -0.8637
vn 0.4540 -0.3380 0.8244
vn -0.9659 -0.2584 0.0167
vn -0.9240 0.1176 -0.3637
vn -0.7669 0.3907 0.5090
vn -0.8309 0.3731 0.4128
vn -0.7828 -0.0137 -0.6221
vn -0.0700 0.3557 0.9319
vn 0.7828 0.0137 0.6221
vn 0.9240 -0.1176 0.3637
vn 0.0903 0.3168 0.9442
vn 0.8309 -0.3731 -0.4128
vn -0.0903 -0.3168 -0.9442
vn 0.0700 -0.3557 -0.9319
vn 0.7669 -0.3907 -0.5090
vn -0.7031 0.4748 -0.5293
vn -0.9659 0.2584 -0.0167
vn -0.8407 0.4118 -0.3515
vn -0.0828 -0.4658 0.8810
vn 0.8407 -0.4118 0.3515
vn 0.7031 -0.4748 0.5293
vn 0.0775 -0.4980 0.8637
vn 0.4540 0.3380 -0.8244
vn -0.0775 0.4980 -0.8637
vn 0.0828 0.4658 -0.8810
vn -0.4540 -0.3380 0.8244
vn 0.9659 -0.2584 0.0167
usemtl Material.018
s 1
f 67/1/1 65/2/2 70/3/3 73/4/4 74/5/5 72/6/6 76/7/7 80/8/8 82/9/9 78/10/10
f 173/11/11 155/12/12 149/13/13 26/14/14
f 16/15/15 156/16/16 146/17/17 144/18/17 142/19/17 39/20/17 163/21/18
f 8/22/19 176/23/20 31/24/21 38/25/22
f 10/26/23 9/27/24 135/28/25 20/29/26
f 66/30/27 69/31/28 17/32/29 5/33/30 6/34/31 14/35/32 1/36/33 3/37/34 4/38/35 2/39/36
f 14/40/32 13/41/37 9/27/24 1/42/33
f 2/43/36 50/44/38 7/45/39 66/46/27
f 69/31/28 156/16/16 16/15/15 17/32/29
f 1/42/33 9/27/24 10/26/23 3/47/34
f 3/47/34 10/26/23 11/48/40 4/49/35
f 4/50/35 11/51/40 50/44/38 2/43/36
f 13/41/37 14/40/32 6/34/31 12/52/41
f 12/52/41 6/34/31 5/33/30 15/53/42
f 15/53/42 5/33/30 17/32/29 16/15/15
f 9/27/24 13/41/37 25/54/43 135/28/25
f 81/55/44 79/56/45 21/57/46 169/58/47
f 132/59/48 54/60/49 56/61/50 136/62/48
f 15/53/42 16/15/15 164/63/51 171/64/52 63/65/53
f 59/66/54 133/67/48 24/68/48 62/69/55
f 177/70/56 174/71/57 175/72/58 178/73/59
f 45/74/60 60/75/61 61/76/62 52/77/63
f 53/78/64 43/79/65 48/80/66 57/81/67
f 44/82/68 64/83/69 148/84/70 147/85/70 151/86/70 153/87/70 157/88/71
f 134/89/48 131/90/48 23/91/48 138/92/48
f 131/90/48 132/59/48 136/62/48 23/91/48
f 30/93/72 46/94/73 51/95/74 141/96/75
f 133/67/48 134/89/48 138/92/48 24/68/48
f 68/97/76 47/98/77 160/99/78 140/100/79 139/101/79 143/102/79 145/103/79
f 11/48/40 10/26/23 20/29/26 167/104/80 58/105/81
f 12/52/41 15/53/42 63/65/53 172/106/82 137/107/83
f 13/41/37 12/52/41 137/107/83 25/54/43
f 75/108/84 55/109/85 166/110/86 19/111/87
f 77/112/88 71/113/89 18/114/90 22/115/91
f 55/109/85 44/82/68 158/116/92 165/117/93
f 47/98/77 81/55/44 170/118/94 159/119/95
f 7/45/39 50/44/38 162/120/96 154/121/97 152/122/97 150/123/97 35/124/97
f 50/44/38 11/51/40 58/125/81 168/126/98 161/127/99
f 30/93/72 141/96/75 41/128/100 32/129/101
f 32/129/101 41/128/100 40/130/102 33/131/103
f 33/131/103 40/130/102 38/25/22 31/24/21
f 26/14/14 149/13/13 37/132/104 28/133/105
f 28/133/105 37/132/104 36/134/106 29/135/107
f 29/136/107 36/137/106 34/138/108 27/139/109
f 42/140/110 27/139/109 34/138/108 49/141/111
f 157/88/71 158/142/92 44/82/68
f 159/119/95 160/143/78 47/98/77
f 161/144/99 162/145/96 50/146/38
f 163/21/18 164/147/51 16/15/15
f 42/140/110 49/141/111 48/80/66 43/79/65
f 51/95/74 46/94/73 45/74/60 52/77/63
f 79/56/45 77/112/88 22/115/91 21/57/46
f 165/117/93 166/148/86 55/109/85
f 167/149/80 168/150/98 58/151/81
f 169/58/47 170/152/94 81/55/44
f 171/64/52 172/153/82 63/65/53
f 53/78/64 57/81/67 56/61/50 54/60/49
f 61/76/62 60/75/61 59/66/54 62/69/55
f 71/113/89 75/108/84 19/111/87 18/114/90
f 173/154/11 174/155/57 177/156/56 155/157/12
f 175/158/58 176/159/20 8/22/19 178/160/59
f 72/6/6 74/5/5 75/108/84 71/113/89
f 74/5/5 73/4/4 55/109/85 75/108/84
f 73/4/4 70/3/3 44/82/68 55/109/85
f 80/8/8 76/7/7 77/112/88 79/56/45
f 82/9/9 80/8/8 79/56/45 81/55/44
f 78/10/10 82/9/9 81/55/44 47/98/77
f 70/3/3 65/2/2 64/83/69 44/82/68
f 76/7/7 72/6/6 71/113/89 77/112/88
f 47/98/77 68/97/76 67/1/1 78/10/10
usemtl Material.019
f 88/161/112 94/162/113 93/163/114 87/164/115
f 86/165/116 92/166/117 91/167/118 85/168/119
f 84/169/120 90/170/121 89/171/122 83/172/123
f 83/172/123 89/171/122 94/162/113 88/161/112
f 87/164/115 93/163/114 92/166/117 86/165/116
f 85/168/119 91/167/118 90/170/121 84/169/120
f 100/173/124 106/174/125 105/175/126 99/176/126
f 98/177/127 104/178/128 103/179/129 97/180/130
f 182/181/131 181/182/131 101/183/132 95/184/133
f 95/184/133 101/183/132 106/174/125 100/173/124
f 179/185/134 180/186/134 104/178/128 98/177/127
f 97/180/130 103/179/129 102/187/135 96/188/135
f 112/189/136 111/190/137 117/191/138 118/192/139
f 110/193/140 109/194/141 115/195/142 116/196/143
f 108/197/144 107/198/145 113/199/146 114/200/147
f 107/198/145 112/189/136 118/192/139 113/199/146
f 111/190/137 110/193/140 116/196/143 117/191/138
f 109/194/141 108/197/144 114/200/147 115/195/142
f 124/201/148 123/202/149 129/203/149 130/204/150
f 122/205/151 121/206/152 127/207/153 128/208/154
f 186/209/155 119/210/156 125/211/157 185/212/155
f 119/210/156 124/201/148 130/204/150 125/211/157
f 183/213/158 122/205/151 128/208/154 184/214/158
f 121/206/152 120/215/159 126/216/159 127/207/153
