# Blender v2.82 (sub 1) OBJ File: 'Mediatheque - Copie.blend'
# www.blender.org
mtllib TableEntrance.mtl
o Circle.022_Circle.015
v 2.247940 0.000000 4.347844
v 2.566872 0.000000 4.042154
v 2.861084 0.000000 3.697536
v 3.127741 0.000000 3.317309
v 3.364277 0.000000 2.905135
v 3.568413 0.000000 2.464983
v 3.738183 0.000000 2.001093
v 3.871953 0.000000 1.517930
v 3.968433 0.000000 1.020149
v 4.026696 0.000000 0.512544
v 4.046179 0.000000 0.000002
v 4.026696 0.000000 -0.512539
v 3.968434 0.000000 -1.020144
v 3.871953 0.000000 -1.517925
v 3.738184 0.000000 -2.001088
v 3.568414 0.000000 -2.464979
v 3.364279 0.000000 -2.905131
v 1.341076 0.000000 3.296254
v 1.557269 0.000000 3.089038
v 1.763629 0.000000 2.847322
v 1.956317 0.000000 2.572569
v 2.131609 0.000000 2.267115
v 2.286077 0.000000 1.934055
v 2.416708 0.000000 1.577112
v 2.520975 0.000000 1.200507
v 2.596889 0.000000 0.808842
v 2.643013 0.000000 0.406990
v 2.658484 0.000000 0.000002
v 2.643013 0.000000 -0.406986
v 2.596889 0.000000 -0.808838
v 2.520976 0.000000 -1.200503
v 2.416708 0.000000 -1.577108
v 2.286078 0.000000 -1.934052
v 2.131610 0.000000 -2.267111
v 1.557269 1.033882 3.089038
v 1.341076 1.033882 3.296254
v 1.763629 1.033882 2.847322
v 1.956317 1.033882 2.572569
v 2.131609 1.033882 2.267115
v 2.286077 1.033882 1.934055
v 2.416708 1.033882 1.577112
v 2.520975 1.033882 1.200507
v 2.596889 1.033882 0.808842
v 2.643013 1.033882 0.406990
v 2.658484 1.033882 0.000002
v 2.643013 1.033882 -0.406986
v 2.596889 1.033882 -0.808838
v 2.520976 1.033882 -1.200503
v 2.416708 1.033882 -1.577108
v 2.286078 1.033882 -1.934052
v 2.131610 1.033882 -2.267111
v 2.566872 1.033882 4.042154
v 2.247940 1.033882 4.347844
v 2.861084 1.033882 3.697536
v 3.127741 1.033882 3.317309
v 3.364277 1.033882 2.905135
v 3.568413 1.033882 2.464983
v 3.738183 1.033882 2.001093
v 3.871953 1.033882 1.517930
v 3.968433 1.033882 1.020149
v 4.026696 1.033882 0.512544
v 4.046179 1.033882 0.000002
v 4.026696 1.033882 -0.512539
v 3.968434 1.033882 -1.020144
v 3.871953 1.033882 -1.517925
v 3.738184 1.033882 -2.001088
v 3.568414 1.033882 -2.464979
v 3.364279 1.033882 -2.905131
v 1.942479 0.000000 3.993634
v 2.226805 0.000000 3.721113
v 2.491425 0.000000 3.411156
v 2.733167 0.000000 3.066456
v 2.949074 0.000000 2.690229
v 3.136480 0.000000 2.286149
v 3.293067 0.000000 1.858282
v 3.416899 0.000000 1.411011
v 3.506452 0.000000 0.948974
v 3.560626 0.000000 0.476990
v 3.578758 0.000000 0.000002
v 3.560626 0.000000 -0.476985
v 3.506452 0.000000 -0.948969
v 3.416899 0.000000 -1.411007
v 3.293068 0.000000 -1.858278
v 3.136481 0.000000 -2.286145
v 2.949076 0.000000 -2.690225
v 1.942479 1.033882 3.993634
v 2.226805 1.033882 3.721113
v 2.491425 1.033882 3.411156
v 2.733167 1.033882 3.066456
v 2.949074 1.033882 2.690229
v 3.136480 1.033882 2.286149
v 3.293067 1.033882 1.858282
v 3.416899 1.033882 1.411011
v 3.506452 1.033882 0.948974
v 3.560626 1.033882 0.476990
v 3.578758 1.033882 0.000002
v 3.560626 1.033882 -0.476985
v 3.506452 1.033882 -0.948969
v 3.416899 1.033882 -1.411007
v 3.293068 1.033882 -1.858278
v 3.136481 1.033882 -2.286145
v 2.949076 1.033882 -2.690225
v 2.566872 1.392823 4.042154
v 2.247940 1.392823 4.347844
v 2.861084 1.392823 3.697536
v 3.127741 1.392823 3.317309
v 3.364277 1.392823 2.905135
v 3.568413 1.392823 2.464983
v 3.738183 1.392823 2.001093
v 3.871953 1.392823 1.517930
v 3.968433 1.392823 1.020149
v 4.026696 1.392823 0.512544
v 4.046179 1.392823 0.000002
v 4.026696 1.392823 -0.512539
v 3.968434 1.392823 -1.020144
v 3.871953 1.392823 -1.517925
v 3.738184 1.392823 -2.001088
v 3.568414 1.392823 -2.464979
v 3.364279 1.392823 -2.905131
v 1.942479 1.392823 3.993634
v 2.226805 1.392823 3.721113
v 2.491425 1.392823 3.411156
v 2.733167 1.392823 3.066456
v 2.949074 1.392823 2.690229
v 3.136480 1.392823 2.286149
v 3.293067 1.392823 1.858282
v 3.416899 1.392823 1.411011
v 3.506452 1.392823 0.948974
v 3.560626 1.392823 0.476990
v 3.578758 1.392823 0.000002
v 3.560626 1.392823 -0.476985
v 3.506452 1.392823 -0.948969
v 3.416899 1.392823 -1.411007
v 3.293068 1.392823 -1.858278
v 3.136481 1.392823 -2.286145
v 2.949076 1.392823 -2.690225
v 1.557269 0.000000 3.089038
v 1.341076 0.000000 3.296254
v 1.341076 0.000000 3.296254
v 1.763629 0.000000 2.847322
v 1.956317 0.000000 2.572569
v 2.131609 0.000000 2.267115
v 2.286077 0.000000 1.934055
v 2.416708 0.000000 1.577112
v 2.520975 0.000000 1.200507
v 2.596889 0.000000 0.808842
v 2.643013 0.000000 0.406990
v 2.658484 0.000000 0.000002
v 2.643013 0.000000 -0.406986
v 2.596889 0.000000 -0.808838
v 2.520976 0.000000 -1.200503
v 2.416708 0.000000 -1.577108
v 2.286078 0.000000 -1.934052
v 2.131610 0.000000 -2.267111
v 2.131610 0.000000 -2.267111
v 2.566872 0.000000 4.042154
v 2.247940 0.000000 4.347844
v 2.247940 0.000000 4.347844
v 2.861084 0.000000 3.697536
v 3.127741 0.000000 3.317309
v 3.364277 0.000000 2.905135
v 3.568413 0.000000 2.464983
v 3.738183 0.000000 2.001093
v 3.871953 0.000000 1.517930
v 3.968433 0.000000 1.020149
v 4.026696 0.000000 0.512544
v 4.046179 0.000000 0.000002
v 4.026696 0.000000 -0.512539
v 3.968434 0.000000 -1.020144
v 3.871953 0.000000 -1.517925
v 3.738184 0.000000 -2.001088
v 3.568414 0.000000 -2.464979
v 3.364279 0.000000 -2.905131
v 3.364279 0.000000 -2.905131
v 1.942479 0.000000 3.993634
v 2.949076 0.000000 -2.690225
v 1.557269 1.033882 3.089038
v 1.341076 1.033882 3.296254
v 1.341076 1.033882 3.296254
v 1.763629 1.033882 2.847322
v 1.956317 1.033882 2.572569
v 2.131609 1.033882 2.267115
v 2.286077 1.033882 1.934055
v 2.416708 1.033882 1.577112
v 2.520975 1.033882 1.200507
v 2.596889 1.033882 0.808842
v 2.643013 1.033882 0.406990
v 2.658484 1.033882 0.000002
v 2.643013 1.033882 -0.406986
v 2.596889 1.033882 -0.808838
v 2.520976 1.033882 -1.200503
v 2.416708 1.033882 -1.577108
v 2.286078 1.033882 -1.934052
v 2.131610 1.033882 -2.267111
v 2.131610 1.033882 -2.267111
v 1.942479 1.033882 3.993634
v 1.942479 1.033882 3.993634
v 2.949076 1.033882 -2.690225
v 2.949076 1.033882 -2.690225
v 2.247940 1.033882 4.347844
v 3.364279 1.033882 -2.905131
v 1.942479 1.392823 3.993634
v 1.942479 1.392823 3.993634
v 2.949076 1.392823 -2.690225
v 2.949076 1.392823 -2.690225
v 3.136481 1.033882 -2.286145
v 3.293068 1.033882 -1.858278
v 3.416899 1.033882 -1.411007
v 3.506452 1.033882 -0.948969
v 3.560626 1.033882 -0.476985
v 3.578758 1.033882 0.000002
v 3.560626 1.033882 0.476990
v 3.506452 1.033882 0.948974
v 3.416899 1.033882 1.411011
v 3.293067 1.033882 1.858282
v 3.136480 1.033882 2.286149
v 2.949074 1.033882 2.690229
v 2.733167 1.033882 3.066456
v 2.491425 1.033882 3.411156
v 2.226805 1.033882 3.721113
v 2.566872 1.392823 4.042154
v 2.247940 1.392823 4.347844
v 2.247940 1.392823 4.347844
v 2.861084 1.392823 3.697536
v 3.127741 1.392823 3.317309
v 3.364277 1.392823 2.905135
v 3.568413 1.392823 2.464983
v 3.738183 1.392823 2.001093
v 3.871953 1.392823 1.517930
v 3.968433 1.392823 1.020149
v 4.026696 1.392823 0.512544
v 4.046179 1.392823 0.000002
v 4.026696 1.392823 -0.512539
v 3.968434 1.392823 -1.020144
v 3.871953 1.392823 -1.517925
v 3.738184 1.392823 -2.001088
v 3.568414 1.392823 -2.464979
v 3.364279 1.392823 -2.905131
v 3.364279 1.392823 -2.905131
v 3.136481 1.392823 -2.286145
v 3.293068 1.392823 -1.858278
v 3.416899 1.392823 -1.411007
v 3.506452 1.392823 -0.948969
v 3.560626 1.392823 -0.476985
v 3.578758 1.392823 0.000002
v 3.560626 1.392823 0.476990
v 3.506452 1.392823 0.948974
v 3.416899 1.392823 1.411011
v 3.293067 1.392823 1.858282
v 3.136480 1.392823 2.286149
v 2.949074 1.392823 2.690229
v 2.733167 1.392823 3.066456
v 2.491425 1.392823 3.411156
v 2.226805 1.392823 3.721113
vt 0.384894 0.101334
vt 0.431781 0.057071
vt 0.387808 0.014924
vt 0.345693 0.063760
vt 0.421379 0.144069
vt 0.472345 0.104585
vt 0.454709 0.191595
vt 0.509111 0.157008
vt 0.484477 0.243467
vt 0.541723 0.213837
vt 0.510315 0.299179
vt 0.569868 0.274522
vt 0.531905 0.358171
vt 0.593275 0.338481
vt 0.548978 0.419838
vt 0.611718 0.405097
vt 0.561325 0.483541
vt 0.625021 0.473728
vt 0.568794 0.548616
vt 0.633053 0.543714
vt 0.571294 0.614380
vt 0.635740 0.614380
vt 0.568794 0.680145
vt 0.633053 0.685047
vt 0.561325 0.745219
vt 0.625021 0.755032
vt 0.548978 0.808922
vt 0.611718 0.823664
vt 0.531905 0.870590
vt 0.593275 0.890279
vt 0.510315 0.929582
vt 0.569868 0.954238
vt 0.484477 0.985294
vt 0.541723 1.014924
vt 0.387808 0.541001
vt 0.431781 0.541001
vt 0.431781 0.590490
vt 0.387808 0.590490
vt 0.745219 0.541001
vt 0.680145 0.541001
vt 0.680145 0.590490
vt 0.745219 0.590490
vt 0.823664 0.541001
vt 0.890279 0.541001
vt 0.890279 0.590490
vt 0.823664 0.590490
vt 0.808922 0.541001
vt 0.808922 0.590490
vt 0.755032 0.541001
vt 0.755032 0.590490
vt 0.870590 0.541001
vt 0.870590 0.590490
vt 0.685047 0.541001
vt 0.685047 0.590490
vt 0.384894 0.541001
vt 0.345693 0.541001
vt 0.345693 0.590490
vt 0.384894 0.590490
vt 0.929582 0.541001
vt 0.929582 0.590490
vt 0.614380 0.541001
vt 0.614380 0.590490
vt 0.144069 0.541001
vt 0.101334 0.541001
vt 0.101334 0.590490
vt 0.144069 0.590490
vt 0.985294 0.541001
vt 0.985294 0.590490
vt 0.543714 0.541001
vt 0.543714 0.590490
vt 0.191595 0.541001
vt 0.191595 0.590490
vt 0.473728 0.541001
vt 0.473728 0.590490
vt 0.243467 0.541001
vt 0.243467 0.590490
vt 0.881037 0.398455
vt 0.831823 0.398455
vt 0.831823 0.541001
vt 0.881037 0.541001
vt 0.221807 0.398455
vt 0.188481 0.398455
vt 0.188481 0.541001
vt 0.221807 0.541001
vt 0.755032 0.398455
vt 0.823664 0.398455
vt 0.926957 0.398455
vt 0.926957 0.541001
vt 0.259689 0.398455
vt 0.259689 0.541001
vt 0.890279 0.398455
vt 0.387808 0.398455
vt 0.431781 0.398455
vt 0.301803 0.398455
vt 0.301803 0.541001
vt 0.954238 0.398455
vt 0.954238 0.541001
vt 0.057071 0.398455
vt 0.104585 0.398455
vt 0.104585 0.541001
vt 0.057071 0.541001
vt 0.347724 0.398455
vt 0.347724 0.541001
vt 1.014924 0.398455
vt 1.014924 0.541001
vt 0.157008 0.398455
vt 0.157008 0.541001
vt 0.396937 0.398455
vt 0.396937 0.541001
vt 0.063760 0.398455
vt 0.014924 0.398455
vt 0.014924 0.541001
vt 0.063760 0.541001
vt 0.213837 0.398455
vt 0.213837 0.541001
vt 0.448861 0.398455
vt 0.448861 0.541001
vt 0.274522 0.398455
vt 0.274522 0.541001
vt 0.502862 0.398455
vt 0.502862 0.541001
vt 0.338481 0.398455
vt 0.338481 0.541001
vt 0.484477 0.398455
vt 0.371770 0.398455
vt 0.371770 0.541001
vt 0.484477 0.541001
vt 0.558267 0.398455
vt 0.558267 0.541001
vt 0.405097 0.398455
vt 0.405097 0.541001
vt 0.614380 0.398455
vt 0.614380 0.541001
vt 0.473728 0.398455
vt 0.670493 0.398455
vt 0.670493 0.541001
vt 0.543714 0.398455
vt 0.725899 0.398455
vt 0.725899 0.541001
vt 0.614380 0.398455
vt 0.779899 0.398455
vt 0.779899 0.541001
vt 0.685047 0.398455
vt 0.292583 0.398455
vt 0.262775 0.398455
vt 0.262775 0.541001
vt 0.292583 0.541001
vt 0.541723 0.398455
vt 0.541723 0.541001
vt 0.159911 0.398455
vt 0.159911 0.541001
vt 0.371770 0.926957
vt 0.393067 0.881037
vt 0.510315 0.929582
vt 0.484477 0.985294
vt 0.411077 0.831823
vt 0.531905 0.870590
vt 0.425453 0.779899
vt 0.548978 0.808922
vt 0.435920 0.725899
vt 0.561325 0.745219
vt 0.442279 0.670493
vt 0.568794 0.680145
vt 0.444412 0.614380
vt 0.571294 0.614380
vt 0.442279 0.558267
vt 0.568794 0.548616
vt 0.435919 0.502862
vt 0.561325 0.483541
vt 0.425453 0.448861
vt 0.548978 0.419838
vt 0.411077 0.396937
vt 0.531905 0.358171
vt 0.393067 0.347724
vt 0.510315 0.299179
vt 0.371769 0.301803
vt 0.484477 0.243467
vt 0.347601 0.259689
vt 0.454709 0.191595
vt 0.321034 0.221807
vt 0.421379 0.144069
vt 0.292583 0.188481
vt 0.384894 0.101334
vt 0.262775 0.159911
vt 0.345693 0.063760
vt 0.371770 0.926957
vt 0.393067 0.881037
vt 0.411077 0.831823
vt 0.425453 0.779899
vt 0.435920 0.725899
vt 0.442279 0.670493
vt 0.444412 0.614380
vt 0.442279 0.558267
vt 0.435919 0.502862
vt 0.425453 0.448861
vt 0.411077 0.396937
vt 0.393067 0.347724
vt 0.371769 0.301803
vt 0.347601 0.259689
vt 0.321034 0.221807
vt 0.292583 0.188481
vt 0.262775 0.159911
vt 0.384894 0.101334
vt 0.345693 0.063760
vt 0.387808 0.014924
vt 0.431781 0.057071
vt 0.421379 0.144069
vt 0.472345 0.104585
vt 0.454709 0.191595
vt 0.509111 0.157008
vt 0.484477 0.243467
vt 0.541723 0.213837
vt 0.510315 0.299179
vt 0.569868 0.274522
vt 0.531905 0.358171
vt 0.593275 0.338481
vt 0.548978 0.419838
vt 0.611718 0.405097
vt 0.561325 0.483541
vt 0.625021 0.473728
vt 0.568794 0.548616
vt 0.633053 0.543714
vt 0.571294 0.614380
vt 0.635740 0.614380
vt 0.568794 0.680145
vt 0.633053 0.685047
vt 0.561325 0.745219
vt 0.625021 0.755032
vt 0.548978 0.808922
vt 0.611718 0.823664
vt 0.531905 0.870590
vt 0.593275 0.890279
vt 0.510315 0.929582
vt 0.569868 0.954238
vt 0.484477 0.985294
vt 0.541723 1.014924
vt 0.954238 0.590490
vt 0.614380 0.541001
vt 0.614380 0.590490
vt 0.104585 0.590490
vt 0.057071 0.590490
vt 1.014924 0.590490
vt 0.548616 0.541001
vt 0.548616 0.590490
vt 0.157008 0.590490
vt 0.483541 0.541001
vt 0.483541 0.590490
vt 0.213837 0.590490
vt 0.014924 0.590490
vt 0.063760 0.590490
vt 0.419838 0.541001
vt 0.419838 0.590490
vt 0.274522 0.590490
vt 0.358171 0.541001
vt 0.358171 0.590490
vt 0.338481 0.590490
vt 0.299179 0.541001
vt 0.299179 0.590490
vt 0.405097 0.590490
vt 0.484477 0.590490
vt 0.541723 0.590490
vn 0.0000 -1.0000 0.0000
vn 0.6919 0.0000 0.7219
vn 0.7271 0.0000 0.6865
vn -0.9883 0.0000 0.1523
vn -0.9971 0.0000 0.0761
vn 0.9735 0.0000 -0.2287
vn 0.9522 0.0000 -0.3055
vn -0.9735 0.0000 0.2287
vn 0.9883 0.0000 -0.1523
vn -0.9522 0.0000 0.3055
vn 0.9971 0.0000 -0.0761
vn -0.7271 0.0000 -0.6865
vn -0.6919 0.0000 -0.7219
vn -0.9239 0.0000 0.3825
vn 1.0000 0.0000 0.0000
vn -0.7905 0.0000 -0.6124
vn -0.9072 0.0000 0.4207
vn 0.9971 0.0000 0.0761
vn -0.8439 0.0000 -0.5365
vn 0.9883 0.0000 0.1523
vn -0.8881 0.0000 -0.4596
vn 0.9239 0.0000 -0.3825
vn 0.7905 0.0000 0.6124
vn -0.9239 0.0000 -0.3825
vn 0.9072 0.0000 -0.4207
vn 0.8439 0.0000 0.5365
vn -0.9522 0.0000 -0.3055
vn -0.7573 0.0000 0.6531
vn 0.8881 0.0000 0.4596
vn -0.9735 0.0000 -0.2287
vn 0.9239 0.0000 0.3825
vn -0.9883 0.0000 -0.1523
vn 0.9522 0.0000 0.3055
vn -0.4596 0.0000 -0.8881
vn -0.9971 0.0000 -0.0761
vn 0.9735 0.0000 0.2287
vn -1.0000 0.0000 0.0000
vn 0.0000 1.0000 0.0000
usemtl None
s 1
f 70/1/1 156/2/1 157/3/1 69/4/1
f 71/5/1 159/6/1 156/2/1 70/1/1
f 72/7/1 160/8/1 159/6/1 71/5/1
f 73/9/1 161/10/1 160/8/1 72/7/1
f 74/11/1 162/12/1 161/10/1 73/9/1
f 75/13/1 163/14/1 162/12/1 74/11/1
f 76/15/1 164/16/1 163/14/1 75/13/1
f 77/17/1 165/18/1 164/16/1 76/15/1
f 78/19/1 166/20/1 165/18/1 77/17/1
f 79/21/1 167/22/1 166/20/1 78/19/1
f 80/23/1 168/24/1 167/22/1 79/21/1
f 81/25/1 169/26/1 168/24/1 80/23/1
f 82/27/1 170/28/1 169/26/1 81/25/1
f 83/29/1 171/30/1 170/28/1 82/27/1
f 84/31/1 172/32/1 171/30/1 83/29/1
f 85/33/1 173/34/1 172/32/1 84/31/1
f 200/35/2 52/36/3 221/37/3 222/38/2
f 98/39/4 97/40/5 131/41/5 132/42/4
f 65/43/6 66/44/7 236/45/7 235/46/6
f 99/47/8 98/39/4 132/42/4 242/48/8
f 64/49/9 65/43/6 235/46/6 234/50/9
f 100/51/10 99/47/8 242/48/8 241/52/10
f 63/53/11 64/49/9 234/50/9 233/54/11
f 87/55/12 197/56/13 202/57/13 254/58/12
f 101/59/14 100/51/10 241/52/10 240/60/14
f 62/61/15 63/53/11 233/54/11 232/62/15
f 88/63/16 87/64/12 254/65/12 253/66/16
f 199/67/17 101/59/14 240/60/14 204/68/17
f 61/69/18 62/61/15 232/62/15 231/70/18
f 89/71/19 88/63/16 253/66/16 252/72/19
f 60/73/20 61/69/18 231/70/18 230/74/20
f 90/75/21 89/71/19 252/72/19 251/76/21
f 153/77/14 152/78/10 192/79/10 193/80/14
f 140/81/16 137/82/12 177/83/12 180/84/16
f 13/85/9 14/86/6 65/43/6 64/49/9
f 154/87/17 153/77/14 193/80/14 194/88/17
f 141/89/19 140/81/16 180/84/16 181/90/19
f 14/86/6 15/91/7 66/44/7 65/43/6
f 158/92/2 2/93/3 52/36/3 200/35/2
f 142/94/21 141/89/19 181/90/19 182/95/21
f 15/91/7 16/96/22 67/97/22 66/44/7
f 2/98/3 3/99/23 54/100/23 52/101/3
f 143/102/24 142/94/21 182/95/21 183/103/24
f 16/96/22 174/104/25 201/105/25 67/97/22
f 3/99/23 4/106/26 55/107/26 54/100/23
f 144/108/27 143/102/24 183/103/24 184/109/27
f 175/110/28 1/111/28 53/112/28 196/113/28
f 4/106/26 5/114/29 56/115/29 55/107/26
f 145/116/30 144/108/27 184/109/27 185/117/30
f 5/114/29 6/118/31 57/119/31 56/115/29
f 146/120/32 145/116/30 185/117/30 186/121/32
f 6/118/31 7/122/33 58/123/33 57/119/31
f 176/124/34 155/125/34 195/126/34 198/127/34
f 147/128/35 146/120/32 186/121/32 187/129/35
f 7/122/33 8/130/36 59/131/36 58/123/33
f 148/132/37 147/128/35 187/129/35 188/133/37
f 8/130/36 9/134/20 60/73/20 59/131/36
f 149/135/5 148/132/37 188/133/37 189/136/5
f 9/134/20 10/137/18 61/69/18 60/73/20
f 150/138/4 149/135/5 189/136/5 190/139/4
f 10/137/18 11/140/15 62/61/15 61/69/18
f 151/141/8 150/138/4 190/139/4 191/142/8
f 11/140/15 12/143/11 63/53/11 62/61/15
f 152/78/10 151/141/8 191/142/8 192/79/10
f 137/144/12 138/145/13 178/146/13 177/147/12
f 12/143/11 13/85/9 64/49/9 63/53/11
f 17/148/34 176/124/34 198/127/34 68/149/34
f 139/150/28 175/110/28 196/113/28 179/151/28
f 51/152/38 50/153/38 206/154/38 102/155/38
f 50/153/38 49/156/38 207/157/38 206/154/38
f 49/156/38 48/158/38 208/159/38 207/157/38
f 48/158/38 47/160/38 209/161/38 208/159/38
f 47/160/38 46/162/38 210/163/38 209/161/38
f 46/162/38 45/164/38 211/165/38 210/163/38
f 45/164/38 44/166/38 212/167/38 211/165/38
f 44/166/38 43/168/38 213/169/38 212/167/38
f 43/168/38 42/170/38 214/171/38 213/169/38
f 42/170/38 41/172/38 215/173/38 214/171/38
f 41/172/38 40/174/38 216/175/38 215/173/38
f 40/174/38 39/176/38 217/177/38 216/175/38
f 39/176/38 38/178/38 218/179/38 217/177/38
f 38/178/38 37/180/38 219/181/38 218/179/38
f 37/180/38 35/182/38 220/183/38 219/181/38
f 35/182/38 36/184/38 86/185/38 220/183/38
f 34/186/1 85/33/1 84/31/1 33/187/1
f 33/187/1 84/31/1 83/29/1 32/188/1
f 32/188/1 83/29/1 82/27/1 31/189/1
f 31/189/1 82/27/1 81/25/1 30/190/1
f 30/190/1 81/25/1 80/23/1 29/191/1
f 29/191/1 80/23/1 79/21/1 28/192/1
f 28/192/1 79/21/1 78/19/1 27/193/1
f 27/193/1 78/19/1 77/17/1 26/194/1
f 26/194/1 77/17/1 76/15/1 25/195/1
f 25/195/1 76/15/1 75/13/1 24/196/1
f 24/196/1 75/13/1 74/11/1 23/197/1
f 23/197/1 74/11/1 73/9/1 22/198/1
f 22/198/1 73/9/1 72/7/1 21/199/1
f 21/199/1 72/7/1 71/5/1 20/200/1
f 20/200/1 71/5/1 70/1/1 19/201/1
f 19/201/1 70/1/1 69/4/1 18/202/1
f 121/203/38 203/204/38 223/205/38 103/206/38
f 122/207/38 121/203/38 103/206/38 224/208/38
f 123/209/38 122/207/38 224/208/38 225/210/38
f 124/211/38 123/209/38 225/210/38 226/212/38
f 250/213/38 124/211/38 226/212/38 227/214/38
f 249/215/38 250/213/38 227/214/38 228/216/38
f 248/217/38 249/215/38 228/216/38 229/218/38
f 247/219/38 248/217/38 229/218/38 111/220/38
f 246/221/38 247/219/38 111/220/38 112/222/38
f 245/223/38 246/221/38 112/222/38 113/224/38
f 244/225/38 245/223/38 113/224/38 114/226/38
f 243/227/38 244/225/38 114/226/38 115/228/38
f 133/229/38 243/227/38 115/228/38 116/230/38
f 134/231/38 133/229/38 116/230/38 117/232/38
f 135/233/38 134/231/38 117/232/38 237/234/38
f 205/235/38 135/233/38 237/234/38 238/236/38
f 66/44/7 67/97/22 118/237/22 236/45/7
f 97/40/5 96/238/37 130/239/37 131/41/5
f 52/101/3 54/100/23 105/240/23 221/241/3
f 67/97/22 201/105/25 239/242/25 118/237/22
f 96/238/37 95/243/35 129/244/35 130/239/37
f 54/100/23 55/107/26 106/245/26 105/240/23
f 95/243/35 94/246/32 128/247/32 129/244/35
f 55/107/26 56/115/29 107/248/29 106/245/26
f 196/113/28 53/112/28 104/249/28 120/250/28
f 94/246/32 93/251/30 127/252/30 128/247/32
f 56/115/29 57/119/31 108/253/31 107/248/29
f 93/251/30 92/254/27 126/255/27 127/252/30
f 57/119/31 58/123/33 109/256/33 108/253/31
f 92/254/27 91/257/24 125/258/24 126/255/27
f 58/123/33 59/131/36 110/259/36 109/256/33
f 68/149/34 198/127/34 136/260/34 119/261/34
f 91/257/24 90/75/21 251/76/21 125/258/24
f 59/131/36 60/73/20 230/74/20 110/259/36
