# Blender v2.82 (sub 1) OBJ File: 'Mediatheque - Copie.blend'
# www.blender.org
mtllib TV.mtl
o Plane.140_Plane.066
v -0.737262 -0.487066 -0.040523
v 0.737262 -0.487066 -0.040523
v -0.737262 0.487066 -0.040523
v 0.737262 0.487066 -0.040523
v -0.713599 0.463403 0.040523
v -0.713599 -0.463403 0.040523
v 0.713599 -0.463403 0.040523
v 0.713599 0.463403 0.040523
v -0.737262 0.487066 0.040523
v -0.737262 -0.487066 0.040523
v 0.737262 -0.487066 0.040523
v 0.737262 0.487066 0.040523
vt 1.000000 0.000000
vt 1.000000 1.000000
vt 1.000000 1.000000
vt 1.000000 0.000000
vt 0.000000 1.000000
vt 0.000000 0.000000
vt 0.000000 0.000000
vt 0.000000 1.000000
vt 0.016048 0.024292
vt 0.016048 0.975708
vt 0.983952 0.024292
vt 0.983952 0.975708
vn 1.0000 0.0000 0.0000
vn -1.0000 0.0000 0.0000
vn 0.0000 1.0000 0.0000
vn 0.0000 -1.0000 0.0000
vn 0.0000 -0.0000 -1.0000
vn -0.0000 0.0000 1.0000
usemtl Material.001
s off
f 2/1/1 4/2/1 12/3/1 11/4/1
f 3/5/2 1/6/2 10/7/2 9/8/2
f 4/2/3 3/5/3 9/8/3 12/3/3
f 1/6/4 2/1/4 11/4/4 10/7/4
f 3/5/5 4/2/5 2/1/5 1/6/5
f 6/9/6 5/10/6 9/8/6 10/7/6
f 7/11/6 6/9/6 10/7/6 11/4/6
f 8/12/6 7/11/6 11/4/6 12/3/6
f 5/10/6 8/12/6 12/3/6 9/8/6
usemtl Material.002
f 5/10/6 6/9/6 7/11/6 8/12/6
