# Blender v2.82 (sub 1) OBJ File: 'Mediatheque - Copie.blend'
# www.blender.org
mtllib VioletWall.mtl
o Media.000_Plane.080
v -24.537369 3.265293 -7.922989
v -8.047787 3.265293 -7.922989
v -8.047792 0.581538 -7.922989
v -24.537373 0.581538 -7.922989
v -24.537369 3.265293 -7.975861
v -8.047787 3.265293 -7.975861
v -8.047792 0.581538 -7.975861
v -24.537373 0.581538 -7.975861
vt 1.595736 0.678336
vt -0.595735 0.678336
vt -0.595735 0.321664
vt 1.595735 0.321664
vt 1.595736 0.678336
vt 1.595735 0.321664
vt -0.595735 0.321664
vt -0.595735 0.678336
vt 0.496487 0.678336
vt 0.496487 0.321664
vt 0.503513 0.321664
vt 0.503513 0.678336
vt -0.595735 0.496487
vt 1.595736 0.496487
vt 1.595736 0.503513
vt -0.595735 0.503513
vt 0.496487 0.321664
vt 0.496487 0.678336
vt 0.503513 0.678336
vt 0.503513 0.321664
vt 1.595735 0.496487
vt -0.595735 0.496487
vt -0.595735 0.503513
vt 1.595735 0.503513
vn 0.0000 0.0000 1.0000
vn 0.0000 0.0000 -1.0000
vn 1.0000 -0.0000 0.0000
vn 0.0000 1.0000 0.0000
vn -1.0000 0.0000 0.0000
vn 0.0000 -1.0000 0.0000
usemtl Material.014
s off
f 2/1/1 1/2/1 4/3/1 3/4/1
f 6/5/2 7/6/2 8/7/2 5/8/2
f 2/9/3 3/10/3 7/11/3 6/12/3
f 1/13/4 2/14/4 6/15/4 5/16/4
f 4/17/5 1/18/5 5/19/5 8/20/5
f 3/21/6 4/22/6 8/23/6 7/24/6
